<mxfile host="app.diagrams.net" modified="2023-05-10T16:01:02.478Z" agent="Mozilla/5.0 (Windows NT 10.0; Win64; x64) AppleWebKit/537.36 (KHTML, like Gecko) Chrome/112.0.0.0 Safari/537.36 Edg/112.0.1722.68" etag="4JGwpZodGnWX6YoNRl-b" version="21.2.9" type="github">
  <diagram id="4_XCW6oBCm1cpU5HytLm" name="Page-1">
    <mxGraphModel dx="737" dy="462" grid="1" gridSize="6" guides="1" tooltips="1" connect="1" arrows="1" fold="1" page="1" pageScale="1" pageWidth="1600" pageHeight="900" math="0" shadow="0">
      <root>
        <mxCell id="0" />
        <mxCell id="1" parent="0" />
        <mxCell id="uX3nckn37POY2VgG7rPa-2" value="Salesforce Architecture" style="rounded=0;whiteSpace=wrap;html=1;dashed=1;verticalAlign=top;fillColor=#647687;strokeColor=#314354;fontColor=#ffffff;" parent="1" vertex="1">
          <mxGeometry x="30" y="228" width="582" height="408" as="geometry" />
        </mxCell>
        <mxCell id="uX3nckn37POY2VgG7rPa-3" value="User Interface" style="rounded=1;whiteSpace=wrap;html=1;fillColor=#f0a30a;strokeColor=#BD7000;fontColor=#000000;" parent="1" vertex="1">
          <mxGeometry x="60" y="318" width="120" height="60" as="geometry" />
        </mxCell>
        <mxCell id="uX3nckn37POY2VgG7rPa-4" value="Business Logic" style="rounded=1;whiteSpace=wrap;html=1;fillColor=#f0a30a;strokeColor=#BD7000;fontColor=#000000;" parent="1" vertex="1">
          <mxGeometry x="60" y="420" width="120" height="60" as="geometry" />
        </mxCell>
        <mxCell id="uX3nckn37POY2VgG7rPa-5" value="Data Repository" style="rounded=1;whiteSpace=wrap;html=1;fillColor=#f0a30a;strokeColor=#BD7000;fontColor=#000000;" parent="1" vertex="1">
          <mxGeometry x="60" y="516" width="120" height="60" as="geometry" />
        </mxCell>
        <mxCell id="uX3nckn37POY2VgG7rPa-6" value="&lt;font style=&quot;font-size: 11px;&quot;&gt;Application Layers&lt;/font&gt;" style="rounded=0;whiteSpace=wrap;html=1;strokeColor=none;" parent="1" vertex="1">
          <mxGeometry x="60" y="276" width="120" height="24" as="geometry" />
        </mxCell>
        <mxCell id="uX3nckn37POY2VgG7rPa-7" value="" style="rounded=0;whiteSpace=wrap;html=1;" parent="1" vertex="1">
          <mxGeometry x="198" y="318" width="390" height="60" as="geometry" />
        </mxCell>
        <mxCell id="uX3nckn37POY2VgG7rPa-18" value="Fullstack Architecture" style="rounded=0;whiteSpace=wrap;html=1;dashed=1;verticalAlign=top;" parent="1" vertex="1">
          <mxGeometry x="660" y="228" width="582" height="408" as="geometry" />
        </mxCell>
        <mxCell id="uX3nckn37POY2VgG7rPa-19" value="" style="rounded=1;whiteSpace=wrap;html=1;" parent="1" vertex="1">
          <mxGeometry x="1104" y="312" width="120" height="60" as="geometry" />
        </mxCell>
        <mxCell id="uX3nckn37POY2VgG7rPa-20" value="" style="rounded=1;whiteSpace=wrap;html=1;" parent="1" vertex="1">
          <mxGeometry x="1104" y="414" width="120" height="60" as="geometry" />
        </mxCell>
        <mxCell id="uX3nckn37POY2VgG7rPa-21" value="" style="rounded=1;whiteSpace=wrap;html=1;" parent="1" vertex="1">
          <mxGeometry x="1104" y="534" width="120" height="60" as="geometry" />
        </mxCell>
        <mxCell id="uX3nckn37POY2VgG7rPa-22" value="&lt;font style=&quot;font-size: 9px;&quot;&gt;Applicatio Layers&lt;/font&gt;" style="rounded=0;whiteSpace=wrap;html=1;" parent="1" vertex="1">
          <mxGeometry x="1104" y="270" width="120" height="24" as="geometry" />
        </mxCell>
        <mxCell id="uX3nckn37POY2VgG7rPa-23" value="" style="rounded=0;whiteSpace=wrap;html=1;" parent="1" vertex="1">
          <mxGeometry x="690" y="318" width="390" height="60" as="geometry" />
        </mxCell>
        <mxCell id="uX3nckn37POY2VgG7rPa-24" value="" style="rounded=0;whiteSpace=wrap;html=1;" parent="1" vertex="1">
          <mxGeometry x="690" y="420" width="390" height="60" as="geometry" />
        </mxCell>
        <mxCell id="uX3nckn37POY2VgG7rPa-25" value="" style="rounded=0;whiteSpace=wrap;html=1;" parent="1" vertex="1">
          <mxGeometry x="690" y="534" width="390" height="60" as="geometry" />
        </mxCell>
        <mxCell id="uX3nckn37POY2VgG7rPa-26" value="&lt;font style=&quot;font-size: 15px;&quot;&gt;View:&lt;/font&gt;" style="rounded=0;whiteSpace=wrap;html=1;shadow=0;strokeColor=#6c8ebf;fillColor=#dae8fc;" parent="1" vertex="1">
          <mxGeometry x="192" y="318" width="102" height="60" as="geometry" />
        </mxCell>
        <mxCell id="uX3nckn37POY2VgG7rPa-27" value="Lightening Web Components" style="rounded=0;whiteSpace=wrap;html=1;shadow=0;strokeColor=#6c8ebf;verticalAlign=bottom;fillColor=#dae8fc;" parent="1" vertex="1">
          <mxGeometry x="294" y="318" width="174" height="60" as="geometry" />
        </mxCell>
        <mxCell id="uX3nckn37POY2VgG7rPa-28" value="Dev Tools" style="rounded=0;whiteSpace=wrap;html=1;shadow=0;strokeColor=#6c8ebf;fillColor=#dae8fc;verticalAlign=bottom;" parent="1" vertex="1">
          <mxGeometry x="468" y="318" width="126" height="60" as="geometry" />
        </mxCell>
        <mxCell id="uX3nckn37POY2VgG7rPa-36" value="" style="rounded=0;whiteSpace=wrap;html=1;" parent="1" vertex="1">
          <mxGeometry x="192" y="420" width="390" height="60" as="geometry" />
        </mxCell>
        <mxCell id="uX3nckn37POY2VgG7rPa-37" value="Controller:" style="rounded=0;whiteSpace=wrap;html=1;shadow=0;strokeColor=#6c8ebf;fillColor=#dae8fc;gradientColor=#7ea6e0;fontSize=15;" parent="1" vertex="1">
          <mxGeometry x="192" y="420" width="102" height="60" as="geometry" />
        </mxCell>
        <mxCell id="uX3nckn37POY2VgG7rPa-38" value="Apex Classes" style="rounded=0;whiteSpace=wrap;html=1;shadow=0;strokeColor=#6c8ebf;fillColor=#dae8fc;gradientColor=#7ea6e0;verticalAlign=bottom;" parent="1" vertex="1">
          <mxGeometry x="294" y="420" width="174" height="60" as="geometry" />
        </mxCell>
        <mxCell id="uX3nckn37POY2VgG7rPa-39" value="" style="rounded=0;whiteSpace=wrap;html=1;shadow=0;strokeColor=#6c8ebf;fillColor=#dae8fc;gradientColor=#7ea6e0;" parent="1" vertex="1">
          <mxGeometry x="468" y="420" width="126" height="60" as="geometry" />
        </mxCell>
        <mxCell id="uX3nckn37POY2VgG7rPa-40" value="" style="rounded=0;whiteSpace=wrap;html=1;" parent="1" vertex="1">
          <mxGeometry x="192" y="516" width="390" height="60" as="geometry" />
        </mxCell>
        <mxCell id="uX3nckn37POY2VgG7rPa-41" value="Model:" style="rounded=0;whiteSpace=wrap;html=1;shadow=0;strokeColor=#23445d;fillColor=#bac8d3;fontSize=15;" parent="1" vertex="1">
          <mxGeometry x="192" y="516" width="102" height="60" as="geometry" />
        </mxCell>
        <mxCell id="uX3nckn37POY2VgG7rPa-42" value="" style="rounded=0;whiteSpace=wrap;html=1;shadow=0;strokeColor=#23445d;fillColor=#bac8d3;" parent="1" vertex="1">
          <mxGeometry x="294" y="516" width="174" height="60" as="geometry" />
        </mxCell>
        <mxCell id="uX3nckn37POY2VgG7rPa-43" value="" style="rounded=0;whiteSpace=wrap;html=1;shadow=0;strokeColor=#23445d;fillColor=#bac8d3;" parent="1" vertex="1">
          <mxGeometry x="468" y="516" width="132" height="60" as="geometry" />
        </mxCell>
        <mxCell id="uX3nckn37POY2VgG7rPa-44" value="" style="shape=image;html=1;verticalAlign=top;verticalLabelPosition=bottom;labelBackgroundColor=#ffffff;imageAspect=0;aspect=fixed;image=https://cdn1.iconfinder.com/data/icons/bootstrap-vol-3/16/filetype-html-128.png" parent="1" vertex="1">
          <mxGeometry x="318" y="324" width="30" height="30" as="geometry" />
        </mxCell>
        <mxCell id="uX3nckn37POY2VgG7rPa-45" value="" style="shape=image;html=1;verticalAlign=top;verticalLabelPosition=bottom;labelBackgroundColor=#ffffff;imageAspect=0;aspect=fixed;image=https://cdn1.iconfinder.com/data/icons/unicons-line-vol-4/24/java-script-128.png" parent="1" vertex="1">
          <mxGeometry x="380" y="324" width="36" height="36" as="geometry" />
        </mxCell>
        <mxCell id="HkrrA9YoYlj2VY17bmsr-4" value="1.VSC&lt;br&gt;&lt;div style=&quot;&quot;&gt;&lt;span style=&quot;background-color: initial;&quot;&gt;2.LWC Designer&lt;/span&gt;&lt;/div&gt;" style="shape=callout;whiteSpace=wrap;html=1;perimeter=calloutPerimeter;align=left;" vertex="1" parent="1">
          <mxGeometry x="486" y="244" width="120" height="80" as="geometry" />
        </mxCell>
        <mxCell id="HkrrA9YoYlj2VY17bmsr-5" value="1.VSC&lt;br&gt;&lt;div style=&quot;&quot;&gt;&lt;span style=&quot;background-color: initial;&quot;&gt;2.LWC Designer&lt;/span&gt;&lt;/div&gt;&lt;div style=&quot;&quot;&gt;&lt;span style=&quot;background-color: initial;&quot;&gt;3.Developer Console&lt;/span&gt;&lt;/div&gt;" style="shape=callout;whiteSpace=wrap;html=1;perimeter=calloutPerimeter;align=left;" vertex="1" parent="1">
          <mxGeometry x="492" y="390" width="120" height="80" as="geometry" />
        </mxCell>
        <mxCell id="HkrrA9YoYlj2VY17bmsr-6" value="&lt;ul&gt;&lt;li&gt;&lt;span style=&quot;background-color: initial;&quot;&gt;Developer Consoler&lt;/span&gt;&lt;/li&gt;&lt;li&gt;&lt;span style=&quot;background-color: initial;&quot;&gt;Data Loader&lt;/span&gt;&lt;/li&gt;&lt;li&gt;Work Bench&lt;/li&gt;&lt;/ul&gt;" style="shape=callout;whiteSpace=wrap;html=1;perimeter=calloutPerimeter;align=left;" vertex="1" parent="1">
          <mxGeometry x="474" y="480" width="120" height="80" as="geometry" />
        </mxCell>
        <mxCell id="HkrrA9YoYlj2VY17bmsr-8" value="&lt;ul&gt;&lt;li&gt;Apex Classes&lt;/li&gt;&lt;/ul&gt;" style="shape=callout;whiteSpace=wrap;html=1;perimeter=calloutPerimeter;align=left;" vertex="1" parent="1">
          <mxGeometry x="312" y="390" width="120" height="80" as="geometry" />
        </mxCell>
        <mxCell id="HkrrA9YoYlj2VY17bmsr-9" value="&lt;ul&gt;&lt;li&gt;Contro&lt;/li&gt;&lt;/ul&gt;" style="shape=callout;whiteSpace=wrap;html=1;perimeter=calloutPerimeter;align=left;" vertex="1" parent="1">
          <mxGeometry x="333" y="238" width="120" height="80" as="geometry" />
        </mxCell>
        <mxCell id="HkrrA9YoYlj2VY17bmsr-10" value="" style="shape=image;verticalLabelPosition=bottom;labelBackgroundColor=default;verticalAlign=top;aspect=fixed;imageAspect=0;image=data:image/png,iVBORw0KGgoAAAANSUhEUgAAAgAAAAIACAYAAAD0eNT6AAAABHNCSVQICAgIfAhkiAAAAAlwSFlzAAAN1wAADdcBQiibeAAAABl0RVh0U29mdHdhcmUAd3d3Lmlua3NjYXBlLm9yZ5vuPBoAACAASURBVHic7N13mFTV4cbx77Tt9I6K9CJSbNjGFqOCNZpi/CWxxVEBdaQIKChW7GWSaIxj7CUau0HFqCAMRYoiBkFBqvS2LMsC2+b3xywIuMu2O3PuvfN+nsdHXGfufUPknveec4snHo8jIvYWDsWygWbV/JULZAIZFX+vya8BdgHFFX+vya+3A5sO9FckGtyRjN8HEbGORwVAxJxwKJYBHAJ0ANrv9ffW7Du4Z5tJWGc72LcUrAWWAUv3+vvKSDRYbCifSNpTARBJonAo5gXase/gvvff2wJeM+mMKwdWs28p2PvvKyLRYLmhbCKupwIgYpFwKNYc6A30qvh7b6Anzjt7t4sdwHxgXsVf3wDzItHgRqOpRFxCBUCkliqm7Xvw0yC/e8BvYzJXGlnDXoWg4q8FWk4QqR0VAJFqhEOxTsCJQBA4HugO+I2Gkv2VAguB6UAMmBqJBn8wG0nE3lQARPYSDsX8wBH8NOCfSOKCPHGetcBUKgoB8FUkGiw1G0nEPlQAJK2FQ7GGJM7qdw/4xwI5RkNJshQBX/BTIZgeiQYLzEYSMUcFQNJKxVX5/YABQH/gaNL3Kvx0Vw7MBj4CPgRm6q4DSScqAOJ64VCsNXAWiQH/TKCp2URiU5uBj0kUggmRaHCt4TwiSaUCIK5TsY5/AokBvz/QF/AYDSVOEwfmkigDHwHTdP2AuI0KgLhCOBRrBPwKOB/4JdDQbCJxmQLgE+A94J1INLjVcB6RelMBEMcKh2INSAz4F5OY4s8wm0jSRDEwAXgNeC8SDW4znEekTlQAxFHCoVgucC6JQX8AkGU2kaS5nSQuIHwN+E8kGtxuOI9IjakAiO1VvAnvbBKD/jnoNj2xpyJgPIky8IHeiCh2pwIgtlRxu96ZwKXAeUCe2UQitVIIvA+8AHys2wvFjlQAxFbCodjBwJXAn0m8RU/E6VYA/wSeiUSDP5oOI7KbCoAYFw7FfCSm9kMk1vV9ZhOJJEUZiesFosD4SDRYZjiPpDkVADEmHIp1IHGmfwXQ1nAckVRaDTwL/DMSDS41HUbSkwqApFQ4FAsAFwBXk7hfXw/okXQWJ/F8gaeAdyPRYInhPJJGVAAkJcKhWHNgEDAYaGk4jogdrQceB56IRIMbTYcR91MBkKQKh2JdgKHAZUC24TgiTrADeB54JBINLjIdRtxLBUCSIhyKBYFhJJ7Up7ftidReOYlHDz8ciQZjpsOI+6gAiGUqrua/EBgOHGs4joibfAE8BLytuwfEKioAUm8Vj+e9ErgR6Gg4joibLQUeJfFMAT12WOpFBUDqLByKNSQx6N8INDEcRySdbAEeAx6LRIMFpsOIM6kASK1VnPFfB4wAmhqOI5LONgMPAH/TjIDUlgqA1Fg4FMsCBgKj0K18InayHrgP+HskGtxpOow4gwqAVCscimUAVwGj0RP7ROxsNXAP8HQkGiw2HUbsTQVAqhQOxfzA5cCt6MU8Ik6yArgLeC4SDZaaDiP2pAIgP1PxKt4/AGOBTobjiEjd/QDcAbysVxLL/lQAZB/hUOxUElcX9zEcRUSs8zVwYyQanGQ6iNiHCoAAe97M9xBwkeksIpI0bwHD9QZCARWAtBcOxfKAW0g8rz/TcBwRSb5dwCPAuEg0WGg6jJijApCmwqGYh8QLeu4FWhuOIyKptxa4GXg+Eg1qIEhDKgBpKByKnUhinf9o01lExLjZJK4PmGo6iKSWCkAaCYdi7YD7gd+bziIitvMvYGQkGlxhOoikhgpAGqh4S98QErcD5RiOIyL2VUTi9t9H9dZB91MBcLlwKNYXeBo4ynQWEXGMOcBVkWhwrukgkjwqAC5V8dz+24FhgN9sGhFxoFLgYeB2vV/AnVQAXKjiYT5PAV0MRxER51sEXK2HCLmPCoCLhEOxxsCDwJ8Bj+E4IuIeceCfwE2RaDDfdBixhgqAS4RDsYuAvwFtTGcREddaA1wXiQbfMh1E6k8FwOHCoVhr4AngQtNZRCRtvA0MikSDa00HkbpTAXCwcCh2Polpueams4hI2tkI/DkSDb5nOojUjQqAA4VDsRwSz/K+xnQWEUl7/wCGRqLBItNBpHZUABwmHIodCbwCdDOdRUSkwnfA/0WiwS9NB5GaUwFwiHAo5gWGA3cDAcNxRET2VwKMAR6KRIPlpsNI9VQAHCAcih0MvACcZjqLiEg1JgKXRqLBH00HkQPzmg4gBxYOxX4LzEODv4g4w2nAvIpjl9iYZgBsKhyK5QF/BS43HEVEpK6eA66PRIOFpoPIz6kA2FA4FOtG4j7bHqaziIjU0wLgwkg0+J3pILIvLQHYTDgU+xUwEw3+IuIOPYCZFcc2sRHNANhExVX+dwOj0HP8RcR94sB9wBjdJWAPKgA2EA7FmpG4t/9M01lERJLsYxLPDNhkOki6UwEwrOLBPm8Bh5rOIiKSIsuBi/TgILN0DYBB4VDscmAqGvxFJL0cCkytOAaKIZoBMCAcimUAjwEDTWcRETHs78CNkWiw2HSQdKMCkGLhUKwViVv8jjedRUTEJqaTuFVwnekg6UQFIIXCoVgP4AOgveEoIiJ2sww4OxINLjAdJF3oGoAUCYdipwHT0OAvIlKZ9sC0imOlpIAKQAqEQ7FLgQlAY9NZRERsrDEwoeKYKUmmApBk4VDsduB59ApfEZGaCADPVxw7JYl0DUCSVFzp/zTwJ9NZREQc6kXgKt0hkBwqAEkQDsUak7jS/1TDUUREnG4SiTsE8k0HcRsVAIuFQ7EOwHj0Mh8REassAM6JRINLTQdxE10DYKFwKHYUMAMN/iIiVuoBzKg4xopFVAAsEg7FgsBnQEvTWUREXKgl8FnFsVYsoAJggXAodgaJ2/wams4iIuJiDUncJniG6SBuoAJQT+FQ7ALgfSDHdBYRkTSQA7xfceyVelABqIdwKHYJ8AaQaTqLiEgayQTeqDgGSx2pANRROBS7CngJ8JvOIiKShvzASxXHYqkDFYA6CIdiNwJPod8/ERGTvMBTFcdkqSUNYLUUDsXGAI8CHtNZREQED/BoxbFZakEPAqqFcCh2PzDCdA4REanUA5FocKTpEE6hGYAa0uAvImJ7IyqO1VIDKgA1UDG1pMFfRMT+Rmg5oGa0BFCNiotLHjWdQ0REamVIJBp8zHQIO1MBOICK20ueQhf8iYg4TRy4OhINPm06iF2pAFSh4gETL6FlEhERpyoH/hiJBl81HcSOVAAqUfGIyTfQQ35ERJyuFPhNJBp813QQu1EB2E/FSybeR4/3FRFxi13AeZFo8L+mg9iJCsBeKl4zOQG92EdExG2KgLMi0WDMdBC7UAGoEA7FjgI+Q6/0FRFxqwLgF5FocI7pIHagAgCEQ7EOwAygpeksIiKSVOuB4yLR4FLTQUxL+yvcw6FYY2A8GvxFRNJBS2B8xbE/raV1AQiHYhnA20AP01lERCRlegBvV4wBaSutCwDwNHCq6RAiIpJyp5IYA9JW2haAcCh2O/AnwzFERMScP1WMBWkpLS8CDIdilwLPm84hIiK2cFkkGnzBdIhUS7sCEA7FTiNxr3/AdBYREbGFEhLPCJhoOkgqpVUBCIdiPYBpQNpf/SkiIvvIB06IRIMLTAdJlbQpAOFQrBWJe/3bG44iIiL2tIzEMwLWmQ6SCmlxEeBet/u1NxxFRETsqz1pdHtgWhQA4DHgeNMhRETE9o4nMWa4nuuXAMKh2OXAs6ZziIiIo1wRiQafMx0imVxdAMKh2JHAVCDLdBYREXGUncCJkWjwS9NBksW1BSAcijUD5gCHms4iIiKOtBw4KhINbjIdJBlceQ1AOBTzAq+gwV9EROruUOCVijHFdVz5Pwq4GzjTdAgREXG8M0mMKa7juiWAcCj2K+AtwGM6i4i4UyDgoaTEXcdOOaA4cFEkGnzHdBAruaoAhEOxbsBMoKHpLCLiTq3aZHHd8N6sXb2d2KQ1zJ+3hVKVgXRQAPSLRIPfmQ5iFdcUgHAolkdi8O9hOouIuFPbg3O4bngvcnN/epVIYWEJUz9fzRdT17Npwy6D6SQFFpAoAYWmg1jBbzqAhf6KBn8RSZKD2+Vw3bDeZOfse9jMywtw1jmHctY5h7Jg/mZik9aw4Jt8ysrccXIl++hBYqy5wnQQK7hiBiAciv0WeN10DhFxp0M75jFoSC+ysnw1+nxBQTFTJyVmBbZsLk5yOjHgd5Fo8N+mQ9SX4wtAOBQ7GJgHNDGdRUTcp1OXPK69sRcZGTUb/PcWj8P8eRuJTVrDd98WUF7u7OOt7LEF6B2JBn80HaQ+HF0AKu7N/AQ4zXQWEXGfrj0acvX1hxMI1P+O6fwtu5gycTWzpq9na36JBenEsInALyPRYLnpIHXl9OcADEeDv4gkQffDG3HtDdYM/gCNm2Ry3kUduOOBflwxsBvdDmuI16u7lR3sNBJjkGM5dgag4jn/M4BAdZ8VEamNw/s24c8DD0v6AL15004mf7aK2TM2sq1AswIOVAIc59T3BTiyAIRDsRzgS6Cb6Swi4i59j27K5Vf3wONJ3dl5eXmcr2avZ+rna1myaBsOPCyns++AIyPRYJHpILXl1NsAH0GDv4hY7OjjmvPHK7uTwrEfAK/Xw1H9WnFUv1ZsWFfE5ImrmPPFJrYXlqY2iNRFNxJj0rWmg9SW42YAwqHY+cC7pnOIiLscF2zBJZfZ57yirLScOTPXM23yWpYtKdSsgP1dEIkG3zMdojYcVQDCoVhr4BugueksIuIewdNa8dv/62I6RpXWrt7O5Imr+WrmRoqKykzHkcptBHpFosG1poPUlNPuAngCDf4iYqHTzmxj68EfoHXbXH73hy7c9fCxXHxpJ9q1zzUdSX6uOYkxyjEcMwMQDsUuAt40nUNE3OOMcw7i3F91MB2jTlatLGTyZ6uYO3szO3dqVsBGfh2JBt8yHaImHFEAwqFYY+BboI3pLCLiDgMuOIT+5x5qOka9FReX8cXUtUyfso5VKx13IbobrQEOi0SD+aaDVMcpdwE8iAZ/EbGAxwPn/bodp5/VznQUS2Rk+DjptIM46bSDWL6sgCmfrebrLzdTvMuxD6hzujYkxqyQ6SDVsf0MQDgUOxX4DNAjs0SkXjweuPD37TnlFwebjpJUO3eWMSO2hhmxdaxZtcN0nHQUB34RiQYnmQ5yILYuAOFQLIvEi37sfYWOiNie1+vhN3/owIkntzUdJaWWLN7KlImr+WbuFkqKNSuQQotIvDBop+kgVbH7EsDtaPAXkXryej1cclkn+p3Q2nSUlOvYuREdOzdiR1Ep06asZkZsPevX2nZMcpMuJMawUYZzVMm2MwDhUKwvMAv7lxQRsTGvz8Mfr+zMUf1amY5iG4u+28KUiWuYP28LpSX2HANcohQ4JhINzjUdpDK2LADhUMwHfAEcZTqLiDiX3+/h0lBX+hzZwnQUWyosLGHq56v5Yup6Nm3YZTqOW80Bjo1Eg7a7V9OuZ9dD0OAvIvUQyPByxTXd6Nm7mekotpWXF+Cscw7lrHMOZcH8zcQmrWHBN/mUldnvxNDBjiIxpj1kOsj+bDcDEA7F2gELgBzTWUTEmQIZXq4a3J3uhzU1HcVxCgqKmTopMSuwZXOx6ThuUQT0iESDK0wH2ZsdZwDuR4O/iNRRZpaPq6/rQedujU1HcaSGDTMYcH57+p/XnvnzNhKbtIbvvi2gvNxeJ4sOk0NibLvEdJC92WoGIByKnQjETOcQEWfKzvFzzQ096NCpkekorpK/ZRdTJq5m1vT1bM0vMR3HyYKRaHCq6RC72aYAhEMxDzATONp0FhFxnpxcHwNvPJx27RuYjuJa8Xicr7/ayLTP17Bo4TbNCtTebKBfJBq0xW+cnZYALkODv4jUQV4DP4OGHs5BB+eZjuJqHo+Hvke2oO+RLdi8aSeTP1vF7Bkb2VagWYEaOprEWPec4RyATWYAwqFYHomnJqXfUzpEpF4aNgoweOjhtG6rV+SaUF4e56vZ65n6+VqWLNqGDYYUu1sLdIlEg4Wmg9hlBuAWNPiLSC01ahLg+mG9aNFK1w2b4vV6OKpfK47q14oN63fw2P1zKSyw3S3vdtKaxJh3i+kgXtMBwqFYB2Co6Rwi4ixNm2cQHtFbg7+NtGiZTWlZCUVFeqhQNYZWjH1GGS8AJB6OkGk6hIg4R/MWmYRH9KFZ82zTUaQSGzduUwk4sExs8GAgowWg4lW/F5nMICLO0rJ1FuGRfWjcROcNdrT7ve0qAdW6qGIMNMZYAQiHYl7gMVP7FxHnaXNQNuERvWnYKMN0FKkBlYBqPVYxFhphcgbgD0Afg/sXEQc56JAcbripN3kNNPg7iUrAAfUhMRYaYaQAhEMxPzDWxL5FxHkO7ZDLDTf1Jic3YDqKVMPj+fnPVAIOaGzFmJhypmYALgc6Gdq3iDhIh84NGDysN1nZdrlrWepCJaBKnUiMiSmX8gIQDsUygFtTvV8RcZ7O3RoweGgvMjN9pqOIBVQCqnRrxdiYUiZmAK4C2hnYr4g4SLfDGjHwxl4EAna4W1lqrLI1gL2oBFSqHYmxMaVS+icrHIplAaNTuU8RcZ6evRtzzQ2H4/dr8HcjlYBKja4YI1Mm1X+6BgJtU7xPEXGQPkc25arBPfH5DnwmKc6mEvAzbUmMkSmTsgIQDsVygVGp2p+IOM+R/ZpxxbWH4fVq8HeqalYA9qES8DOjKsbKlEjlDMB1QMsU7k9EHOTYE5tz6VU9ajWAiPOpBOyjJYmxMiVSUgDCoVhDYEQq9iUiznPCKS35v8u7a/BPUyoB+xhRMWYmXapmAG4EmqZoXyLiIKf8sjUX/7Gr6Rhikbp2OJWAPZqSGDOTLukFoGI9IyX/Y0TEWU4f0JaLLu5sOobYhErAHjem4lqAVMwAXAk0ScF+RMRB+p9/MOdf1NF0DLFYfZdxVAKAxJh5ZbJ3ktQCEA7FfMCQZO5DRJzF44FzL2rHgPPam44iNqUSAMCQijE0aZI9A3Ah0CHJ+xARh/B44ILfHsoZA/QwUDkwlQA6kBhDkybZBWB4krcvIg7h9Xr4zf914LQzDjEdRZLJwls5VAKSO4YmrQCEQ7EgcGyyti8izuH1erj4Tx0JnnqQ6SjiMGleAo6tGEuTIpkzAMOSuG0RcQivz8MfruzMccE2pqOIQ6V5CUjaWJqUAhAOxboA5ydj2yLiHH6/h8tCXTn62Famo0iKJOtZTmlcAs6vGFMtl6wZgKFJ3LaIOEAg4OHya7vR96gWpqOIS6RpCfCSGFOTsmFLhUOx5sBlVm9XRJwjI8PLnwf3oFef5qajiMskSkCx6RipdlnF2GqpZJylDwKyk7BdEXGAzEwfoet70KOnnv6djlLxPoeNGwvSrQRkkxhbLWVpAQiHYgFgsJXbFBHnyMr2cW34MLp218M/JbnSsAQMrhhjLWP1DMAF6JW/ImkpJ9fHoCE96dilkekokibSrAS0JDHGWsbqAnC1xdsTEQfIzfMzeOjhHNohJW8xFTtL8Tud06wEWDrGWlYAwqFYB+CXVm1PRJyhQcMA19/Ui4PbNTAdRdJUGpWAX1aMtZawcgbgzyTvFlARsaFGjQPcMKIXbdom/c2lIgeUJiXAQ2KstYQlBaDijUVXWLEtEXGGJk0zuGFEb1q2yjEdRWwkxSsA+0iTEnCFVW8JtGoG4BygrUXbEhGba9Y8k/DI3jRvoTt+xV7SoAS0JTHm1ptVBSBk0XZExOZatEoM/k2aZpmOIjZkh3XgNCgBloy59S4A4VDsYGCABVnEJrxeD32Oakrrtjq7k321bptNeEQfGjXONB1F5IA2bXJ1CRhQMfbWi9+CIFcClqxHiFler4feRzTh7AsOpVWbXEpKyvnXC98ze8ZG09HEBg46JIfBw3qRm2vps0hEkiIeT5QAaEhOTobpOFbzkRh776zPRjzxeLzOXw6HYl5gKdCuPiHErP0H/v1Nm7KGt/+1lOLicgPpxA4OaZ/L4KG9yM624pxB3Oz2m6fx9ZfrTcfYw+OBZs1cWQJWAB0i0WCdD8z1/dN8Jhr8Hau6gX+3E05qw6EdGvDskwvZsG5nChOKHbTvmMegob3IzNREnziPi2cC2pEYgz+q6wbqWwAuref3xYCaDvx7O+jgPG669QhefvY7vp6zOckJxS46dW3AwHAvAhl6u7c4l4tLwKXUowDUeQkgHIplA+uBvLruXFKrLgN/ZT7/7Efee2M5pSV1Xz4S++vaoyHX3HA4fr8Gf6m5O26Zxtw59lkC2JsLlwMKgZaRaHBHXb5cnxmAs9Hg7whWDfy7nfKLg+nQsRHP/mMBmze69irbtHZYr0ZcNagnPg3+4iIunAnIIzEWv1mXL9enAFxcj+9KClg98O+tXfsGjLjtSF58eiHz5+Vbum0xq9cRTbjy2sPweu1wR7eItVxYAi6mjgWgTksA4VAsl8T0v54BakPJHPgr88lHKxj/zkrKy7Qk4HRHHNOUy0I98Jh8nqs42p2jp/HVbHsuAezNRcsBRSSWAbbX9ot1nQE4Fw3+tpPqgX+3X/ZvR8dOjXguupCtW0pStl+x1jHHN+cPV3Q3+ix3kVRx0UxADokx+bXafrGuBUDT/zZiauDfW8cujRg59kief2oB331bYCSD1N3xJ7Xk95d2NR1DJKVcVAIupg4FoNZLAOFQrAGJ6X89CNwwOwz8lfnw/WV8/J9VlJdrScAJTvpFa35zSWfTMcQl7hw9na9mrzMdo1ZcsBywk8QywLbafKkuMwDno8HfKLsO/LsNOK89nbo04oXo92wr0JKAnf3irDZc8JtOpmOIGOWCmYAsEmPzy7X5Ul0KgKb/DbH7wL+3rt2bMGLsETz35Lf8sKjQdBypxJnnHsQ5F3QwHUPEFlxQAi6mlgWgVksA4VCsEYnpf0f+7jhZh84NuOTSzrYf+PcXj8P7by1h4sdrtCRgI2f/6hDOOudQ0zHEhe4aM50vZzlrCWBvDl4OKCaxDLC1pl+o7VM+foUGfyN69GzsuMEfEn+Yzv91R666rjs5uXqRjGkeD1zw20M1+ItUYfdMgANfJZxBYoyusdoWgPNr+XmxiNPPnXv2asbIsUfQroPzSoxbeDxw0e878IszDzEdRVzMDbeROrgE1GqMrnEBCIdifuCXtY4jUqFxk0yGjOrLyae3csVBwkm8Xg+/+1MnTv7FQaajiDiCQ0vALyvG6hqpzQzACUDD2ucRS9TxpU124/V6+PXvu3D5td3IztGSQCp4vR4uubwTJ5zUxnQUEUdxYAloSGKsrpHaFID+tc8iUrm+R7Zg+Jg+HHSIHiiZTD6fh0tDXeh3fGvTUSRtuGt6z4EloMZjtQqAQ7jj/H9fzVtkM+yWvpxwckvTUVzJH/Bw+TVdOeJo/f6K1IfDSoC1BSAcirUG+tY5jkgVfH4vF/+pK3+6qguZmT7TcVwjkOHlyoHd6X1EC9NRRFzBQSWgb8WYXa2azgCchdvmdZzGjVMAezn62FYMG9OH1m2zTUdxvIxML6HretCzVzPTUSQNufkCX4eUAA+JMbtaNS0Amv43LO72BgC0ap3D8DFHcMzxzU1HcaysLB/X3HAY3Xo0MR1FxJV2l4AdO2xdAmo0ZldbAMKhmBc4s95xRGogEPDyxyu7c/GlncjIqO1jKtJbTo6PgUN60rlrY9NRRFwtHoeNG21dAs6sGLsPqCZH2H5A0/rnkfpwyV2ANXbCSW0YcnNvWrTSe6dqIifXz6Chh9O+o+7UFbPcvASwN5uXgKYkxu4DqkkBGFD/LCK11/bgPEbcdgR9j1L/PJAGDQNcP/xwDjm0gekoImnF5iWg2rG7JgVA6/92kGYzALtlZPi44trD+PUlHfAH0uTUohYaNkoM/m0PzjMdRSQt2bgEVDt2H7AAhEOxhsDRlsWROkvT8X+Pk39xEOERvWnaLNN0FNto3CTADSN6O/IlUeJe6bIEsDebloCjK8bwKlU3A3B8DT4jkhLt2jdg5Ngj6NlHF7k1bZZJeGQfWrTUbZMidmDDEuAlMYYf8AMHcqJ1WaRe0u0qwCpkZfu5+rrDOe/X7fD50vBUA2jeMovwqN40baYLJEXsxIYl4IBjeHUFIGhhEBHL/LJ/O64bfjiNmgRMR0mplq2zCI/sTePGWgoRu0rPYr6bzUrAAcfwKgtAxSsFj7U8jtRJPJ7ef6gq07FzI0aOPZJuh6XHrW9tDsomPLIPDRtmmI4iIgdgoxJw7IFeD3ygGYAjAL2qzSbS4UmAdZGbG2DQkN70P/9gvF73lqSD2+UQHtGHvLz0mvEQ50nHiwArY5MSkENiLK/UgQqA1v/FMQac156BQw6jQUP3DZDtOuRy/U19yM6pssiLiA3ZpARUOZYfqABo/d9ONAFQra7dmzBi7BF06uqeB+J07NKA64f3JitLb0oUcSIblIAqx3LNAIirNGyYwfXD+3D6gLaOXxLo0r0hg4b0IiNDg78Jcd15UydaAvg5wyWgdjMA4VCsE1Cj9wmL2I3HA+df1JGrrutObp4zp82792zEwPDhBAJ6DIcJE8YvY/w7S0zHEBcxWAJaV4zpP1PV0UVn/+J4PXs1Y8RtR9Cug7OelHd438Zcff3h+Pwa/FNtx45SHh43iyf/MpfiknLTccRlDJaASsf0qo4wWv+3GU1H1k3jJpkMGdWXU37Z2hFTk32PaspVg3qm7UOOTFqyOJ9hgyYS+3yV6SgOp/92D8RQCah0TK+qABzw8YGSehr/687r9XDRxZ254tpu5OTYdz39qGObcfk1h+FxQlNxmQ/fW8KoGyezZvV201EkDRgoAZWO6T8rAOFQLAPonvQ4IinW58gWDL+1LwcdYr/HWxx7YgsuvaqHI2Yp3KRoewkP3DWTpx6fR4mm/CWFUlwCuleM7fuobAagB+DMK6dEqtGseTbDbunLCSe3NB1lj+Cprfi/y7uZjpF2Fn+/haGDJjI9ttp0FFdRx3YUPgAAIABJREFUia25FJYAP4mxfR+VFYDeyU4iYpLP7+XiP3XlT1d1IdPw/fWnntGG3/6hi9EM6ej9t39g1JAprFtbZDqKpLkUloCfje2VnemrANiQrgGw3tHHtqJd+wb884kFrF29I+X7P+Pstpx7YceU7zedFRaW8NeH5jBz+lrTUUT22F0CmjdvSHZ20t718bOxvbIZgF7J2rvUne4CSI6WrXIYPuYIjjm+eUr3O+D8gzX4p9h3CzYzdOBnGvyTTEsAdZOCmYCfje1aApC0Fwh4+eOV3fn9ZZ3IyEjuvfceD5z363b0P699UvcjP4nH4Z1/L2L0sClsWJ/6mR6RmkpyCTjwDEA4FGsOtEnGnkXs7vhgG4bc3JsWrTKTsn2PBy68uD2/7N8uKduXnyvYWsw9t03n+afnU1amWTSxvySWgDYVY/we+5/u6Oxf0lrbg/MYcduR9D26qaXb9Xo9/PYPHTnl9IMt3a5U7dv/bWLooM+YM3Od6SjpRWsA9ZbEErDPGL9/AdD6v6S9jAwfV1xzGL++pAP+QP0PZl6vh99f1okTT2lrQTqpTjwOb7z6PbfeFGPTxp2m44jUSZJKwD5j/P53AWgGQKTCyb84iA6dGvLM3xeyedOuOm3D6/Pwxys6c9SxrSxOJ5XZmr+Lxx6Yw9w5601HSVs6/7dOEu4OOOAMgAqATekuADMOObQBI8ceQc8+jWv9Xb/fw2VXd9XgnyL/m7eRIQMnavAXV7F4JqDyAhAOxbxATyv2INaLx9WrTcnK9nP1dYdz/m/a1fglPYGAhyuu7UbfI1skOZ3E43Fee2kht42YypbNmvIX97GwBPSsGOuBfZcA2gHZ9d26iFudflY7OnRqxPNPLSR/S0mVnwtkeLlqUHe697T2QkL5ufwtO3nkvjl8M3eD6ShSQdcAJodFywHZJMb6ZbDvEkD7eqWTJNMSgB107NyIEWOPpNthjSr995lZPq65oYcG/xT4+sv1DBk4UYO/pA2LZgLa7/7F3gWgQ322KJIucnMDDBrSiwHnH4zX+9PpTnaOn4E3HkaXbk0MpnO/8vI4Lz+3gDtumU7+lrpdnCniVBaUgD1j/d5LAO3rE0qSS9cA2k//89rTsUsjXnz6e0pLyxl4Y0/atW9gOparbdq4k0fvm8X8bzaZjiJV0RpA0tVzOaD97l/sXQA0A2BnKgC21LV7E0bcdgSFhSW0aZtrOo6rfTlrHZEH51CwNSXvTxextXqUgD1jva4BkDqZ9OlKtuZr+hWgQcMMDf5JVFYW58V/zufuW6dr8BfZSx2XA9rv/oWuAXAIu00ALFmUz81DJrNuzXbTUcTFNm7YwZjhU3jr9UVaBnMIrQCkVh1KwL4zAOFQLAPQc0qlVtas3s6oIZNZsnir6SjiQrNmrGXIwIks/Haz6SgitlbLEtC2YszfMwNwCJW/Glhswq5PAszfsotbb5qiW7HEMmWl5Tz71P8YN3YGhds05S9SE7UoAV4SY/6eQV/T/1JnRUWl3Dl6OlMnrzIdRRxu/boibh46hffeXGw6itSRVgDMqUUJ6AA/FYD2yQwlFrDnBMAepaXlPDxuNh+8t8R0FHGoGVPXMHTQRBZ9t8V0FBHHqmEJaA8/3QaoGQCpt3g8TvTxeWzZvIs/XN7DdBxxiNLScp576n+Mf1flUcQKNbhFsAP8VADapyqYuN8br35H/padDAz33edJeSL7W7tmOw/dM4sfFuWbjiJW0W0AtlBNCWgPPxWA1qkMJrVn02sAq/TJR8vZmr+L4bccQ0amz3QcsaGpk1fxxKNfUVRUajqKiCsdoAS0hp+uAWiW8mTierNmrGXszdMoLKz6zXmSfkqKy3jyL1/z0D2zNPi7kCYA7KWKawKagQqAY8TtfhVgFRbO38QtQyazaeMO01HEBlb/WMiI8GQmjF9qOopI2qikBKgAOIozx38AVq7YxqgbJ7NyxTbTUcSgyZ+tZNh1k1i2RA+OEkm1/UpAogCEQ7FsINtoMnG9jRt2cMvQKXqqWxoq3lXG449+xaP3z2HnDk35u51WAOxrrxKQHQ7Fsr3o7N8RnHYRYGUKtxUzdtRUZn+x1nQUSZEfV2zjphs+55OPlpuOIiL8VALy87f3VgGQlCreVca9t3/BpxM0ILjdxP+uYPh1k1ixrMB0FBHZSzwO8Xi8ox8VAIdwwRRAhfLyOH975Cvyt+zi17/vajqOWGznzjKe+utcJn6y0nQUMUB3ATiFp5UKgBjz0rPfsmXzTv48sBceHTVcYcWyAh68ZxY/6oJPEVvzeGihAuAQ8bg7B8jx7y5ha/4uwiOOwu/XCymd7L8fLufpv8+jeFeZ6SgiUr3mKgAO4YaLAKsS+3wVBQXFjBp7LNnZ/uq/ILayY0cpT0bmMnnij6ajiB1oNs8pmuoiQLGFeV9tYMzwKeRv2WU6itTC0h+2MmzwJA3+Ig4Tj9NEBcAxXDwFUGHJ4q3cPGQya9dsNx1FauCj/yxlZPhz1qwqNB1FRGqvkRfINZ1CZLe1a7Yz6sbJLFmst8PZVVFRKQ/eM4t//PVrSkrKTccRm9EKgDPE4/EcL5BpOojI3rbm72LM8Bhff7XBdBTZzw+L8hk6aCLTJq8yHUVE6ifDC/zsRcFiP26+CLAyO3aUcveY6cQmaW3ZLsa/8wOjbpzMOi3RiDhePB7P8KMZALGp0tJyHrlvNlvzd3HOrzqZjpO2theW8LdHvmTG1DWmo4gDaAXAGVQAHCSeblMAFeJxePrv37B58y7+dOVhpuOkne8XbuHhcbNYv67IdBQRsVA8jt+PlgDEAd567Xu2btnJwBuPwOfTOUayxePw3luLefGZbykr1YV+Ugu6CtAR4vF4QDMA4hiffryC/PxibhpzDJmZPtNxXKtwWzGRB7/UWxtFXCwex6+7AMRR5sxcy9iRUyncVmw6iistnL+JIQMnavAXcbl4PO7TXQAOkaaXAFTquwWbuXnoFDZu2GE6imvE44llljE3xfT7KvWiFQBniMfjXs0AOIUKwD5+XLGNUTdOZsVyvXWuvgq27uKuMdMT6/1l+g9NJB3E4/hUAMSxNm3cweihk1k4f5PpKI41/5vElP9Xs9eZjiIiKRSPxz1aAnCIuKYAKlVYWMKsGWu1RFJHh7ZvQKcujU3HEBfREoAz7C4AmgEQR/J4PFw1qDd/+nNPHXTqKK9BBjfffhyXX304Pr/XdBwRSZHdBUAcQGe4+woEvAwffQznXNDRdBTH83jggl93ZtxDQVq0zDYdR0RSIB4HL6AXsIuj5OYFGHvviZxwUlvTUVyla4+mPPLEaRxzXGvTUcTRNB3nBB6PBy+gG6rFMZo1z2LcwyfRs1cz01FcKa9BBrfccRxXaElAxNU8HuKaAXAKLQFwSLsG3PfYKbRr39B0FNc7/9edGffwSbRomWM6iogkhwqAOEOPw5sx7tGTad5Ca9Sp0rV7Ex75+2n0O15LAlJzuiDXGTweT1xLAA6RzhMAx53YljvuPYG8vIDpKGknLy/AzbdrSUDEhco1AyC2NuC8Doy49RgCGXr5j0laEpCa0gyAM+yeAVABcII0nAL4w+WHcfV1ffDoiGILPy0JtDEdRUTqr0xLAA6RTk8C9Pk8XD/sSH5zSVfTUWQ/iSWBY7niml5aEhBxMI9HSwBiM1lZPm654zh+cWY701HkAM6/qBP3PnISLVtpSUD2pxk7hyhTAXCIdHgSYMNGmdz1YJAjj2llOorUQJduTXjkidM49gQtCYg4jcfj0RKA2EOrNrnc99jJdO7axHQUqYXcvACjxh7LlddqSUDEYTQD4BgungHo1KUx9z16Mm3a5pqOInV03oVaEpAEXbPrDB6Pp8QLbDcdRKrn1vG/71EtufvBII2b6KWUTqclARHn8Hgo8gKbTAeR9HTq6Ycw5s7jyMr2m44iFtm9JPDna3vh15KAiG15PJ6tKgCO4a45gIt+14UbbjpK68Yude6Fnbj30ZNo1VpLAulGSwDO4PF4NqsASEp5PB6uGtSbP/25pw4ULte5axMefvw0jjtRSwIiduPxsFEFwCHccBtgIOBl+OhjOOeCjqajSIrk5gUYeduxXDVQSwIiduLxeNapAEhK5OYFGDvuBE44qa3pKGLAOb/qxL2PnqwlgXSgqT2nWK0C4BQOngFo1jyLcQ+fRM/ezU1HEYM6d21csSSgEihimsfDShUAh3Dq+H9Iuwbc99gptGvf0HQUsYHEkkA/LQmIGBaPs1wFQJKmx+HNGPfoyTRvkW06itjMniWBNnr4k9toAcAZysvjS7yRaHAHsMN0GKmGw64CPO7ENtxx7wnk5QVMRxGb6ty1MY88fqqWBEQMKCratW73HJxmAcQyA87rwIhb+xHI8JmOIjaXk1uxJDCot5YEXELXANqf1+spf3vCr+IqAA7hlAmAP1zeg6uv64NHRwGphXMu6Mh9j2lJQCQVvF5vCYAKgEPYffz3+TxcN+xIfnNJN9NRxKE6dUksCRwf1JKASDL5fJ7t8FMBWGswizhcVpaPW+44jtPPbGc6ijhcTm6AEbf2IzRYSwKOpdk/2/N6vZvhpwKwzFwUqRGbTgE0bJTJXQ8GOfKYVqajiIucfb6WBESSxev1rIKfCsBSg1nEoVq1yeW+x06mc9cmpqOIC+1eEtDTI0Ws5fF4fgDNADiG3S4C7NC5Mfc9ejJt2uoMTZInJzfATWP6cfXg3gQCWhJwAq0A2J/H45kPmgGQOjrtl4fQuEmm6Ri28d2CzaYjuNqAiiWB1loSEKk3j8czB34qACuBcnNxRJypaHsJ9985k1E3Tuat1xeZjuNqHTs35uEnTuOEkw8yHUXE0bxez2yoKACRaLAYWG00kVTDZmsAwpLFWxk2eBIzpib+6Lz4z/m89tJCw6ncLSfHz02jj+Hq6/poScCmtAJgbz6ft+zZ187Y5zZA0DKASI1NGL+MUTd+zto12/f5+b9eXMiLz3xrKFX6GHBeBy0JiNSB1+vdc9DauwAsS30UqSm7XQSYrnbuLOPR++fw5F/mUlJS+arZW699zzNPfpPiZOlHSwIitef1evZcsKQZAJEaWrF8G8Ovm8Tkz1ZW+9n33/6Bf/z1axW3JNOSgP3oLgB783o9e5b7NQMgUgMTP1nJiOsnsWrlthp/56P/LOXxR78irhaQdIklgVN0W6pINbxez56rlTUD4BAaQ8wo3lXG449+xV8enMOuXWW1/v6nE5bz2ANfUl6u/wOTrWPnRjz0+GmcqCUBkSp5vd45e36918+XpT6KiH2tWVXIyPDnfPLR8nptZ/JnK3l43CzKSnWnbbLl5PgZPvoYrrleSwLGaA3A1jIyfFN2/3rvPyErgB2pjyM1oWnk1Jo6eRXDBk9i2dICS7Y3bcpqHrh7ZpUXDoq1+p/bgfsjWhIQ2ZvP543n5mbN2/3PewpAJBosB+YbSSViE6Wl5UQfn8dD98xix45SS7c9c/pa7r19BsV1WEqQ2uvQqREPP3EawVO0JJBKOv+3L7/fW1gx1gP7zgAAzEMkTa1fV8TNQ6bwwXtLkraPr2av5+7bZrBzp0pAKmRn+xl2yzFce0MfAhk+03FEjPJ6vfvcwqQCIELi7HzYoIks/n5L0vf1zdwN3Dl6muUzDFK1s87pwP2PnUybg/JMRxExxufz7jPLv38B0NNLbEqXACRHWVmc55+ez313zKCwsCRl+13wv03cPmoq21O4z3TXoVMjHn78VIKnHmw6iqvpGkD78ng80/b+Z80ASNratHEnY26K8c6/FxkpWN8v3MJtI2NsKyhO/c7TVHa2n2E3H821N/TVkoCkHY/H88He/7xPAYhEgxuBNSlNJGLA3DnrGTpoIgvnbzKaY8nirdw6IsbW/F1Gc6Sbs85pzwMRLQlI+vB6veXP//vM7/f5WSWf0yyAHWkNwBLxeJxXX1jAnaOnU7DVHoPu8qUFjB4eY/OmnaajpJX2HbUkkBRaA7Alv9+bv//PKisAug5AXCl/yy7GjprG6y9/Z7vnKqxauY3Rw6awYb0exZFKu5cEBoa1JCDu5vV6V/zsZ5V8TjMANhTX3bX1Mn/eRoYOmsg3czeYjlKltWu2M3rYFNbt94phSb4zz04sCbQ9WEsC4k4+n2f2/j9TAXAIm52wOkY8Dm/+63tuGzmVLZvtP8W+YX0Ro4dPYfWPhaajpJ32HRvx8N9O5aTTtCRQH1oBsCefz/vR/j+rrAAsAHSDsjjetoJi7rltOi89+62jXsazaeNORg+PsWJ5zd88KNbIyvYzdFRiSSBD7xIQl/B4PGRlZYzf/+c/+y88Eg0WAwtTkkpqTlMAtfL9gs0MGzyROTPXmY5SJ/lbdnLrTVNYtmSr6Shp6cyz23POrzqajiFiiUDAt/0fL572synQqiru9CTnEUma99/+gVuGxxx/QV3B1mJuvSnG4u9/dvGupIBHc9l1ot81+/H7fT9U9vOqCkAsiVmkDnT+X72i7SXcf+dMnnnyG9e8erewsISxI2Ms/Haz6Sgi4lA+n3dyZT+vqgBMTWIWEcstWbyVYYMnMWPqatNRLFdUVModt0xj/ryNpqOIiAN5vZ7XK/15ZT+MRIM/AGuTmkhqR1MAVZowfimjbvyctS6+fW7njlLuHDOdr79cbzqKyIFp6cRWfD5v+XOvnzmlsn93oMtcNQtgIxr/f27njlIevW82T/7la0pK3DHlfyDFu8q457YZzJmpbi4iNeP3+6q8EvpABUDXAYhtrVi+jeHXf87kiT+ajpJSJSXl3HvHTGZM1Ss7xJ40AWAvPp/nq6r+nWYAHMJuj641aeJ/VzDi+kmsWpme98mXlZbz0D0ziU1Kr/IjIrXn8Xg+rOrf+Q/wva+AIiDH8kQidVC8q4ynHp/HpxOWm45iXFlZnEfvn0NJSTmnndHOdBwRsamSkrJXq/p3Vc4ARKLBUuCLpCSSWkv3WbXVPxYyMvy5Bv+9lJfH+evDX/LxB8tMRxHZQ0sA9hEI+Apee//cKt95Xt2zLnUdgE2k8wrA1MmrGH7dJJYtLTAdxXbicXjyL3MZ/+4S01FExGb8ft8B3+57oCUA0HUAYlBpaTnP/ON/fPieBrcDicfh6SfmUVJcxq9+28V0HBGxCb/f9/4B/301358OlFP9TIEkWbpNAKxfV8SDd8/UY3Br4fmn51NSUs5v/6+b6SiS1rQGYAcej4eMDP+zB/rMAQf2SDRYAPzsHcIiyTRz+lqGDpqowb8OXnl+AS8/t8B0DBExLBDwFTz9yukHfHJYdTMAAB8B/ayJJHWWBhcBlJXFeemZ+bzzxmLTURztjVe/o6S4jMuvPtx0FBExJBDwVXvyXpOp/SrvIZTUcfv4v2njDsbcFNPgb5F331zMU4/Pc/1/N2I/ugvAHrxe7yvVfaYmMwAzgc1A03onEqnEV7PX89gDsynYWmw6iqt8+N4SSkvKGBjuq1fbiqQRr9cTj8fjL1T7ueo+EIkGy4GPLUklspd4PM6rLyzgrjHTNfgnyX8/XM5fHvyS8nJNBYiki0DAv/rFN/uXVPe5mswAQOI6gN/XL5LIT/K37OKR+2bzzdwNpqO43qRPV1JSUs6QUUfj82kmQJJLk03m+XzeiTX5XE0LwAQSd6Lp/1pD3LSWO3/eRh4aN5v8LTtNR0kbUyevorS0nOGjj8Hv1129Ii73VE0+VKMjQSQaXAvMrVccSXvxOLzx6vfcNnKqBn8Dvpi2hvvu+IKS4jLTUUQkSXw+766X3x4wpSafrc2pwEd1zCMWcPoEwLaCYu6+dTovP/et1qMNmjNzHffcNoNdu1QCJFk0UWxSRoa/xifrKgAOkb95F3NmrjMdo06+X7CZoYMm8uUsZ+Z3m6+/2sBdo6exc0ep6SgiYjG/3/diTT9bmwIwDdDbWAwp2l7GP59YyMjwZGZ/sdZ0nBp7760fuGV4jI0bdpiOInuZ/80mbr95GkXbq71QWKRWdBGgOV6vN56Z6Y/W+PM1/WDF64E/qVMqsUQg4GPb1jj33TGTm66fZOsiULS9hPvv/IJn//ENZaXlpuNIJb5bsJnbRk6lcJtuwRRxg8xM//Loy6fX+A90bS8Hfq+WnxeLBQI+WrZsxNIfCrjnthkMv85+RWDJ4nyGDp7EjKlrTEeRavywKJ9bb4pRsHWX6SgiUk+BgO+d2ny+tgXgHUCnC4btLgE+n5cfFuXvKQKzZpgvAhPGL2XUjZNZt2a76ShSQ8uWFjBmeIwtm3VnhtSflgDM8Hg8BAL++2r1nXgtbzAPh2LvAefV6kuSFCUlZaxfv5Wysp+m2Dt1aczFf+zOMce1TmmWnTtKeSIylykTf0zpfsU6bQ7K464HTqRZ82zTUcTBXntpIf96caHpGGknMzOw5l/vndO2Nt+pyxNBXqvDdyQJ9p4J2O2HRfmMG5vaGYEVywoYfv3nGvwdbs2qQkYPm8L6dUWmo4hILfn9vndr+526FID3AM0V2kRlJQB+KgLDBk9i5vTkFYHPPl7BiBs+Z9XKbUnbh6TOurVFjB42hTWrtYQjdaMlADM8Hu6t9XdquwQAEA7F3gIurPUXJWkqWw7YW8fOiaWBfsdbszRQvKuMpx6fx6cTlluyPbGXJk2zuPP+Ezm4XQPTUcRhXn95Ia++oCWAVMrI8G947f1zW9b2e3V9KLiWAWymqpmA3ZYszufe262ZEVj9YyEjwp9r8HexLZt3MuamGMuX6tEfInbn99fu6v/d6loA/gNoodBmqisBUP8iEPt8FcOvm6SBIQ1szd/FmJtiLFmcbzqKOIrWAFLJ4/Hg9Xpur8t361QAItHgdmB8Xb4ryVWTEgB7F4GJzJxe/f36paXlPPW3r3l43Cx26BGyaaNwWzG3jZzK9ws2m44iIpXIyPD/+OKb/VfX5bv1eS+olgFsqqYlAGDJ4q3ce/sXBywC69YWcfOQyXz4/lKro4oDbC8s4fabp/Ht/zaZjiIi+8nI8L1c1+/WpwB8ABTW4/uSRLUpAVB1EZg5fQ3DBk9k8feaBk5nO3aUcuct05j31QbTUcTmdBdA6ni9nnhGRmBcXb9fp7sAdguHYq8Al9R5A5J01d0dUJWOnRvRsXNjPvlIF/rJTwIZPkbd1o8jj2llOorY1L9f+Y5Xnl9gOkZayM7OWPTKO2d3rev36zMDAPBCPb8vSVbbmYDdlizeqsFffqakuIx7b/+iRteNiEhyZWT4/16f79e3AHwMrKjnNiTJ6loCRCpTWlrOA3fNZNrkVaajiA1pCSA1/H5faaNGOZH6bKNeI0IkGiwH/lmfbUhqqASIlcrK4jx872w+/3Sl6SgiaSkjwz+lYgyuMytGg2eAMgu2I0mmEiBWKi+PE3nwSy0VyX40BZAKXq/n1npvo74biESDPwIf1nc7khoqAWKleDzOE499pVtERVIoEPBtefHN/lPrux2rRoGoRduRFFAJECvF4/DU377mvTcXm44ikhYCAf/zVmzHqhFgPFCnJxGJGSoBYrVnn/ofb/7re9MxxDBdBJhcXq+nPB6Pj7ZkW1ZsJBINlgHPWrEtSR2VALHaS89+qzfBiSRRZmbgi1feOduSd/FYeeT/J1D3pwqJESoBYrXXX17IC/+cbzqGiCsFAr6RVm3LsqN+JBpcCnxi1fYkdVQCxGpvv76Ip//+jekYYoCWAJInMzOw4fl/nzXFqu1ZfcR/yuLtSYqoBIjVxr/zA0/+ZS71eNq4iOwlM9Nv6QX3Vh/t3wXWW7xNSRGVALHahPHL+NsjX1Kfd46ICPj9vrLc3Kw7rNympUf6SDRYAjxu5TYltVQCxGqffbyCR++fQ1mZSkBa0BpAUmRmBj554rlTiq3cZjKO8k8AO5KwXUkRlQCx2pSJP/LQPbMoK63Xk0tF0pLH48Hv915v9XYtP8JHosGNgCUPKRBzVALEajOmrua+O2dSUqISIFIbmZn+hc+9fuYiq7ebrKP7I4D+lDucSoBYbfYXaxk3dgbFu/T6ELfSAoD1fD7fqGRsNylH9kg0uAh4LxnbltRSCRCrzZ2znrvGTGfnTpUAkepkZPjXv/RW/3eTse1kHtUfTuK2JYVUAsRq/5u3kTtumUZRUanpKCK2lpHhvydZ207aET0SDcaAL5K1fUktlQCx2sL5mxg7ciqFhSWmo4iFdBOAdQIBX+GLb/b/S7K2n+yj+UNJ3r6kkEqAWG3x91u4bUSMgq2W3t0k4gqZmYG/J3P7yT6Svw3oReEuohIgVlv6w1ZuvWkK+Vt2mY4iVtAUgCX8fl9JTk7mLcncR1KP4hVvCXw0mfuQ1FMJEKutWL6NMcOnsGnjTtNRRGwhKyvw73+8eFpSL5JJxRH8GWBLCvYjKaQSIFZb9WMho4dPYcN6S950KuJYPp+3PDMzcF2y95P0o3ckGtwOPJbs/UjqqQSI1dat2c7oYVNYu2a76ShSR1oBqL+srIz/Pv3K6Uk/cU7VkfsxYHOK9iUppBIgVtuwfgdjhk9h1Y+FpqOIpJzX64kHAr4rUrKvVOwkEg0WAA+kYl+SeioBYrVNG3cyZvgUViwrMB1FJKUyMwOfPfvaGWtSsa9UHrH/hl4V7FoqAWK1/C27uHVEjCWLt5qOIrWgFYC683o9cZ/Pe2nK9peqHVVcC3BfqvYnqacSIFYr2FrM2JExFn2n64jF/bKyMj548c3+q1O1v1Qfqf8OpOx/nKSeSoBYrbCwhNtHTWXh/E2mo4gkjdfrLfd6PZeldJ+p3FkkGtwJJO25xmIPKgFitaKiUu64ZRrffL3RdBSpjm4DqJPs7MCbL77ZP6Ut18QR+mlghYH9SgqpBIjVdu4s4+5bpzN3ji4lEnfx+bylfr/vylTvN+VH50g0WAzcler9SuqpBIjVineVMW7sDGbNWGs6iohlsrMzXnru9TNTft+rqSPzc8APhvYtKaQSIFYrKSnn/rtmMj2my4nsSCsAteP3+0oCAd/47CZQAAAWcklEQVS1JvZt5KgciQZLgTtM7FtSTyVArFZWWs7D42YxeeKPpqOI1Et2duCpZ/51hpE3YZk8Ir8MfG1w/5JCKgFitbKyOI/dP4fPPtYlRXaxa1cZK5dvMx3DMQIB347MzEDY1P498Xjc1L4Jh2KnAhONBZCUKykpY/36rZSVlZuOIi7h8cA11/fhrHM6mI6StlYs38bH45cy6dOVbC8sMR3HMXJzs0a99Fb/+03t32gBAAiHYm8CFxkNISmlEiDJ8Odre3HuhZ1Mx0gbJSXlTJ+yio/GL2PB//SMhtrKyPCvf+39c1uZzOA3ufMKw4FzgEzTQSQ1di8HqASIlf755DeUlJRz4e+6mI7iaqt/LOTjD5bx2X9XsK2g2HQcx8rI8P/RdAbjMwAA4VBsHHCz6RySWpoJkGS45NLu/O4P3U3HcJWy0nJmTFvDhPHL+N/XG7DBsOFo2dkZs1555+x+pnPYYQYAYBxwBdDadBBJHc0ESDK8+sJCiovL+eMVh5mO4njr1hYlzvY/Xk7+FiMXqruO1+st9/t9vzKdA2wyAwAQDsUuB541nUNSTzMBkgznX9SJK67pZTqG45SXx5k1Yy0Txi9l7pz1Otu3WG5u5rMvvTUg5U/9q4xdZgAAngcGA0ebDiKppZkASYb33vqBkpJyQoP76OE0NbBxww7+++FyPvloGZs37TQdx5UCAV9RPE7IdI7dbDMDABAOxU4EYqZziBmaCZBkOP2sQxk8pC8etYCficfjfDlrPRPGL2XOzHWUl9tnPHCjBg2yB77wxllPms6xm60KAEA4FHsV+L3pHGKGSoAkwymnH8INw4/E61UJANiyeSefTljOxx8sZ8P6ItNx0kJWVmDZq+/a62EVdloC2G0kcD6QYzqIpJ6WAyQZPv90JSUl5QwdeRQ+f3o+jTIeh3lfrWfC+GXMnL6GsjJ7nfy5mcfjITMz8DvTOfZnuxkAgHAoNhx40HQOMUczAZIM/Y5vzU1j+uFPoxJQsHUXn05YwccfLGPtmu2m46SlnJzMD15+e8A5pnPsz64FwAd8ARxlOouYU1paxrp1KgFirSOObsXNY/sRyPCZjpJU8+dt5KPxy5gRW01pqf4MmeL3+3ZkZvqbvvTWANtdWWnLAgAQDsX6ArOw5zKFpIhKgCRDr74tuOWO48jKclcJKCwsYeJ/VzBh/DJWrdRLeeygQYOsP77wRv+XTeeojG0LAEA4FLuPxDUBksZUAiQZDju8GWPuPp7sbOefY3y3YDMT/rOU2OTVlBSXmY4jFbKzM2a+8s7Zx5rOURW7F4AsYB6gh3unOZUASYau3Ztw2z0nkJsXMB2l1oqKSvn805VMGL+U5UsLTMeR/fh83pKcnMzWL7xx1mbTWapi6wIAe14Z/Bmg+3fSnEqAJEPHzo25/d4TaNAww3SUGln8fT4ff7CUKRN/ZOdOne3bVV5e1rAX3+z/iOkcB2L7AgAQDsWiwFWmc4h5KgGSDId2aMgd951Io8b2fCnpzp1lTJm4kgnjl/HDonzTcaQaWVkZ37/67tndTOeojlMWv24i8crgNqaDiFl+v49WrRqpBIilli8tYPTwGHc9cCJNmmaZjrPHsqUFTPjPUiZ/tpKiolLTcaQGfD5veWam/0zTOWrCETMAAOFQ7CLgTdM5xB40EyDJ0KZtLnc+EKR5i2xjGYp3lTF18io+Gr+M7xfYdvlYqpCXl/Xgi2/2H2E6R004pgAAhEOxt4ALTecQe1AJkGRo2SqHOx8I0qp1ah9G+uOKbUz4YBmT/ruCwsKSlO5brJGZGVj9r/fOOch0jppyyhLAboOAk4DmpoOIeVoOkGRYv66I0cOmcNcDJ9LmoLyk7qu0tJzpU1YzYfxS5n+zKan7kuTyej3xzMzAANM5asNRMwAA4VDsfOBd0znEPjQTIMnQuEkWdz5wIoe0a2D5ttes3s7HHyzjs4+XU7C12PLtS+rl5WXd++Kb/W8xnaM2HFcAAMKh2JPANaZziH2oBEgyNGyUyR33nUD7jo3qva2y0nK+mL6Wj8cvZd7cDTjw0CtVyMrKWPDqu2cfZjpHbTltCWC3ocCpgO1vs5DU0HKAJEPB1l3cOmIqY8edQOeujeu0jQ3ri/j4g2V88tEK8rfY7nHwUk9+v684M9N/sukcdeHIGQCAcCh2JDADcN4jvCRpNBMgyZCTG+C2e46nW4+mNfp8eXmc2V+sY8L4pXw1ez1OPc7KgXk8kJeX/ccX3jjLls/6r45jCwBAOBQbAdxvOofYi0qAJENWtp8xdx1Pz17NqvzMpo07+eSjZfz3w+Vs2rgjhenEhJyczA9ffnvA2aZz1JXTC4AX+AQ4zXQWsReVAEmGzEwfN99xHH2OaLHnZ/F4nLlz1vPRf5Yx+4u1lJc795gqNZeR4c/Pzs5o8dzrZzr2CU2OLgAA4VDsYBIvDGpiOovYi0qAJEMgw8fIW/vRqUtjPp2wnI8/WMb6dUWmY0kKeb2eeF5e1nHP//usmaaz1IfjCwBAOBT7LfC66RxiPyoBkgw+vxdIXNkv6ScvL+vRF9/sP9R0jvpyRQEACIdizwKXm84h9qMSICJWycoKLH713XNc8Yp6r+kAFroeWGA6hNjP7lsEfT43/ecuIqkWCPh2ZWdnnGA6h1Vcc0SMRIOFJN4TUGA6i9iPSoCI1IfX64nn5GSe98y/zthgOotVXHU0jESD3wGXAe5Y1xBLqQSISF3l5maOe+71M/9rOoeVXHMNwN7Codg44GbTOcSedE2AiNRGTk7m1JffHhA0ncNqbj0VGgN8bDqE2JNmAkSkpjIy/JsCAd+ppnMkgyuPgJFosBz4P2C56SxiTyoBIlIdn89bmpWVcbyTH/ZzIK49+kWiwU3ARYDeviGVUgkQkap4PB5ycjIvf/7fZy4ynSVZXH3ki0SDXwIDTecQ+1IJEJHK5ORkPOvUl/zUlCsvAtxfOBR7AhUBOQBdGCgiu2VlZXz76rtn9zSdI9nS5bTnRmC66RBiX5oJEBGAjAz/1qysQD/TOVIhLY52kWiwmMRDgpYZjiI2phIgkt78fl9Jbm5mv2dfO2O76SypkDZHukg0uA44G8g3nUXsSyVAJD15vZ54bm7muc/864zvTWdJlbQ6ykWiwQUk7gwoMZ1F7EslQCS9eDwe8vL+v717j7GjquMA/p1z5szMnbsLFAhWROQRgsQIKAQD3EiR9t67VLCAgg/e7KCoyeCDRyAEJCIgolwiityW7pPS3e5uQAWhUcCMBHwhGCJqFBRSeVuwlFLaXf+4l9BS2t3t7r2/MzPfTzK5/fObNJnz3XPmnBOc3zNUztX5Mbl7w9XqpfsAdEvnILuxBBDlR7Ho39w7XLlROke75WIXwLuJo+QKAJcLxyDLcXcAUbaFof/A4FjXPOkcEnJbAAAgjpI+AKdJ5yC7sQQQZVMQmCeX3bFwH+kcUvI+v9kN4H7pEGQ3LgcQZY8x7iue5x4knUNSrt9om2wP/It0FrIbSwBRdriuXh8E7iG9w5X/SWeRlPu3Wa1eWg1gIYDnpbOQ3VgCiNJPa7WxWPSP7ltR/Yd0Fml8kwGo1UtPonFGwKvSWchuLAFE6aWUmujsLJzcM1R+UDqLDfgWa6rVS39AYyZgrXQWshtLAFH6KOVMdHYG3UuXLxiVzmILvsE2UauXEgCLALwhnYXsxhJAlB7Ng34u6Bkq3yqdxSZ8e71DrV5aCeAUABuks5DdWAKI0qGjw7+qd7hyvXQO2+T6HIBtiaPkcwAGwJJEk+A5AUT2KhaDHw2MVr8incNGLADbEEdJN4BbADjSWchuLAFE9glDf9ngWNfnpXPYigVgEnGUnA/gB9I5yH4sAUT2CEPv7sGxY4+VzmEzTm9PolYv3QDgMukcZD9+E0BkhzD0f8nBf3KcAZiiOEquBXChdA6yH2cCiOQUi8GvB0arR0nnSAP+qTJFtXrpIgDflc5B9uNMAJGMjo7gfg7+U8c31DQ0SwCXA2hSLAFE7VUsBnf3j1SPls6RJnw7TVOtXvo2gK8B4NoJbRNLAFF7FIv+6MBolWv+08Q303Zofhh4LgAu8tI2sQQQtVax6A8OjHadJJ0jjfhW2k61emkxgFPBEwNpEiwBRK0Rhv7igdGuU6VzpBXfSDNQq5eWAfg0eHcATYIlgGh2haF/4+BYVySdI834NpqhWr10B4DjwFsEaRIsAUQz17zY57LBsa5YOkva8RyAWRJHSQnAzwHsIJ2F7MZzAoi2j1LOREdHcF7vcOUn0lmygAVgFsVRcgiAuwDsJp2F7MYSQDQ9WquNnZ2Fk5cuXzAqnSUrWABmWRwle6MxE3CAdBayG0sA0dQYo9cVi8G8pcsXPCydJUtYAFogjpKdAIwBmCcchSzHEkC0bZ7n/jcMvYOWLi8/LZ0la/g1UgvU6qXVACoA+qWzkN34YSDR1vm+eapQ8Pbk4N8anAFosThKrgBwuXAMshxnAog2FwTeQ+vWrT9i7J5FHKRahAWgDeIoOR3AYgBGOgvZiyWAqCEM/YHBsa7TpHNkHecd26BWL/WhsSSwWjoL2YvLAZR3zW1+F3Dwbw/OALRRHCUHoLFNcC/hKGQxzgRQHrmufrNY9I/vGSr/QjpLXrAAtFkcJe9BY4fA4dJZyF4sAZQnvm9WF4v+YUuWzf+7dJY84Vxjm9XqpefQ2B74Y+EoZDEuB1BehKH3aGdnsDsH//bjDICgOErORKMIBMJRyFKcCaCschwgDIMlA6PVbuksecUCICyOko8CGAXwAeksZCeWAMoapdTGMPSi/pHqUuksecYCYIE4SnYBcBuAsnQWshNLAGWFMfoVz3M/PjDa9Zh0lrzjAqMFavXSSwC6AFwNgI2MtsBvAigLCgXvt1rr93DwtwNnACwTR8kiAL3gtcL0LjgTQGmklDMRhv41/SPVS6Sz0NtYACwUR8n+aGwV5I2CtAWWAEoTz3NfD0Nv4dLl5fuks9DmOJ9ooVq99FcAhwHoEY5CFuJyAKVFGPqP77hj+D4O/nbiDIDl4ij5DICfAJgjnYXswpkAspVSzkSxGFzXt6JykXQW2joWgBSIo2QPAH0AjpbOQnZhCSDbGKNfDQKv0rei8pB0Fto2ziGmQK1eegbAfAAXAXhTOA5ZhMsBZJNCwfuV1no3Dv7pwBmAlGkeHHQbgP2ls5A9OBNAklxXrw8Cc27/SLVXOgtNHQtACsVREgL4PoAvSmche7AEkIRCwXvc89x5PUPlF6Wz0PSwAKRYHCXHA1gCYFfpLGQHlgBqF63VeLHof6t3uHKldBbaPiwAKRdHyVwAPwJwgnQWsgNLALVaEJinw9Cfv2TZ/L9JZ6HtxwKQEXGUnAjghwDeK52F5LEEUCso5YyHoX99/0j1QuksNHMsABkSR8lOAK4DcA4ARzgOCWMJoNnk++6/jHHL/SNV/tWfESwAGRRHyTwAtwDYTzgKCWMJoJnSWm0IAnP5wGjXd6Sz0OxiAcioOEoCAFcA+AYAVzYNSWIJoO1VKHgPa60W9o9UX5LOQrOPBSDj4ig5GMBiAIdIZyE5LAE0HZ7nrgkCc3bvcGVYOgu1Do8Py7havfQnAB8DcAGAtcJxSAhPDKSpUMqZ6OgIVuy0U3EOB//s4wxAjsRRsieAawF8VjoLyeBMAG1NEHhPFQrmxFtvX/CIdBZqDxaAHIqj5EgANwA4VDoLtR9LAG3KdfXrQWAu6B+p3iSdhdqLBSCn4ihxAJwB4GoAc4XjUJuxBJBSarxQMP0bNox3337nwg3Seaj9WAByLo6SDgCXAPg6AF84DrURS0A+OY6DQsF70HXVSb3DlWel85AcFgACAMRRsjeA7wE4UToLtQ9LQL4EgXna983neobKv5HOQvJYAGgzzUOEbgBwkHAUahOWgOzzPPe1IPC+2Ttcvlk6C9mDBYC2EEeJAvAFAJcD2Fc4DrUBS0A2ua56s1Dwb54zp3h+rV7ify5thgWAtiqOEhfAmQAuA7CnbBpqNZaA7NBabfR9M6SU090/UuX5H/SuWABoUnGUeAC6AVwKYHfhONRCLAHpprXaGARmVCmnu29F9VXpPGQ3FgCasub9AucBuBjAbsJxqEVYAtJHazUeBOZO19Vn9QyVV0vnoXRgAaBpi6OkCOCrAC4EsLNwHGoBloB0aA78dxnjnrV0+YIXpfNQurAA0HaLo2QHAOc3nznCcWiWsQTYqzHweyt93z1jybL5z0nnoXRiAaAZa84InI1GEdhHOA7NIpYAu2itNjSn+r/UM1R+QToPpRsLAM2aOEo0gBMAfBONGwgpA1gC5BmjX/N9c4vW6uKeofJ66TyUDSwA1BJxlJQAfAPA8eC106nHEiDD981/PM+9qm9FhRf10KxjAaCWiqNkPzTuGTgDQEE4Ds0AS0B7OI6DIDCPG6O/1jtcWSmdh7KLBYDaIo6SXQF8GcBXwC2EqcUS0DpKqfEgMPcbo8/rGSr/TToPZR8LALVVHCUGwKcAnAtgPgBHNhFNF0vA7PI892XPc/sAXNY/Ul0jnYfygwWAxDRvIDwHwFngCYOpwhIwM42jet2HXFdf2jtceUA6D+UTCwCJa+4eWAggAtAFQMsmoqlgCZg+3zfPGaMXa62u5Nf8JI0FgKwSR8keaJwpcA54AZH1WAImp7Xa4PvmAdfVF/cOl38vnYfoLSwAZKXmlcRlAKcDOA5Ah2wi2hqWgC0p5Uz4vnnSdXXd993r6oPHbJTORPROLABkvThKCgCOBXAKGksFoWwieieWgMb2Pd93/22Me5sx+poly+a/Ip2JaFtYAChVmscOfxKNMtAFIJBNRG/JYwlwHAee564yRg9rra7i8byUJiwAlFpxlHSicdLgKQAqADzZRJSXEuB57vPGuGNaO1f2DldWSech2h4sAJQJcZTsCGARGoVgPoAdZBPlVxZLgFLOhOe5z7iu/rnjONf2rag8JZ2JaKZYAChz4ihxARwBoNp8DgYPHGqrLJQAY/RaY9xHXFcNeJ57a33wGG7bo0xhAaDMi6NkLhpLBFU0dhbsLJsoH9JWApRyJoxxn3Fdfa/W6sbe4fJj0pmIWokFgHKlub3wMDQ+IKwCOBS8rbBlbC4BjuPAGP2q6+pHlHKWj49PLBkc6+Jf+ZQbLACUa3GU7ADgcABHAigB+Bi4zXBW2VICGl/s65ddVz+qtf6Z77t9twx84kXRUESCWACINtH8fuAjeLsQHAlgrmioDJAoAUo548a4z2mtfqe1GlXKWd4zVF7XtgBElmMBIJpEHCX74u1CcDiADwJwRUOlUCtLgFIOjNGvaa3/qZTzIICxNWvWrRy7Z5F9aw9ElmABIJqmOEo8AAcAOLD5fLj5+17JXGkwGyVAKTVujHpZa/0PrdVvtVb3hqG38qalR70xi1GJMo8FgGiWxFGyKzYvBAcC+BCAgmQu20y1BGitJrRWa7RWqxzH+avjOA87Dn7aP1L9c5uiEmUaCwBRCzV3HewJYC8Ae7/L7+7I4S6Et0rAxMTEuNZ6jdbOC1qrfyulntDa+aPnmQeDwDxRq5c4hU/UIiwARIKaywnvx5blYC6AXTZ50jaL8DqAlzZ5ngXwFIAn3/pdu/aNVfXBY16XCkiUdywARCnQvBFxl0meIgAfjTsR/Cn+GwDeALC++TuVf7+GzQf3LZ5avcSBnchy/wcEwM28EGUY/AAAAABJRU5ErkJggg==;" vertex="1" parent="1">
          <mxGeometry x="480" y="324" width="32" height="32" as="geometry" />
        </mxCell>
        <mxCell id="HkrrA9YoYlj2VY17bmsr-12" value="" style="shape=image;verticalLabelPosition=bottom;labelBackgroundColor=default;verticalAlign=top;aspect=fixed;imageAspect=0;image=data:image/png,iVBORw0KGgoAAAANSUhEUgAAAgAAAAIACAYAAAD0eNT6AAAABHNCSVQICAgIfAhkiAAAAAlwSFlzAAAOxAAADsQBlSsOGwAAABl0RVh0U29mdHdhcmUAd3d3Lmlua3NjYXBlLm9yZ5vuPBoAACAASURBVHic7N15fFxV/f/x1+dO0qRAy1qgSyZNoaCsfhVUQERExAUVv2JVoEkKKG5fFH5+VVzr16/7jmvZkkkKahVcUED0yyK4YVHZRCg0yUxakH3vksz9/P6YFlpIMndm7sydSd7Px6MP2uTMOR+SmbmfOfeczwERERERERERERERERERERERERERERERERERERERERERERERERERERERERERERERERERERERERERERERERERERERERERERERERERERERERERERERERERERERERERERERERERERERERERERERERERERERERERERERERERERERERERERERERERERERERERERERERERERERERERERERERERERERERERERERERERERERERERERERERERERERERERERERERERERERERERERERERERERERERERERERERERERERERERERERERERERERERERERERERERERERERERERERERERERERERERERERERERERERERERERERERERERERERERERERERERERERERERERERERERqUeWdACSsPNyOxGEOwDQ5C2Ets1W308FjzIShrTmn8RTG5mTfpwjbTSJUEVEJD5KACarnoFWmoMFjHoHQTAfZz7YfPDdgZ3BdwbbBQhK79zvA7t/03/vAbsf9yECuwPjTubNG1SSICJS35QATAbnZ+eQ4iAC9sc5AOwA8IVAKqGINoIPgP0L7O8Yf6UpdQMnzHkgoXhERORZlAA0mqUesMea/QnDwzA/FLfDgPlJhxWJsZqQGzD/M87v6G6/LemQRESmKiUAjSAzvDOWfyUEr8L9WGBO0iHFw++D4Fo8/B1Nqcs4ad5w0hGJiEwVSgDqVd/aNIy+Fed44MWUda++oTjwF5wVhKmfcvLcXNIBiYhMZkoA6kn/4Gzc3oazCOylTN3fj4P9CcIVjNpPOCW9NumAREQmm6l6gakfSz2gI/tKCN4FfhzQnHRIdSYErsL8HNrSP9PuAhGReCgBSErPwO4EwbvBTgHmJR1OY7Ah8PMZ5XzNCoiIVEYJQK315BaS4v24vxOYnnQ4DWoE7Ed4+CXtJBARKY8SgFrpzb4c42PAq9HPPS4OXArBF+ma96ekgxERaSS6EFVbZvgQCP8HeFXSoUxy1xLwSRanr0s6kClvqQcstTDpMERkYkoAqqV/8IWEwf8Cr006lCnFuRT8LN0aiMnZq1rYfno7FnYQsgCzdtx3w2wXCDeXk96ZwnvJdmy9iNWBRwDHeAQnBB4E/o2TA+7FPIfbPXg+y/z5d2mRp0jtKAGIW//gbPLB5zE6mfx79+tVHsiQCj6t4kIl6FubJhx9AcaBmB+I2wuADmr3PN4I/k/gVjy4BeMW4Ga62tbUaHyRKUUJQFx6BloJUmcCZ1H4JCTJW4fxOVof/wqL9t2YdDB1xd3oz+1LyOEYLwNeTv3uRrkbuBb3a2nOX8uJC4aSDkhkMlACEIf+oaNx+wHOgqRDkTHdjtl76Gy7NulAEnX+/TNoXn807q8HXgfsnnRIZRrE+T8If8ZjI7/j9IUbkg5IpBEpAahEZnhnCL8GdCUdihTlQB/55v/m5Nn3Jx1MzSy7e3umN78Z5x3AK4BpCUcUt8dwLiPwS2idfjmLdn0i6YBEGoUSgHJlsm8DPxts16RDkZI8gNlpdLZdknQgVbPitmk8NfMNmJ9A4ZN+a9Ih1cg64Je4n0tX+irMPOmAROqZEoBSLV81k7D1K7i/K+lQpBL2E8LRd7Gk45GkI4nN+dk5NPlisPdTv/fza2UY7ELywXd1sJTI2JQAlKI/ezih9YO3Jx2KxGIA8046269POpCK9ORegfmZGK8DUkmHU2dGwH4BfIWuthuSDkaknigBiGKFp3gq+ynMPo7eYCebPNhnGZj32YYqXrPUAzqG3wT+EeAlSYfTGOz/sPzn6Zx/VdKRiNQDJQDFFBb6XQgck3QoUkVmvyY/elLd3xJY6gHzc2/D7FPgz0s6nAb1Z8w/z+L0r7ROQKYyJQAT6Rl+AUF4CYViKDL53QX2Frrabk46kDFlhl6F25cwXph0KJPESgLOVPlomaqUAIwnkzsJ/FymzgpqKXgS41Q60z9KOpCnFcpKf4NCsR6JlwM/wcKP0jl/IOlgRGpJCcCzuRv9w5/EfSn6+UxVDnyCrvTnE43ivNxONPnnMN6J1p5U2wbcv0XTxs9x0sLHkg5GpBZ0gdvSitumsX7GuTidSYcidWEZ09vexyLL13TUQhJ6Ku5foHDQjtTOGszfQ2f7pUkHIlJtSgA2W75qJvlpPwc7MulQpI44lxJMeweduz9Zk/H6BjtwO1/Pw8T9kHzzB6ZU1UiZcpQAwOaV/lcAByUditSlGxix13Jq20NVG8HdyOTejfFldJhUvbgf5wN0p3+YdCAi1aAEoGdgd1KpK3H2TzoUqWf2d7Cj6Zr3YOxd9wzsjqX6MI6OvW+Jgf2E9RvfyWl7PJp0JCJxmtoJwAVr2kjlfwfslXQo0gj8HzQ3H80Jcx6Ircve7KuBPozdYutTquFugnARi+f/LelAROIydROA/sHZhMG1wMKkQ5GGcjP55ldVfG/4am8iO/xZ8A8DQTyhSZVtAPsQXW3fSToQkThMzQTgorW7MDJ6DbBv0qFIQ7qVETui7DUBmeGdwX8MflTMcUlN2E8ZbT2ZU2Y9nnQkIpWYegnAsru3p7X5d2jBn1TmL9i0o0reHdC/Zm/C0V+A7V2luKQWjFug6Vg652STDkWkXFNr6nFFbjqtzb9GF3+p3EvwjRdxtTdFfkTf0BsIR/+qi/8k4OyPj/6J3qEXJR2KSLmmTgLgbqzz84DDkg5FJo03kh2+APfiM2l92W7cLgGbUYO4pDbmYHYt/dnjkg5EpBxTJwHoy30ZOCHpMGSy8cVksksnbJIZWorTA0SfLZBGsS0hF9M7dHrSgYiUamqsAejNvgfje0mHIZOWgy+iq/2nW311qQd05L4HnJZMWFJT5mfR2f7FpMMQiWryJwC9Q4dhdjXQnHQoMqk9QWiHsqTtFqBw8Z+fOx+jO9mwpLbsS3S1fTTpKESimNwJQGGv/43A7KRDkSlhkOamg7lz9kN05C4AupIOSBLg/mW62z+SdBgixUzeBODsVS1s33It8JKkQ5Ep5UqMe3Wi5BTnfI3u9IeSDkNkIpM3AejNfh/j3UmHISJT1sfpSn8+6SBExjM5E4BM7s3glyQdhohMaY7ZO+lsOz/pQETGMvkSgExuLvhNwM5JhyIiU14es0V0tukDidSdyVUHYKkHQAZd/EWkPqRwX07f0MuSDkTk2SZXAtCR+6AOWBGROjMdt5/RMzA/6UBEtjR5bgH0DXbgwS3AtkmHIiIyhptY33Qop815KulARGCyzAC4Gx6cgy7+IlK/DqR19NykgxDZbHIkAH3DpwCvSjoMEZEiTqBv6INJByECk+EWQM/A7gSp24Edkg5FRCSCUcxeRWfbtUkHIlNb4ycAmez5wMlJhyEiUoJhmvwATmx/OOlAnuPsVS3s0DwHT83C2IUw3AWzXYCdMdsOaAUg9JmYpZ55oIeYPbrprxswewJ4sPDHH8RTDwAPMt1zLGpbV+P/KxlDYycAvUMvwuwGJsutDBGZSn5IVzqZI8qXrWxmm933Ie/7YewJ3oGzAKMDmEu1rw3OvzEGcAYxGwTuBm5mfepWLZKsncZNANyNvtzvAe2vFZHGZLyDzvSPqjrG2ata2GHawcBBhHYgZgeC7wtMq+q45QmBu8Buxv0m4Aby0//EKbMeTzqwyahxE4BM9m1AdV84IiLV9TCp4ABOmjccW4/n3z+D5nWHAi/DeTnwYjZP2zemPNjNEF4P9geaR6/hhAX/TjqoyaAxE4CrvYls7p/AwqRDERGpiPNbutqOwczL7qNv8Pl46ljwY4FDgabY4qs/jvN34HLwy9km/WcWWT7poBpRYyYAmezJgA7YEJFJwhbT1bY8cvOlHtCx5gjMjwM/FmdBFYOrdw8BVwAreHTDFZy+cEPSATWKxksAlq1sZvqu/5riT3gRmUycf+P557Gk45EJ2/UO7YvxVrBOoKM2wTUQ41HcfomFP6H1id+waN+NSYdUzxovAejNvgfje0mHISISL/82Xe2nP+fL/YOz8eBknBOB59c+roZ1P04fqdS5LJ57R9LB1KPGSgCu9iayw3eBtycdiohIzPIQHkzX/L8Dm7Y5Bx8AfzvQnGxoDe9G3M9hQ/NybTN8RmMlAH3Zt+P8MOkwRESq5M84fRjvBfZLOphJ6AHcv0c47TucPPv+pINJWmMlAJnsXyhsaRERESnXBrAVWP4LdM6/PelgktI4CUBf7gjcr0k6DBERmTRCsEvwcCnd7bclHUytNU4JXfczkg5BREQmlQD8eMxupm9oOT25KVVbpjFmADK5ueCDTO7iFiIikqxRnAxh6jOcPDeXdDDV1iAzAH4yuviLiEh1NWGcQip/B5ncF1lx33ZJB1RN9T8DsNQDOnJ3A/OTDkVERKaUNbh/jK50f0WlmutU/ScAfdljcK5IOgwREZmyfo+F755sOwbq/xaA05l0CCIiMqW9HA9uKtwWuK0ej1EuS33PAPQMtBKk/g3MTDoUERERjFtwO5WuthuSDqVS9T0DEDS9Fl38RUSkXjj7g/+BvuznWbayoUs013cCUKiBLSIiUk+acM6iddc/khneK+lgylW/twBW5Kazzu8Htk06FBERkXE8gXM63emepAMpVf3OADzJEejiLyIi9W07jAvozf6w0eoG1G8CkOK1SYcgIiISifF21q1bSd/g85MOJar6TQDclQCIiEgDsb1x+wuZ3JuTjiSK+kwAerN7AFPqUAYREZkMbAb4T8nkPo17/a6zo14TgICjkw5BRESkTAH4Uvqz/Zy9qiXpYMZTnwkA/rKkIxAREamI24ls33oVF63dJelQxlKfCYDbYUmHICIiUjk/lJHRP9Gf2zPpSJ6t/u5P9A/OJgzWJh2GiIhIjO7BeDWd6VuTDmSz+psBCPXpX0REJp3ZOL8nk3tx0oFsVn8JAMFBSUcgIiJSBTuC/4ae4ZcmHQjUZQLgByQdgYiISJXsQJC/kr7cEUkHUocJAAcmHYCIiEj12AzcL6M/e3iiUSQ5+HNkhneG8IGkwxAREak641FCP4ru9huTGL7eZgA0/S8iIlODsz1ml9Mz8Lwkhq+zBCDfsOcqi4iIlGEWQeq39AzMr/XAdZYABB1JRyAiIlJj8wiaLufCoR1rOWidJQA+P+kIREREas+fx6j9vJZnB9RZAsD8pAMQERFJyMuZ2fKDWg1WXwmAKwEQEZEpzOgmk/1YLYaqnwTgam/C2DXpMERERBL2v/Rnj6v2IPWTAOTu3ol6q0sgIiJSe0bIBfRm96jmIPWTAATNdXlesoiISAJ2xLiEZWu3qdYA9ZMAjJoSABERkWccwPSRc6rVef0kACl2SjoEERGRuuJ2Ir1DndXoun4SgLzPTDoEERGRumP2Xfpze8bdbf0kABZMSzoEERGROrQdofeywlNxdlo/CQCuBEBERGRsh7E+99E4O6ynBKA56QhERETqlvNp+gdfGFd3dZQA0Jp0ACIiInWsmTC4gGUrY/nAXE8JgIiIiEzsQFp2/UAcHdVRAmAjSUcgIiJS94zPxFElsH4SAGND0iGIiIg0gG0wvldpJ/WTAISuGQAREZFoXk1v7i2VdFA/CUBgG5MOQUREpGGYf4WegbIX0NdPAuD+RNIhiIiINJAOgqDsBYH1kwCQejDpCERERBrMx+kfnF3OA+soAXAlACIiIiWxGYT2mXIeWT8JwKg/kHQIIiIijcdOJjO8V6mPqp8E4MkNmgEQEREpXQrCj5X6IKtGJGXLZB8Gdkg6DBERkQaTJ0jty+K5d0R9QP3MAADgg0lHICIi0oBS+OgnS3lAnSUANpB0BCIiIg3J7R30r9k7avP6SgCMwaRDEBERaVABYf6M6I3riWsGQEREpAJdXLR6tygN6ysBCFmVdAgiIiINrJXR5tOiNKyvBCDglqRDEBERaWgevo8VuenFmtVXAtDVtgZQPQAREZGy2a6s97cVa1VfCQAAfnPSEYiIiDQ059RiTeovAXC7KekQREREGtxhLB/aZ6IG9ZcA4H9POgIREZGGl7dTJvp2HSYA9oekIxAREZkEujh7Vct436y/BKA7fTdwb9JhiIiINLidmdl67HjfrL8EAAC7PukIREREGp75ovG+VZ8JgIW6DSAiIlK5Y+m7d9uxvlGfCUA+dU3SIYhIXVgPrAFuxvknMAhsSDQikcayDeGG14/1Dat1JJG4G325YWBO0qFITeWBP1F40x/P84B5tQlHaux+4Fe4/R8+eiMbW7KcNuepMVtmcnMJ/GCcl+McBRxQ00hFGon5xXS2H/+cLycRSyS92fMwJtzCIJONfYmuto9O2OTCoR0ZtQeo19krKZ3zNwL/Iuvu/zmnHTRS+uPd6MutAvaIPziRSeEp1jfNenZCXb9vooFdlnQIUmPuDxRtc2L7w8Bo9YORGngMOIXBtoPpbP9JWRd/gB8O7Aq0xxqZyOSyDS0bj3z2F5uSiCSSYP3vyLeMAM1JhyIisbsT53Wbtv1WZjT1Dur5vUykHljwGuDXW36pfmcATlr4GHBV0mGISNzsX9jGw2O5+AOEtjiWfkQmt2Oe/YX6TQAAjB8lHYKIxMnvo2nkNXTueV8s3fUO7Yvxwlj6EpncFtKb3WqdTH0nAOtGfoa2/IhMFo4FSzhxwVBsPVqgT/8iUQW8Zut/1rPT9ngU5/KkwxCRWPyMzrbSF/e6GxcO7Yj71ruWlnoAfmJcwYlMem5HbPnP+l84U7gNcFzSYYhIRUYJUh+L3Lovux/Yf+H+Cvpye4FBX26ETPY+4DbgesjOAFNNCJHI/LAt/1X/CcB0+yXr/CFgp6RDEZEymV3A4rl3FG3nbvQPfxL3T4M/e4ayGZi76c+r67mMiUidmkPPwHyWdAxCvd8CAFjUtg4jk3QYIlKBMDw7UrtMdinun6ER3ptEGpE1PT0L0BgvMkstAzzpMESkLDfS3X5b0Va9g6/H7JM1iEdk6jI/dPNfGyMBWDz3DvBrkg5DRMpgvrxoG3fDgq+geX2RanvJ5r80RgIA4KaiQCKNx8mHxet59K15KfD86ocjMuXtwwpPQSMsAuwZ2IFU05dwf2fSoYhIqewOlnTcW7ydv7H6sYgIMJ0Na/cE7qjvGYDe3IkEwR24vwtNDYo0IP9TtHbha4q3EZFY+OgBUK8zABesaSOVPxf8GF33RRqY+5+Ltlm+aiZ5278G0YgIQMh+wE/qLwHI5N4M+fPQvn+RxudB8RmA0WkHY6RqEI2IAFgh4a6fBGBFbjrr/Wu4vyfpUKrgMYwHcB4AHsNpwdiRQpKzE9CabHhPc+AR4HHgSeApYCb49mDbAy1JBpeQEHgUeApjA84MYFtgm2TDeo6NwINb/BkBWnF22uK5Vuvf33rmz7u9aCuzA2sQy3gew1mH0UzhdVhvv9d6th64B+MJnI2FL1mA+fY4rcBukFhit25TfI+ABeAzgZkJxlNv9oB6SQB6h/Zlnf8I2C/pUGJyE/iVuF/Lhvz1nLbHoxO2Xnb39rQ0HUTAwbgdDBwK7F7F+DYCN4BdD76K0FaTSq1m9exhllo47qN6Blqh+Xmk8vvjvBzs1UC6inHW2lM4f8C4Bmclod9FRzrLkTb6nJbLh+cxmt8bC14GfiTwMmr75rIR5zeFWP1atkn/g0WWn/AR52fn0MTBOAdjHAwcRiGZqcQDwNiH+zirxvzZPZsxHefGCGPNB3YuJbgtgnkcgmvBr8b9Jprzd7GqI/ec5/uK26axYYcOfHSvTa/FV1LYNlWN98pB4K7xQ2anCU46HMH5MwHXgw3gDGMegs/EbQZGB3gHbgcC+1D5jq8Q+CNwNYFfx0jTv1gyZxiz8euzXO1NZId3I/AFuL8It4MxXoqzoMJYni2HcTXY78nbbXjqbk6eff9zWq24bRobt9uT0A4g5AiMo9l0IZx6vAPq4QZ7b/aNGBcC2yUdSoVC4BcEfIPF6esq6mmpB3SsOQLy7wB7C/HcDhnG+TFBeBmtqT+xqG1dxT26G5nsoZi9F1hEpW+Szn/Tnf5q0XaZ7AZgWkVjbe1GzJYx0vojTpn1eFk99A/OJh+ciHE60BZjbM/2ENg5jPq3OSW9tqKe+u7dlnDjG4F3YBxD6T9TJ59q5+S5uYriiCozfCSEJW4Htj9i4Q9oDX5a9nP+otW7sbG5C/N3Ax1l9fFcIWF+Z5Z0PDJhq0z2r8BBW3zlHrBvkG/qHfMiN5YLh3Zk1C5ni/3fJViD8X1GU32x/Z4zw3uBvwl8CeVv/RwB+xHG+Sye9/sJE5GJ9A8eShicAiymUGp6Cgl2STYB6Bv6KG6fo5HqEYztTrDFdLXdEHvPK26bxvoZJ+B8itLffEYx/zEE57J63nUTfrqvVP+avQnz3wFeVXYfNU8A/A4s+BiL5/2s7DeQZzt7VQs7TDsDt6XEP+X+Y5r8PZzY/nDM/UJmeGcIzwROJ2oybqymM127T1C92XdgXBSx9U2E9lGWtF0R2/jLVjbTsuupwKcxdquwtxG60sWfw33Zy3FeA2zA7PO08pWyEplM9joKs1RRPYj7/+DhOSzpWF/yeJFiyr0Y/C8lPsqBH+F8ku703bHF0jfYgQffB46Jrc96535QMglAz0ArQXAu2EmJjB+vC7Bpp9O5+5NVHWXZymZaZi3B7DNEuz1wPUHq1EgHsMTF3egb/hD4FyhnOrx2CUAe/OuE4aeq9ubWP3wgYfhzCtPWlXoK7DS62opX1KvUBffMIjXyYeAMiv0OnZ/TnX5z1WPaLJP7AvhHi7QaAT5Luu0LkW4/lBXH8M4Qfhd4WwW9lJIA7A12HF1tN5c1Us/AfILUaqLP+K7ANv4XnXveV9Z4UWWyHwM+V8Ij1oC9k6626hwR7270587E+RJTYa2A2/G1XwNwXm4ngvBXYIfUfOzY2RfpajurJkOddtAIcA692UGM3xRp7di017C4yknJsxU+RX+FvmwOp596WWOyFX+cMFjEknR8nwzHsnjeTVy0+qVsbLpsgvu4UTyF81q6234fW2wTKUwr/zeZ7DbAeydu7OVdkMoWHlDkGvYAAf9Z8S24YrrmPQi8nUzuD+DfoJoXC+cumke7OWHBv8vuI5U6EY908R/BOIPO9HfLHqs0JXwAtD+Sbzou8m2PchTev75Gb3YVxo+pn8XZ1RGEbbWdeu8Z2J1pfs3kuPjzQzrnRT/fPD77Rmhj2MZKLjqV6Uz/CKPYJ7UkPECQOjzWaeGJnLDg34za0Th/K7MHx62T7nRtLv5bj1x8X75xSw0i2XLAiWJaQ2iHVv3iv6Wutm8TcDyFWYfqeHTDhyq6+AM4J0ZotR7n2Jpd/HuHXkTU+//OpYSjR1X14r+l7vQvwf4T2FCT8ZIS2i61SwD61qYJUr+P9MZS92yI1IZ3x3bfuKSh6YrULh+xXbUsbvs61NP5Df44Ia9j8bybajrsqW0PkQqPBcpYsOfn0912cewxFXPB0AIsyv3iVO1mAC4c2pHxF1c+iPsxLGlbVbN4Nluc/jlm3RQWAcfv9IWVXYSiXWhHwP6T7vSVFY1VCgsWR2vHNXh+UdVu1Y2nq+1yjHfXdMza27k2U7SZ4b3w0d8yWbaMuZ/FSQsfi9z+wqEd2RgcSCqchdtGAh7C/EHWB/dyattDkfvpGX4BhNH2TBtvZdna0zltzlOR+99s+aqZ2LQUD258quw3IDOnJ/dBAv5BPSzyNE5hSfqvJT9u2d3bs23TXPKp3fAwT8rW0jJvoOiWuy0tnn8PfYOL8eB3RL4P64/T3Fza7aWe3ELMn09ha9+T4A/i4YOkpudKWqOSojNCnE8xMHf8LWxxywcHjHMieEhoJ7EkXfy44fGcvaqF3fccLel3uqXOtovoy+6HU5vbgSWJsM7KOIPOKt1XH8vV3sRQ7u0RXglZNtpbOLXEi/8KT/F4bjeamYP7DljwOE2puzlhzgMl9dOZ7iWTeyV4tGSl0ZjtXP1FgP25PQn9Oqq7r712jNWsblsYaUV939DL8GAp+CsZ/w11AGwlzkpS+d+xeP7408W92W9gfDByrG4n0d124Zjfu9qbyA2/CMJDCG0/jOdhzMaZw9b3vkZwVmHchNmvoPkXJV1MMtnLgNdGi7dqiwCX0ZWOns33rU0Tjp6O2fHg7WO0eATzX4N9k870ysj9ZobOBTs1UlvjG3SmzyzabqkHLMi9B+cMxt/TnMf4J85KjBug6TI652THbFlYCHVXhL3aG3AWga8Z87vhtGzRKdsVt03jqe2KzwgGQRPuHwPGODDIv0JX+4eL9vH0mJ5iXe5YsLfg/iKM3Slssw1x7sdsLYTXY8GFdLZFX6F+tTeRzV0HvDTiI6ItAoyi8AFjHil2wllHPriHjjn3cPfwTJr9X8CsCR79Q7rSJ5Q03lIPaB9+OSl/IyEHFXZE+GywGZtaPAY8CpbDPYv5P4AbmR78gUVt68gMHQt2aZFR8hAcTte8iGdJAH3ZY3DeQ2En0hj1Lexf4BcxYt+N/MGrsODzdib+GTYou6q6CcDy4Xnkw+uIZyV0nbCldLV9pmizTO6/wL9F6bUWBoFLcL+I7vZniqMsW9lM66xhsF0j9+T8lu70q5/+d89AK9b0eoy3FQ5fefoFW4oHMTuLzrZzI7Xuzb0F859GjDf+BMD5NxtG9i5ajAm2XAX8WWB6pN7h+0x//AwW7buxaOv+wdmEwd3R+rYDi676PntVCzu0Xoz76yPEuiUHbsT8Yjzop6vtmYt4f/ZwQuJYc3AcXelfTNiiZ/ilBGH0N/jnyrK+6fmRZ7kyw4dAeC7R1tGAcQU0nTZusvRsPcMvIAhXEm1RYGUJIddX9gAAIABJREFUwAVDC0gFp4O/FthrjBabK+HtOEEvD5Jvfn5J99b7cv+J8znw55UWMBTisT+A7wPMnrCl8X0600UWoW5ywT2zaBrp27RdMor7MT+FzvZiSUhBb/YMjK9H7LuR3FS9qdmL1u5CPrySSXXxB0IrtgJ/8/7Wb1JeoaX5wJmYrSQzdBWZ3GtxN1p2e2NJF38A4yh6Buaz7O7t6R06C0sNFi7G/tYyL/4AO+N+Dpns1yK1zrdeSZKLacw+EeniD9CX+yrOV4l28YfC7/e9PDXjp5vP157Q4vn3YPwgQr9r6ZxXfIHd9tPOKuPiD4W4D8LtC+Cr6c320DtUuCiGnFJGf2OMEBZfH2D5Ayoaw+1jkS/+vUOLILyGqBd/AOc1+OiNZAb/I1L7JfP+gdMbuf9yLFvZTG/2G6TsTvAPMPbFHwrP4Yku/uB8MvLFf8Vt0+jLZnC/uMyLP0Ar+FEUu/jDI2y0T0TqMTO8M6mRP5Zw8QeYhdvP6Rt6a6TW29gPgAhHWjcYY0Z1EoDlq2YyMnoF5Vd5qld5GPlH0VaF8wxi+NnakeCX0ZdbReDnl9FBQJD6E9ObhzD7fAzFS7Z0Jr3ZVxdtVais9/cYxy3FMNMf64vUsi/bDRSfch+L8QbWZb8QqW3g5xXvz/5edIGpu4FF+4Q0sWkY3ZjdQiZ7K9AZQ5+Psbh9sGgrq6j09wDt834cqWVf7iWYLae82hG74MHl9A8Wu2gVWPBlqrUgcPmqmbTs+n+bbgNWuvUwxzaPR3tPWeEp1s+8BI/luRGBLYs0Rb9sZTPkfwLsWcYgAW6Zwoe1IgqFl6pfg6PWnGnxJwBXexP5louBF8Xed/LuibQa1WJPfPbA2b7Mx+5ewWMnZkWLshREq/MeP7dvR5qa7xvswPl+ZYPZf9OXO6Jos5Pa/wk2cULkPlC0n557dyHe+5JG4dNxDLcF7dZIO2SsgiOAnW9HKvSz1APcz6OSMq/GboTBNyO17Zp3J9hlZY81HncjP+2HGIfH1OM3I702ANbnlpY501SOUUb97Egtp+/64cKHpLJNh7CPq734YvggmHwJALTEnwBks1+nknKw9cyJtvLfiL9Ua12yQzh7VZRyt/GV7IwupMkilo21zxJH0Q/nk9GG818XaVH8efbEE48B1al0VymPWCCo/C3BIXmiffpfkD2ReA4Ze2ukT4sA5mMvvK1EZvgEsNfF1NsItjHaBa13aF+c6IssK3dVpDMuMsM74/6RyoezvRkaLl7RcfG8m8DGPvSqccWcAPTl3gn2X7H2WU8s6qcju6S6gdSNVmZMLz7bEfhwDWJ5tj9y0rzi415wzyzcjo9nSH8lfWujbHW9fuJvW/HX5ekLN+D8KlpcNVc8Acjk5lL2yX5cH/kgJA/iKtZlEPWCM+1SINqn6yjcjSCOi90mZldGLvMb2HeI9+CtYqIldh4uqWAd09Ys6ja/sHZFpmojxlsA/dnDcf9ObP3Vpx0itWqddwGworqh1AnLF38TNyY+8aw6ohU1SY2+nfgO7TE8X3xdRD4/8fYy82i3bPK8D6h98ZtiAi++gDGsoCCY89tI7Xpy+1ewYG0sr+f8+4tfdDp3fxKn1ENuxtc7fEysBdTco92iyOQOwHlFbONGEmGRNYB5lOqGUb2SFbkIC3+D+H6n9SGmBGD58DxC/ym1zRSTsHukN4BFlmd62wmYn0VhO87kFQTFL1aewM/APVoVQvO4plU39cfBRdsUjoC9Z9zvu423sntrp6TXQnAIcBHjVMlJgLNutHgCEFRyQfOrIzUL/LjyxxhTC81PRVttHnBtbKOaV3Lo0HN50bNENgmj1ayIz51bbUkdT//gbLBoBdGiaebJKP2F/4pxzHqQr7wS4FIPyGf7St6i1piM1LpDiPLpslBV7ItctPY8Rkbfg/O+mFfhx+khnBsxVoM9AuHDwCM4TsA2OC2YNREym8Dm4z4fPA02g9CLf3rOp0YJqncS8Vgjsk1QvP6+u9GXOzTWkd33idhyFeNuh/KDWXHbtEiLtAoH05zI8qHPkeeMTZXfkjzEZCjStkvz/cpMWUKCluI7cQqDvCL2vCi0VwI/KdrO7W+xjW28Mp6OAHiohGN04008ijGPVqnT7WXEslh1y7HD5wN/nrhN8514fS67KdOGyhOA+dmPVLgSs7EE9haiTi8Dm8pPfpazV32ZmS3/WSjCwzEk+yb9CNilePgrPLyBJR2DZfVy4dCONE+v3kEo5bs70pnpy4f3AGbGPPa8iO0enOB7M3lq26OBYosFn3FS+z+Bd9J318fx5ndAsAj8EOJ+oywu4gJAL3ay39iMwciVKN33rcL/fbQ6AiG3xlIAe/mqmeTHPQOhDEV2oGx2wdCCBD7U3RqpldsLYh85sOI/49amh1inBOAZfbmX4F68Kt5k4n4SF63+VMkndBVq6v8Q+CHL7t6elqY3gR2P8WriuwddzF1gX2J96qKyzgh4thPb63O3g3NHpHaL2+6i9hfIAufRCUc2+3+UkgBsVljc9S3gW4UFiaNvxTkeeAm1+H/1CCcEFsrmlrdV1ol2/sCFQzsyWoUZNyPaDM/8eQNkc3kq3a+fb96DOH9v7tHWjDTZi2t+U8mDaK/brvTHgY9XN5gxvHXWk/TlRqnLY87LsrH8HHX5qpm4X0gl+2sb0zaMNH+loh5O2+NRutv76E6/kdSGXXE7CedSqret6wmw01l/3z50tZ0Xy8W/FCmv7VuJlXPyXo0FVmSrnx0ZuVLZeDrnZOlMf42u9CHkU+2YnwFEP7ugLBG2AK7J7kW5Sa9H/N1utHKKw0Sx86aTCSdWqFEQbaX9hJqiLTyOKiDqjpzKqjSWp/j9/yQVals8nnQYMdpQfgIQtnyR8Q8fmeR8cWHLYwxOWvgY3W0X0p1+I6O0U8hsY7yA+T/I+4F0tX2b0w6qx+n6KrDxF9jVC/cnirexc+gZiGcV+8lzc3S2f5Ou9MEEwQuA7wHxJ4IeoQRwvoICQGbRZt7M476184x8c8TtZ17aLOGYwnj/P3yCxadbt9sp1nGjyAf1/7qF4q/bxrGuvASgZ/ilOKfFHExjcf8Bfdn3xdrnKem1dKU/z6MbFgDvg8jZ+niuZH3zYZzcvjqG6BqHRbi4Ji/KGpAdCFK/33Sme3wWz7uJrvT7aB5dAP4V4tupso5t5xefYq5kS5tFTFrMtit7jGKCkYh9W/RTM8ftIuZEJurPL+qW5zi1jE6W122jeKj0BGDZymaCcBn1cMZ7sgKc75DJfi3aHtISnL5wA13p7zE6fR8Kn9TKmEK3PzLdjqv5dH99KO388ER41CImszCupjf7jthDOGHBv+lq/zCBHQCxbFv756bdLxOzSmoAhNEOljIb4zjYmIRBxN+dxfA8tLgTgKgx1T4BaA4a4HVLPMWH6sODpV/EW3Y7g2TuD9WrM1nnN0c6GKdUp8x6nK70+wonXXkJ9578PoL88ZFWwo9n2d3bc+HQjpyX24lla7cpu58khFU6jCVWQQlvsDYD4yIyQ7+mNxv/bbfFbXfR2XYk8KkKe4q2A4CKZgCSWbS5pbxHfX5VHmsY4ZTJUniEKpMAFuGchbjdu76+X7c9A61MrhmAB0tbzdgzMB/zT1cpmEa2J8ZvyAz9CbcvMtj2K5ZafE/m7vSV9GVfiXM5sEvxBwT/j8Vt0e+nrchNZ134eiw4Gg9fDOwBNoNRoNmheRQy2RB4FONhnBzGEKEPkgr6N62mrycN8CL1BaU/xl6H8Woy2RVgX6KrLeoFN0LX5sBn6cvej/Ndypnhi7ID4Pz7Z8C6+SX3/cwY0X63oT9RtVShKRXtTJB6fB6GUY+6Dh+p+QaZlqCVJI8OL6Y5WEDx+a1GUmICEKQ+BzTWp8GaskMwfkFHLkdfdjmBL9+0P7tynemV9A2+DQ9+y4Rvzv4POtsupCtCn2evamGHaWewzs8Em4U7E7zoA2BHnB2BBThgBmF4C0TcmlUrFvFNrnfoMCz4QJWjeRYfAbYDXlhmB03ACeAn0Jf9K2792IYfR67tXkxn+gf0ZXfG+d/SHxxhB0DThv2o7MoS7f0nCJ/Aq3SXcmM+4mycV28dQrmCiD8/t+LFnOK2TWoboPi4vUNnYcF/VD+gLbg/SZ6X1HTMajMvIQHoH3whIW+vYjiTSRvOWeTtLDLZVcAvCPglLW1/jHSPdDyd868ik/068KEJWn0z0lGs5+V2oplLcY+3Et5YvMY7is2i7f9OsQ2hV7bVLknOweAH49O+SSb3Zwh/SRj+giUdlZUsXd32BTpyb4AS3/DCacUTAM/vj1X0yXKc6onPYjxStWdd87SIF0ffPakyE+Ny5kRqZzxU++LSTbsyUYnszQJ7Hl7j122d/Rpj4dwTPUXOB19EC//KsRD4ECG/Z112LZmhc+jJvYYVt5V3boJNW8r4VeRGWD/686J9uBvNfgnU4OKfiHBupGajwb1VDqRWgsLv0r5IkLqdTPaf9Gb/l/7B8mYZllqIhaWeoncPJ8++v2grq2ALIABBxAvYyF1U53yE4UiVCFfcNg1sVhXGr1AYrVJlaBHLLcfIPdrrNvTJ8rpNlgWD0S7o/UNHYxxd5XCmANsV7J0EfjnrZvybTPYHZAZLm8rq3P1JsHHO8vaVkeqw9+UWAUeUNG4j8SDi/fXRHPVziE6cno/xccLgRvqyd9OX+1ThAJUSdM6/itJOGix+/7+gwgTAox2UdNLCx6h8G+1Yot3Se2q7hdTl58aIB03l/U9VDuS5PGJdGQtyVY5kikgNFE8A3I28fbEG0Uw1OwCnQfA3+nK/oj8XvXLZeMd5WhDtTdgn+60c34dlK4tXqCycyndb9eNJkLMA988QBqvJZL9G373Rt8eZXV7CSNXfAVAwj56BaDsorAq/26h9BpXOdFSJcSDuxROTU9JrwYZqENEWwoi7y/J/qG4cU8IIrbPXFE8AeoePwcpesCRRuL+e0G8iM3RspPbTRm8a8+uhR8uMJ//vs4Vpu0c7tAWuqWYgdaQVOBPf+DeWD0ebBnYf+3k2FouwADCTmwsxVJgLgoMitXN+W/FYzxZyRcSx4y3eFBdne5avjTYLYPyiytFszS3a+9JA+01AfZ5D0iiMHIssXzwBCPjvGoQjsA3YT+gZmF+05Ts67oOxNqR41O1JdXhvMmYWRjuhMrSLqxxJvdmLfHhxpE+BZtHvteZTUWafYqofEvH0UY/5AmY8yjaPXxOx9StiHTtO+dFjorXjPGp5i8w4kPNyxRPEwhbrn1U/oEnMbQCKLerryx4EHudZ1DKxVix1atFWhVX+zy3yE71ISuUlSutdQLTCTEvargFuqGos9efF9OeKf0LNRy4bO8Lj624v2qqSEsBbi/a77U7fjfO3mMYE5xIW7buxaLsL7pkF1HabWinMXhep3ZK2W4CfVDeYraSYFh4VqaWFX4VGKPhVpzbdypo4AXB9+q85o/gCtsKntzH280Yuf1rb0/LCGp8GCOAcRd9d0c4zD/wTTLU3kzBCISLLR30+3bHpuOsi/bFfxP6KOShyRUSzMuoZjClPkPpSpJbByPFUegxwdR0VeVHoKGcAD1U3nC24RVuf1Dn/dqC/usFMarfCRAlA32AH8JZaRdM47O8QvhDnfKoyPWbFC7r03LsLY/3ujIj3dvlrqVE1oGZoPiFSy8XtvwX/bJXjKY3xDSw8CvhLVfoPgggn1QXREqjIOwDC+BbGmZ0UqV3nvJ9jcTzfvYfFc6OdV2++uPLxqqoJtyilwgqLAd0XUbsKfcdy0doI1U4Bm/Y+LPLuE9lS3m6BiRIAD06lvrPYZLh/m675f6c7fSoBRxQSghhFWWTUvGHh2LHZ3pHGcPsWMPmPBvbgg5HrLQyk/wfnm1WOKKoRmpo+T+f8qxhoOxTnvcADMfb/MI+s/3PRVhZxy1iUBYDLVjaDPT9Sf5GE7410CFfhdtnJVHL0sbGaJj4cqW1m+BCwQ8oeq1bcTo98iFl3+//hfhR4PNUmJzaNjaMfjNSyc/cnSY2+Abz2NQsam7PttAlmAFZ4CiIVk51q1tG04ZlFY4vT1zEw7yCck4GByru3/6N73m+KNgtTh439DX9JpAvekrZbcH8/Yy4knEy8nfUzTo7UdKmFdKfPAN6OE8M57k+7C/cvg0f79AiA/YYT5jywRVzfJ8wv3NRPCYdCjesTkabs3cd5nj1bUDwBaJm1F9ASrb8obFfWUXy9DEBn+lacN1PW2hcbIuTVnNgecdW5l1pAKSmzWe/vjdy6u/0PNOVfjHMp1V4YaPxX5FmAExcMMT04FFgGxHWAUR64ctNR2bU/FKnajAEW7foEjJcArB8+BohWlWlquXRTgZFnFN6ge5jethC344HfUc6F1bmOcPT4SGV88deP841tWTcz2iKa7vZz8PBNwGDUEBuS8zkuWh2tNDBAV/rHbGMdGO9n032yEoXAzRhfIAwOobNtL7rbP4KVsp7Gn1voaUnHI3S3f4T1o22b1uaUGZstpSv9vaItL1q7C8ZLI/U6GqH+RFX2xfvSyBeK7vSVuL8E7I9ROwcuAnsR3em7Iz2iJ/ca8GhbeeuB86nIW0KhcLHtTr8R94OBi4DilR83j+T8E/gqxsE0jc4vksjOZCT/9chxLWpbR1f63eR9bwqJQDmzZU8BlwPvA2unK30MXe0fBpt8uw3cnl4YO/ZZAM6SmgXTSGyMN+bNCjX+LwYupu+uXfFpx4K9AvwgYAFjf/oJgZUY32egrS/SCYKFxU+Hj9/A303hiVxc9/xfs8KvYN3wGzE/DucQYA/GTAz9cbBhzFYDd4PfjoU305KK9xZI/HZipOn7uL8lWnIFm45R/i7wXS5avRsjTa/AfR/MdimUdw23heBJjIfBn8R5AmM1cCtMu32rUrGbX0nr7r+C1l0foPhpjo8x3X457ncLlR6/CnyV5UP7ENprCTli0wK7NGPftnsC+DXGV+lsWxnpZzAyciJY8WJK8DAnzy1efyJkvyrUxdtp04WiM1Lr7vbbgMPozb4c463AwRQ+6OxKIWlfC6zBuQ7PLy/pTIXz759BsO47pf4PJGwm+fwy3I+N/NoA6G6/ETgRd6N3zYGk8vsDOxPaLpg1YR4S2iMQ3kvgw3jTTXTP27p8eSb7U5joOuOLyWQvpisdfSvnye2rgXez1N9Lx/B+mB+OezvYLsDOOCGBP4nbE2CPYOEjmP0L7Fbunrd67PdfvxBo3PNCxmLh04WUnvuSvGjtLoyMrgHKq1U/eT3A+vvmcNpBpd87X+oBCwfayKfanj7ONLRHad5wx3NmFIrJZM+ncE9zPA72UrraytvadvaqFrZv3YWA6YyEIS35PM3N9226KJanL3tQpIWHzn/Tnf5q0XaZ7AZKfX4an6Az/bmSHhO3vuz3cN4zYRunl+50eQn4itumsW77+cDOkN+WwDbg4QO0tt9Z0iFUPQOtBKlVEGlR6bV0pV9RtFVv9pcYb4gcQymMJXSme6vSd1SZ7IVAtEWnBSN0pYs/h3uHTsfsW2XHFYXZp+ls+5+qjvFsmeEjIbyqSKvHSPkhsZ2oWo4Vt01j3Yx7iKOAVb0IeTFL0n+FsWYANo78J2a6+D+H/6ysiz9sLlwxtOlP+foHDyWku0grAz+HnoGXsqRjfcljFO4NryknvLrm/A+Z7D10pS9ILIbQL8Rs4gQgsPL3XRf2qN9Z9uOfjqHp0+ARp4YjLAAEsNhqAIwRAt8nMzxE17yrqzbGRPpyn8K9lIt/fXH/NJncarraxp/hjNvA3GvpyGUpzFqNZyZ5+zUXDB216dN97S3adyN9uZ/i/q5Exo/fU2y87+lFk2NtJXtTTcNpFMZOkerLV8sF98wiDJYT7UTGAwlSP4hU7W3qCIDz6B06PbEIutJ/pOhiUZ/oDbH6Cvexo69XiHL+xPJVM4H2CqIqphXyv6A3+/IqjjG23tyHcf9MzceNVwDeS1+2u2YjLrUQ48IILeeTsmvpHYpa2jt+oUeJszEYN2z5QXbri8mK+7YDU+W/sbi9hZZd/0FP7hU1H/u83E6kRi4DOkp4VBd92WVc7WOv85iaDLNv0Te0vPBcr/Xo5hg/mrCN830y2Z9HKgkdt76hlxH4jylt+2/xGQBv3o+qn4xnMzCuJDNUm91Ly1Y2k8n+APNoxYHqXwqnh97sN2r3QSeMWshnHmZ/oXco2lqPuHW1XUd1TpZMwvVb/mPrBOCpDcfApnvU8lzGPgR+FZnsRfTkxt6LH7flQ/vQ7NcD0Q5A2Yq9k2zud1wwFPF43CoJqc3PKiq3E1m3/jZ6hxbVfOwwUsXBNxGkbiMztDTyyXeV6htajNsVwMwSHhVCc/HdCGHNTsZrAeslk72IzPDOVRslkzuA1lk3AKdVbYykGB+kdbe/0DsUcQtoBTrn315CIZ9tMcuQyV1as/fezc65Zzr45Cifbly59T+3lMn1Qd1XsaoXeZyfEPh36Wy/vnjzEhUWYp0JfAKIVrBjfE+BfZt809c4eXbUrTvl6xvsgNR/4H4IxhE4LyTKp8pqLgIc31/Av8r09M9KWihXimUrm2nZ9bUYHwZKfWN9DPcfgJ0TeTtaKXoG5hOkvg68uYxH30VXuvibcW/2OxjvK6P/SjwAfIHp9v2KFrBu6fzsHJr5BM6pQKWfkkfpbJtWdPV9ZugDYEkUqHLgZ7h/ne72+I/fPXtVC9u3vAY4Hyg1WduI0w/+jU07O6rjgntm0bTxFNw+AOxetXFqxXiUtrZdONJGn/nSZks9oCN3H6X/MsT5J2a/xP1y2tv+uOUPuGTLh+cRhl047yf+J90GsEtxv4Sw+XcVJwNLPWCPtQvJ519YOGLY/gP8hcCO5XVovyIcfSfTgvGL1OSDQ3D/dXn9TyiHczEpLuGp+/5c9oLPzTK5uRgvwTlu097wMn8mTwuB68B+jfnldKbLqQPwjP7BQ8kH78Q4kfIvZivoSr+taKve7O+xibauVpPfB7acIOhj8bzoxxtvVkjejsToppAkxTdD6v6xicsUB83gnwZeEtuYZfF/gF0C9gsG5t0aabvyWHpyCwnCQzGOxu0NlDbbNGZgwB8wv5hRflnxQsFlK5uZvuveuB+F2XE4hzOZquGaX0xn+/Fbfenpv/Xk9ieIuKJXJvIIcC3GP3G/Awv+heWzBLZ+q2piffduy2h+J1Iju+C2P9ghGIcC+xFtoV8choF/gd8OwZ0QPo7xFM7DGOtxWnHbhsBbCNkRgh0IfD7OfHj6T6WzE/VoXaHEs/8NZzXmOYx7CVmHh0/iwUYs2BYLpxUOYPLdsWA3CjUU9gc/kOon0lngD5j9C/c7ILyT0eDftPq6p59nKzzFE/fuRHO4E/n8bhgHUZiBOASIdhjMhOzDdLV9ZcImV3sT2dwjQNSDharpXpxrCPwmnLsgyGL5xxm1QsKZCrYjyG9H3vbEbE/gxcDLqI/Y64PxaGFLr92G+xD4GoyHcNu4aZp8B7BtCdiG0NIE7IGzR+EcCIt6tkS57qVwsuet4Fnch/HgvkJdAh4mMAMv3FKzYFc8nIUxu1Ci2g4A35fJvP3d7F10tp271Zee/lsm+14KxU+kutZRuMDHWBZV5Dk2Uu03s9CO3HSc8vh6hl9AENZ7sSiRyc7Jp9qfXbSraYtvH17tdboCTM5PzFJ/qv1JJqR5/d+KtrKw/g/GEZn8/jpWxc5nppqt5MVJIjJ1/S1SFUtL+v61iOCMWWCskAAUtom11TIeEWlg7pdFa2hKAESS5Xj+p2N9o5AANPGimoYjIo3NU8UPnMrk5oLvXYNoRGR8N7CkY3CsbxQSACe5Mosi0mhyDM2NcNiUv4mqVwAUkQnZ2NP/sDkBKBwlKiISxbkR94KXU1xIROIzygg/HO+bm2YAAs0AiEgUGxjl/KKtLhzaETii+uGIyAQu45T02vG+GXD2qhbwPWsZkYg0KOMrE72hPG2EN1B5uVwRqYT5eRN9O2BG615sWQ9ARGQsxi202uejtQ0m30E5Io1lLW3pCRfrBlg+2fPHRaQR3I6Fx0Q6WKcvexD4oTWISUTG11vsXJqAIDWnVtGISJ1x/klor8X4As7fgAe3+O6DwG9w/wDT7UUsnn9PpD5DPlWNUEUkslGaRs8p1qgJRwmAyJTl32JJ+grgCuBjAKzITYd5G8s6HjkzfCSEx8Ybo4iUxPkpJy4YKtasCTyGU8FEpAFtoHmMPcJRpvnH0nfvtvjGc9Def5FkOV+P0iwAm1vtWESkHtmlWx1RXQl3I9x4HqAdRSLJupYl6b9GaRhgvlu1oxGROuTeH1tf/bnPYbw9tv5EpDwRP/0DNBGyrSbsRKacB9hwX/F6/sWs8BTrcl/GOTOGmESkMjcz2ParqI2bMJ1PLzLlOD/mtINGKupj+fA81uXOB14dT1AiUhlbGrFMN1AoANRaxWhEpD6Vf/G/4J5ZpEbfSz78ELBdfCGJSPns73TO+zld0R+hBEBkKjI+SCZ7LNivCbmC0G8et8TvhUM7MsI+GAdh9hp85EigpbYBi8iELPw0Zl7SQ8hk16EkQETwxzG7H2cDeIBZM87uwDZJRyYiE7qBzraXlpoANAHTqhSQiDQUm4EzY9PfoaS3EhFJTMCHSr34Fx4GE9YKFhERkbq1gsXp68p5YABsjDkYERERqb71hPmPlPtgJQAiIiKN6ess6Rgs98EBsCG+WERERKQG1jA6/YuVdBCAPxZXNCIiIlIDAe/nlFmPV9YFwYPFm4mIiEiduITF6Z9X2kmAuxIAERGRxvAY2OlxdBQASgBEREQagfNRutrWxNFVAH5fHB2JiIhIVf2OrrYfxNVZgNlQXJ2JiIhIVTxMPnVyORX/xhNgNhhXZyIiIlIF7u/m5Lm5OLsMCMLBODsUERGRWF1Ad/uKuDsNeLJ5EB37ISIiUof8Dkanf7AaPQecNucpjIFqdC4iIiJlewJZy0P+AAARw0lEQVTnLZUW/BlPAIBzSzU6FxERkTKZv5fu9tuq1X2w6b83V2sAERERKZHxDTrb+6s5RCEBMNcMgIiISH34PevuK/uY36gKCUA+/Gu1BxIREZEijNXkm4/ntINGqj/UZpnsMDC32gOKiIjImB6E4FC65t1Zi8GCZ/5qf6rFgCIiIvIcGyF4a60u/rBlAuD+x1oNKiIiIk8Lcbrpmnd1LQd9JgGw8JpaDvz/27v7KLnKwo7j32d2l2QjYpUEMWRmNxqsFRQ1UqoFK6D1pYL0xVUgmck2COVINSpaq1TAF045R6CAR41KYBdEG5S2FhMEbaJgKRYoirwoCSG7mwQDISW8JNmduU//iCkBkrCbzMwzL9/Pvwtzv3uSk/vbu/fOSJIkAP6WeYVv1/ugT98DEGNgcHgN8LJ6R0iS1JZC/HuKPf+Y4tA7XAEIkcCNKSIkSWpD56U6+cMzbgIEMq5P1CFJUhsJF1MqfCZlwTMHQDn8EKj5s4eSJLWvcD6lfE0+4GcinjkATsk/CvwoTYokSa0unE8p/6nUFfDsAQAQuSZBhyRJrSwSOLNRTv6wswHQFf8VGK1/iiRJLWkMOIVi4YLUITt67gA4uWcjsLT+KZIktZxNRN5DqbAodcizPXcAAIR4WZ07JElqNesgeyvzCjekDtmZnQ+AfGEpsKa+KZIktYp4Jx25P6TU+z+pS3Zl5wPg6FAmckV9UyRJagnfJkw6kjkzRlKH7E7Y5VcG1xaI5ZVAZ/1yJElqWmVC/ATFnn9KHTIeO78CAFCcPgR8r34pkiQ1q7ieEN7WLCd/2N0AAAh8qU4dkiQ1qfBjyuH1FPM/SV0yEbv+FcB2A0M3AUfWPkWSpKaylcBnmJu/kBBi6piJ2v0VAADCebXPkCSpmYT7IHsTxcIFzXjyh/EMgFJ+KcRb6tAiSVKjqwBfYkvH7EZ+xG88xneHf46zyWjINzKQJKkuAncRwymU8j9PnVIN4/gVADC350bgp7VNkSSpIW0hcBab189ulZM/TOgZ/2wB5G5jvKNBkqSmF64jxgWUCitTl1Tb8z8FsKOB4UGIc2vUIklSg4i/htxHt90H15om9tN8R/g08FRtUiRJSu5hCB+mUDi0lU/+MNErAACDQ58h8oUatEiSlMpG4Et0T76EvgOeSB1TDxMfAMtiJ0PDtwGHVT9HkqS6ehLCl+nMzufkno2pY+pp4gMAYGDkTZDdjDcESpKaUlwP4cuQ+wqlGRtS16SwZwMAYGDoUuCM6qVIklRz9xO4kMlhgL785tQxKe35ABh86AXErbdD+P0q9kiSVG0ZgRsILGRl/vucE7LUQY1gzwcAwBWrZxPCLUBXdXIkSaqadRAGCZWFFHtXpY5pNHs3AACuGDqLwOer0CJJ0l6KjxP4Pln8NlN6rqcvVFIXNaq9HwCLYwebR26AeEwVeiRJmqjNEH5A5DtMYUm7/25/vPZ+AAAMrjiAuM/twIyqvJ4kSbv3IIGlEJfCpP+geOCTqYOaTXUGAGx/NHA5sE/VXlOSpG0ehfCfEJcRsqUUe+9NHdTsqjcAAK4YOp3AV6r6mpKkahgDOmiO92/JgBUQbiVmNwM/o1S4hxBi6rBWUt0BAHDF0EUEFlT9dSVJeyHOY0vXNXSXX03Ga4BDCLxm26PccQbbxkG9ZcAaiCsIubuI3EUWf8Fo592cNt3Pnamx6g+AxbGDzcPXAsdX/bUlSXviZor5t+zyJ+iFt3XRPXUGsbOXmPUSYg8xTAX2JzAV4lQI+wP7QuyE8MJdHyo+DqHMtg+O2wBxA4SHgUeADcQ4QgerILeKSZuG6DtktOrfrcal+gMAfvcmQaPLgTfW5PUlSeNVJgtvoD9/V9VfeeHaKew7NonKpFFvwms+tRkAAFevncpYeTlwSM2OIUnavcgFzCucmTpDjad2N4OcNP0RyvwpsLJmx5Ak7UZYTaX73NQVaky1vRt0fmEtIXs7MFTT40iSni0jYx7zpz2eOkSNqfaPgxR7VxE6jwJW1PxYkqTfiRfQn1+eukKNqz7PgxanD5FVjgLursvxJKm93U2WfTZ1hBpb7W4C3JmrH3gpY11LIb6+rseVpPaxBcIRlPK/TB2ixlbfd4Q66eW/JXQdRQg/qOtxJaldhHCGJ3+NR/3fErJ44JNMnvFeIl+r+7ElqaXFSynmL0tdoeaQ5j2h+0KFeYXTCZwJlJM0SFJr+SlbHv546gg1j/reA7Azgw8eQ8x9B5iWOkWSmtQwYfSNFGetTx2i5pF+AAAMri1A+btEDk+dIklNZiOBt1As/Cp1iJpLYwwAgGWxk6GhsyD8A83xcZWSlNpmcryDuYWbUoeo+TTOANhuYORoyK4EDkqdIkkNrEIIfRTz16YOUXNqvJ+0SzOWQe4wCFemTpGkBhWJfNCTv/ZG410B2NHlw+8kFxcChdQpktQgKsCplAqLUoeouTXeFYAd9eevp9x9KIGLgLHUOZKUWJnIXE/+qobGvgKwo4GRVxLihcT4Z6lTJCmBUUI40cv+qpbmGQDbDa4+jhjOAw5NnSJJ9REfJ8v10Z+/PnWJWkfzDQCAc2KOlw/9JTF8AXhl6hxJqqE15LLjmdt7R+oQtZbmHADbLYudDA/PIeMTBF6dOkeSquznZJX30j/zodQhaj3NPQC2izEwsPrdhNwngD9JnSNJey9cQzcl+vKbU5eoNbXGANjR5SOvoyM7lcjJwH6pcyRpgkYhfpJi4RJCiKlj1LpabwBsN/jQC4ij7wdKwJE0+iOPkgQrCXyAYuG21CFqfa07AHY0MHwQIXsfMbwfOIJ2+b4lNZPFdGz9IHMO3pQ6RO2h/U6Ei9ZNo3P0rcTccRDfA7w4dZKktraRGD/FvJ6vpw5Re2m/AbCjZbGToTWHE7M/JnAU8GZgauosSW0ixG/R2bWAk6Y/kjpF7ae9B8CzxRi4auQVVDgMstdCeC2BQ4EeoKuGR94CrATuJsY7If6SrOuXdFT+HTishseVlMYQIZxOMb8kdYjalwNgPBbHDsZWzWC0aya5rAc4EMJUYH8iUwl0Ay8EOoEuAvsSw2MQMwhbIT5F5AlgAznWAxuI4bfEbBUd8QHm9q7b6XEHVp8G4Wv1+jYl1dwm4Hy6w0U+3qfUHACNbPH6fdmyZYTIi1KnSNorZUJYRKV8tm/qo0bhAGh0A0OXAmekzpC0RypEriGXfY5i772pY6Qd+Wx8o+uIX02dID2PewnhFCL3pA5pIFshfoNceBXzCid68lcj8gpAMxgYWo5vcaxGFeinWLiCGANXjryLyMchHpM6K5GNRBYRwkWU8mtSx0i705k6QOMQw6WE6ABQIxpi8/pvAfzubWuXAEsYHDqUjPkE5tD6j9ZG4CZC/CaTc9/15j41C68ANINzYo6Zw78ADk2dIj1TXECp5+Jdfnnx3fuwed/jCbl5xPh2YJ/6tdXcELCYXMc3mXvQr1PHSBPlAGgWA6v/CsI1qTOkHWyge3IvfQc8Ma7/euHaKXSPHUvMvQ+yEyC8sMZ91Rd4AMJ1kF3D3MLP/LAeNTMHQLOIMTA4fCfw2tQpEgAhnE0x/7k9+n8Xrp1Cd/kosngMIRwDvB7oqGpfdTwC3ATxJ3RwI3N6vNFRLcMB0EwGh/+CGL+XOkMCHqUzzuLkno1VebVvrX4xFY4kMpsY3kBgNjC9Kq89fqMQ7gZ+RYi3ksXllAr3+FO+WpUDoJnEGBgcugPC61KnqN09z+/+q+HyVQdC56vIMQuYRchmEUMP8FJgGjB5D151I7AWGCGyjhBXE7mHXLyLfM/9HB3KVfwOpIbmAGg2VwwdT+DfUmeorf2GLesP5bQ3jiWtWLx+X7Y8NY0svASAjjCFLE76/69HNhJiRiU8RmdXmcmVh71DX3qaA6AZDQwtAd6VOkNt6wRKBUeo1OR8J8BmlIWPAFtTZ6gNBZZ78pdagwOgGfXn7ydwYeoMtZ2MLJ6ZOkJSdTgAmtXk8HngwdQZaitfYV7P7akjJFWHA6BZ9eU3E8LHU2eobTxIufvTqSMkVY8DoJkV89dCXJI6Qy0vEuMpzJ/2eOoQSdXjAGh2YayfyG9TZ6iFRRYyr+fHqTMkVZcDoNkVZ60ncFrqDLWsISrdn0wdIan6HACtYNtjWQtTZ6jlZOS89C+1KgdAq9jS+TEI96XOUEv5InN7bkwdIak2HACt4rTpT5GrnAyMpk5RK4jL6M6fm7pCUu04AFrJ3N47IPr7Wu2tNYSxD9AXKqlDJNWOA6DVbPuENu8H0J4qE+IHKM5anzpEUm05AFpR9+MfBn6aOkNNKPJJij03p86QVHt+GmCrGhjZH7JbgVekTlGTCOHrFPM+Uiq1Ca8AtKrSjA2E7DgCj6VOUTMI15Gf8aHUFZLqxwHQyoq99xLjHKCcOkWNLN5CN30cHfx7IrURB0CrK/VcB/FEHAHauRWEsRPoy29OHSKpvhwA7aDU810ipwIxdYoaylqyytu9419qT94E2E4Gh+cT4zfwz13wEB3xWOb03JM6RFIaXgFoJ8X8ZRA/mjpDyQ2RC0d58pfamwOg3ZR6Lob4Kfx1QHsKPEBn+S3Mza9InSIpLS8Ft6uB1SUI3wC6Uqeobn5DR+5Y5swYSR0iKT2vALSrUs8AMftz4MnUKaqDyB3ksrd68pe0nQOgnc3r/QEZR0P0LvCWFpfQufVo5vauS10iqXE4ANpdf+G/qfAm4P7UKaqBEC5hVeE45hy8KXWKpMbiPQDaZnDFAcRJV0M8NnWKqmIUOJ1SYVHqEEmNyQGgpy2OHTw1fC6BT+PfjSYW15Pl3k9/fnnqEkmNy3/k9VyDw+8mxiuBl6RO0UTFZZTDHOYX1qYukdTYvAdAz1XML6HS8Trgv1KnaNzKEM9lVeFtnvwljYdXALRrl9w/if0mfZHAAqAjdY52aRVZ7iT6ZzjYJI2bA0DPb3D4CGK8DDgkdYqeLV7FlvIZnPaKx1KXSGouDgCNz8Lbupg87WMQPgfskzpHrCTwIYqFH6YOkdScHACamMuHX0NHvIzI4alT2tQYhAvJyufQP3NL6hhJzcsBoIlbFjsZGj4V4tkQDkid00Z+Qlb5G/pn3pc6RFLzcwBoz111/35UJv0dsACYkjqndYX7iJxFaca1hOCnOEqqCgeA9t7A8EEEPkuM8/FpgWoaIcbP01NYxNGhnDpGUmtxAKh6rhw5jCz7LHACvsfE3niYEM/jf0e/yocP3po6RlJrcgCo+i4fPpgQP0agBHSnzmkagQcgXsrYlMuYP+3x1DmSWpsDQLWzaN00Okb/GsJHgJelzmlgPyPEi8kX/sVL/ZLqxQGg2lu4dgrdlZOJsQS8Gf/eAWwm8s/E3MX0z7gzdYyk9uM/xKqvwbUF4tiJEE4BZqXOqbMMuIUYB+kc/Q5zDt6UOkhS+3IAKI0YA1cNH0kWixDeC0xLnVRDtxLj1cRsMf0zH0odI0ngAFAjOCfmePnwG8h4J4F3AkcAnamz9sKjEH5MzH5EzG6gf+aDqYMk6dkcAGo8l6/6PXK5twHvgPBHwB/Q2O8v8BSBnxO5kYwbeUH+DvpCJXWUJO2OA0CNb+FtXUya9kpgNrncbGKcDRxOmg8l2gTcRQi3k2W3A3cz5Ym76DtkNEGLJO0xB4Ca0+LhbkazmVRyPZAViCFPCAVi7CWQJ/BiIi/ag1d+FFgHcTUhN0IWhyEOETqGCeUHKfauqva3IkkpOADU2i5fNZl9ct1Q2Y+sq4tKtm0UhJhRCY/RkdtKZ/YUXU886U/xkiRJkiRJkiRJkiRJkiRJkiRJkiRJkiRJkiRJkiRJkiRJkiRJkiRJkiRJkiRJkiRJkiRJkiRJkiRJkiRJkiRJkiRJkiRJkiRJkiRJkiRJkiRJkiRJkiRJkiRJkiRJkiRJkiRJkiRJkiRJkiRJkiRJkiRJkiRJkiRJkiRJkiRJkiRJkiRJkiRJkiRJkiRJkiRJkiRJkiRJkiRJkiRJkiRJkiRJkiRJkiRJkiRJkiRJkiRJkiRJkiRJkiRJkiRJkiRJkiRJkiRJkiRJkiRJkiRJkiRJkiRJkiRJkiRJkiRJkiRJkiQptf8D4ym3QFzF3fAAAAAASUVORK5CYII=;" vertex="1" parent="1">
          <mxGeometry x="30" y="228" width="48" height="48" as="geometry" />
        </mxCell>
        <mxCell id="HkrrA9YoYlj2VY17bmsr-13" value="" style="shape=image;verticalLabelPosition=bottom;labelBackgroundColor=default;verticalAlign=top;aspect=fixed;imageAspect=0;image=data:image/png,iVBORw0KGgoAAAANSUhEUgAAAgAAAAIACAYAAAD0eNT6AAAABHNCSVQICAgIfAhkiAAAAAlwSFlzAAAN1wAADdcBQiibeAAAABl0RVh0U29mdHdhcmUAd3d3Lmlua3NjYXBlLm9yZ5vuPBoAADRpSURBVHja7d1ZjGTXfZhxK3aCPEQOYiAwECTxg6EIthAkcB6MPMgwgiQG8mgEMJAASfwgBAhg9cxwXyRSXERK5FAiRUmkRIkiZVJSL7Pv0zNd1fvePb0vdWvfu3q6a+u1lpz/TFPiiDM9XVXn3rq37lfA74nL1JyquuerW/ee8zvVavV3gN8WTW99Xvkb5RXlZ8o1ZVbJKFUAzuKL5q/O+Db/Lcc3fIJBwKcn/T9UvqJcUnY5aAKtYyWc71UBkCYCQADg0xP/F5QOpcyBEmjpAKgSASAA8Mk3/h8o+xwgAdcEABEAAsDFE//nlKeUPAdGwJUBQASAAHDpxX1nOSACrg8AIoAAYBBcNPn/sTLPwRAgAIgAMAjumfz/UlnnQAgQAEQACAD3TP5/quQ4CAIEABEAAsA9k/8fKD4OgAAB8JAAIAIIALTQ5P+7ynUOfgCOGABEAAGAFgmAkxz4ANQYAEQAAQCHT/5fYmU/AHUGABFAAMDBAXCegx6ABgKACCAA4MDJ/y844AHQEABEAAEAhwXAEAc8AJoCgAggAOCgBX844AHQGQBEAAEABwTAmxzsAJgQAEQAAQCbB0CIgx0AkwKACCAAYNPJ/8840AEwOQCIAAIANgyAFznQAbAgAIgAAgA2CwAPBzoAFgUAEUAAwEYBsMKBDoCFAUAEEACwSQDkOdABsDgAiAACAE2e/D/PQQ5AkwKACCAA0MQA+CIHOQBNDAAigABAkwLgyxzkADQ5AIgAAgAsAQzApQFABBAAIAAAuDQAiAACAAQAAJcGABFAAIAAAODSACACCAAQAABcGgBEAAEAAgCASwOACCAAQAAAcGkAEAEEAAgAAC4NACKAAAABAMClAUAEEAAgAAC4NACIAAIABAAAlwYAEUAAgAAA4NIAIAIIABAAAFwaAEQAAQACAIBLA4AIIABAAABwaQAQAQQACAAALg0AIoAAAAEAwKUBQAQQACAAALg0AIgAAgAEAACXBgARQACAAADg0gAgAggAEAAAXBoARAABAAIAgEsDgAggAEAAAHBpABABBAAIAAAuDQAigAAAAQDApQFABBAAIAAAuDQAiAACAAQAAJcGABFAAIAAAODSACACCAAQAABcGgBEAAFAAHCQA+DSACACCAACAABcGgBEAAFAAACASwOACCAACAAAcGkAEAEEAAEAAC4NACKAACAAAMClAUAEEAAEAAC4NACIAAKAAABAALg0AIgAAoAAAEAAEAHMFwQAAQCAACACCAAQAAAIACKAAAABAIAAIAIIABAAAAgAIoAAAAEAgAAgAggAEAAACAAigAAAAQCAACACCAAQAAAIACKAAAABAIAAIAIIABAAAAgAIoAAAAEAgAAgAggAEAAACAAigAAAAQCAACACCAAQAAAIACKAACAACAAAD7QaIQCIAAKAAADgOkasMMpETgQQAAQAAJcJJooLTOJEAAFAAABwmXCymGQCJwIIAAIAgPuU1MRVZgInAggAAgCAy6hJi7MARAABQAAAcJt5f3aAiZsIIAAIAAAu44vmCQAigAAgAAC4TSS1lVWT1R6TNhFg+wD4arvv95X/rjyufEf5pXJZuYJ7He80bjx9JjAOwBrPnA2Mvnwp1PfWzWjPh4MJ78DyxqyaZCt2j4A5IzvBhE0E2DIA1GT2j5X/q1xVdpUqADhBW4cv+cqVcG/f0saMjZcE9jJZEwG2CgD14fkHyt8qEQ4kAJxOzhBMGNlVG/4MUORuACLANgGgPixfUKY5aABoMeWT1yMeNemW2BeACCAAPjv5/xflNgcKAK3qqTP+CV+ssGGnRYFmfZsGE7W7I6DZk///VkocIAC0uuOdRmApkk/ZZnOgaGGYSdrdEdDMyf/Lyh4HBgBu8dgp/2woWdyxzR0B/iwR4OIIaNbk/0dKmgMCALd58WKo30YXBBZmfZurTNLujIBmBUA3BwIAbnVuam3ILhEQShbDanJaZ5J2XwQ0Y/L/Kw4AANx+PUA4tbVvlwgIxAvTrBDovgiwevL/HLf7AYCv+vdDSa+dbg08uCiwwCTtngiwOgD+Ex98ALh7FsBuiwQFE8VlNTlFmaTdEQFWB8BbfPAB4K4Jf9ZntwgIp4qZWWPzFpN060eA1QEQ4kMPAHe964312HTPgN3FYM6jJqhtJurWjQArJ/8v8oEHgN944rR/ys47B4aTxdh8INunJqkyk3XrRYCVAfBf+cADwKeuA+gwgnbfPvjg2oCVOX92lBBorQiwMgD+lg88ANyj4IQA+NT1AWuykdCccScGdpi4nR0BVgbAs3zYAeBe/kQx76QI+NQqgnlfND+0FMr1LASyXllWeNbYnFOTWEzZVLKomW/en/1SKwbAq3zYAeBeS5F82okBANO8SgAAAAEAAoAAAAACAAQAAQAABAAIAAIAAAgAEAAEAAAQACAACAAAIABAABAAAEAAgAAgAACAAAABQAAAAAEAAoAAAAACAAQAAQAABAAIAAIAAAgAEAAEAAAQACAACAAAIABAABAAAEAAgAAAABAAIABc5dEuo/jylXDw3b749OnpzMD1xY3e7qUHk38u/947ffFbL14KhU90GjtuHbtjHb7S1y8Ek2/ejC58NJoavTJ/+9Cxs5K8Th8MJ8efORfIOHmMnz4bWH/temT1Z0PJ8Quz6312GV/RMbk2JJ8BAgAEAAFga23tvsrb3tjsfLzoye+UJvdLFaNSrWarGh6VSnV9d7+ytLG1P7qQKHre9sTm5M9rtTF84rQ/K/GTyu0NlCvVpPqrl6sOeJQrldhqesvz2Cl/wd5BZey/N5CYlOe6X64E1FPfccL4qs/R7fXC/vDLl0MhAgAEAAFgC/Lt/MOR1FhwfadXTdIpqyedldSW54e98Rknx8AjXcbWjaUNb267NKH+WntVBz9K5Ur4x/2JKbuNsZw9SWR3+9VEulF19qPgWdn0Ovn9TgCAAHC4b1+L+JLZ3QH1d83b4xtoNWmsbXtPdkeXHXPGpMNXvjx/u08990S1tR6V9on0kB3GWOJwa68822LjW5XgJgBAABAAlnruQjARvr3TK1/27Ho2Wg6O8ruuncdRzprslSor1RZ9VCrVzLPnAmvNGt9XroYDmcLecLWFH/IeIgBAABAAlvw2PRcv9qi/25ZDfjPd7F3d9Mhvvna7IDKd3xusuuAhE3Azxlhed/XH77f6+MpZryfP+DcIABAABIBpelY2vXIRnhMPknIholzdbYdxfP5iMLa7X16suughZ4ysGt/jncbuwdkp1zzkrhACAAQAAWDGxWnbydyd3/kd/5Bv3XKxXbPG8vve2KyKqHTVZY+Px9IjVoyv/NxQ3C3fctv4BjLbXgIABAABoJXce76zX55vpYOlXAz21JnAbavH8ucjqdGqQ2430/2YjhR6rHivliuVqBvHd3uvPEcAgAAgALR5qyc2f3APess99ksV/wsXQ3Er75ZQf2yu6tJHfHO33+xbKFWoLrh1fOViSwIABAABoIUsQiNfLFr94qnXuyOG2WMpZxtK5Uqo6uLHcCDnMXOMW+UnqnofhZ3SFAEAAoAAaNgvx9Ny21TFFd+cqtXsu33xWTNXnMurg3PV5Y+fDiYnzBrj0WCux+3ju5Tc8hAAIAAIgIac7I4syxcKlx0/d97qiS2ZMZ63ogXXT05yssWsay5knwi3xOphDzljRwCAACAA6iabubj4Iqp53cuqykVpVYesl2DmYzll3rdTufjN7eO7W6osH+809ggAEAAEQN33Trvx9qlPPy7NrWu9UM1t96Lf77FfrhhyG6kZ79n2ibUhTq5Ud+WsHSsBggAgAOoW2djpc/uRVDaw0TWe37oWMar2XSbZqkdO7iQx69qKg1383Pyo9Po2PU69y4gAAAFgA6em1garPO48Hu0y8jrGVLZsdfM45ndK09+4GIqZ9Z69vrjh6rMrKlYjPx5ITLMdMAgAAqChU//yzZep/+7jZHdkodExlQ2I3Pjtv1Kp3t7c2p9Uk/Ngm8nvW5f+9r9V3C3PzcYKfY+f9hedvsIoAQACoMnkFKJFk0NGFoOZiuR75NubLA0r+8Ur04eYkn/vxtKGV66ml/9e/X/WzHye6s9r+Gpq2drXrJ8oZCnjIX/O88FwcuwhY2eZHykvXDLv2/79dqKsmnDlv+xzkd0ujcl77Vfj6WG7jK947Xpk9ViHr9xKG4sRACAAmryzn8mb++SXk1ued3rjt9o0HbzU/6ekDojj/sz2TfX/z+p+wt+8El5p9DneLu6PaJ2YqtXNczPOu83LLDeXN7yaX/byUnLLa9bFiiAAQADYzny8aNa3/z1fetsrtxWavPFLIra526vr22C5Um14aeDHTvllDQVtKyjKKfWvnw+mmDB+I7ddmtB4ViWqAnWOcSUAQAC4JgBkS9qqCUv9yj3J6lt0wOId9mbkdrNGn3syt9fwbYDtE2ltt6btlSq+E53GLpPFvWetZGg0DfHOa9fNXwoaBAAIAFtZSOj/9p8p7A3LN+Bm/H1kpbmtvfJMIxdYvX49stjo8xgL5Xt0zf/fvRldYqK415s3o9o2/Bn0Z72MKQEAAsB1AVAqV4I6J39jbdureyW9enaEq/f39+6lDS33U8s46BjPuXixh0nisz4avbOlcuNf/ffLC20tdlEdAQACgAA46ta02h5y5bRdDqbHOnwlmTxruS4gmdvTdoGdnAXRMaY/7I3PMEl81rXF21ru/5cr/RlPAgAEgOsCQOfuafvlil9+l7Xb3/GD4eS43Hr4kNu+Uhdm1/t1nrnQdH96qVk/pdid3Eaq4337i7H0MONJAIAAcF0A7OyX53UFwNuemG2voH72XCAtt4zJvfMH6weU5F767HZpXL4BPn7an9P9Z5YrlZiGi/9WmSDuL7iuZ3+F5y8E44wnAQACwFUBoHMRlbX83pCTDjiyfrzZf0a5Uk00fCfFfnmRCcLcDZZUHK4xngQACABXBUD3krZFVPZfuWrt7X5OIBeX6bgD4ESnscN4fpacudHx5v1wJDXGeBIAIABcFQCyQI+OA6hcbc9BzLxVAN/siS0wnp91Q1PAjofyXARIAIAAcFcAyGl7HQdQWe+eg9j9fqPe1nKKejiQ8zCen/XL8bSWuywKO6UpxpMAAAHgqgDY2ivP6lg11+xlfp1qMqxtIaDCi5dCYcb0XnLRqa4LWM/PrPczpgQACADXBEC5UolykZp5zt7K9OuaoAq7pelmL65kNxKeui5ilU2W5KJYxpUAAAHgigCQRdAaPXCuF/e5h/oBnj4bkN0VS7oiQH5SeLTLKDK296y1MKtrfGXdBs60EAAgAFo+AA4mp4Yf/sw2a6gfQn5f1rnSoizbLFsqM7Z3yfURmrexKMp6EZxtIQBAALRsALzeHVnRcbQc4wrqQ3lXN83YZrmc3ylNyjLHciHcC5dCka+dD6atYLdVCeX2UxPG984CTLKXg6wO+a1rEcOq8X3yjH+DAAAIAEdcQNW7uskZgEOoyTlabb1Hfr9cCcjZjWRud0Dux5f3U7O+Ne+XGt/+2WaPHbk+Ry7SlTt1VlJbnp+PpEZbeT0IAgAEAAHQkoq75VtVFzzKlWpSlue1erLSuZ+FzR+FTGFvSM5KyJbXBAAIAAKAALA5+c2+6rKHxMDVhdu9siOj2eMrP0tUKtW0y4Z4ez5e9Nhx8y0CAAQAAQATVgV02mOvVPF9NJoadcqqgE57qPBZV59Bz/FOY5cAAAFAABAANvTtaxGfzlsCHXfueqc09fzFYMzMzZ3kugS3jq/sbPmj/sQ0AQACgAAgAFp49zoHf1tNf98bmzVrfNsn1oaq7n7sy5kQAgAEAAFAANjM46f9Obm9zOWT1M6F2XXT9o4Irbs7suQhC0Yd7zT2CAAQAAQAAWAjL10OheV3W7dPUguJoikbHMnEJ8smu318ZQycdIEgAQACgABwhXf74jJB7bl9kur3ZU2JAFnlUn4Td/v4bm7tj7Z1+MoEAAgAAoAAsBHZQrmqaSMbJ1+79sFwcsysiy5lgx/OtBQ9BAAIAAKAALCZjsk7F60VXX1hYLWaffVq2DBpmWB/ycV3BnzykF0pCQAQAAQAAWAz370ZXSxXqglXnwZQk7RZewzI2vqyb4LLG2D7ZHd0mQAAAUAAEAA28/XzwaRsRevmGWoibN6mUrJGQCCz7XXz+Mo6DAQACAACgACwIVnJTcbSxXcI5J85F8iYOcZyvcFuqbLs1gj4ewtWZCQAQAAQAGhgrYDZWKHHjdcGyPa7Zo+vXBUvm+mUK5WY28ZX1qCwYm8GAgAEAAGARn4WuBBMyhXcLruIbe/ly6GQFeMruxV6Vja9W7vlGfXnlt0ywLJBEwEAAoAAIAAc4lvXIsZIINezvVeerbb4rYMrqS3Lb1uTnx7ktsyDDZu2Wnl898sVgwAAAeDyAHirJzav44Bi1mIuuL9HuoxtWU3wnb74rdPTmYEBI+tZTBY9K+ktrxVSub3BUrkSNCtEZAGfZo6vnCJ/7kIw8T0VyL8aTw/3rGx65+LFHqvGV/aL2NkvL6ih2DUrAl65Gg4QACAAXBwAL1wKRXUcTJyy0Aj0kmVm2yfSQ2b8lv56d2SFi0KNXYmQ/E5pSvf4DvntF+0EAAgAiw8wOr7FJbK7/UyI7r5oUfcGPOMh824JdJq2dl/l5vKGV+dFoXLdAwEAAsDFASB03HJm9/uLYY3RYK5H1wQlp8AZ0/v+ZLevaYjLz54LrBEAIABcHAA67omWiLDrrUWw9rdzjYsZVZy2na0VDm4Pbck1AQgAEAAWy26XxnQcTH7cn+AsAO5swCNf4HW8p75xMRRjTD/7s53cy9+KtwMSACAALBbZ2Olz6q1bsCcVleM63lM/8MZnGM/Pkrs+dIzvZNhe11kQACAALDYVyWs5pViuVOPy7YQDNGY0nabunFwbZDw/S8626Rjf4Po2ZwBAALg5AN7pjd/S9Zti7+omZwFQ/XgsPaLl/eTj/fSguy503L0jix4RACAAXBwAsi56pVLNaLlqq1Jdl4OTrW+pUn9f2X5XFi+ajxc98jvoewOJqafPBtaZXPQ42R3RstmOnJ1iPB9w946avxu+e2e3NE0AgABwcQDovA5AHqtpe14LID9PyGp56sCZfdCt0fKbqKyyxwTTmHMzmX4d76UbSxssMf2AraN1jO9afm+IAAAB4PIA+GgsNVLV+JCd1uz095PNZQ6WVj3SMrTc0dAYiUAd7yP5KYHxvM/ndTQ12oqxTgCAAGjS2vJyRlBjA+zIRkN2+Lt9OJySK9LzNf2UUa1uvnApFGGyqY+utQDevBllMaD7uBXVc5GlbC5FAIAAcHkAiExhb1jnWQA1iW78dDA50cy/04XZ9cF6V06TSYyFaJp7Nulr54MpxvReMiY6fv8/OFPXRwCAACAAtF25/ds7j8p+601YO706HMg1fF0D69HX5skz/o1ypZrU9N7ZlQs2Gdd7rRf2tYX6TwYTkwQACAAC4A7ZIMSMrUfloGXV9qPfuRFdKe7qOQXNevS1XWSZzu8N6nrP5LZLE4zrveSiSI0fy+3HTvkLBAAIAALgju97Y7NV8x77svCIWcu7yoV+gcy27EhX1vicy+pbbYHJ53Bv9sQWdC1P+8lDdr9jbO965lwgozOu5LFR3B+129+TAAAB0PxrAYaqJj/km7WcXpf78etdN0BNzJvq2/7imPr/7O5Xlsx6rj8fSXFHwH3ITnJyNbovve3VuEPdrx/PXwy6eh8A+Xb+Tl/81pA/59G1Toed9wEgAEAA2ICcqjfjgP6wNUn2yxW/XHj3MPLvab5j4dDHewOJGTO+0cnkKesOyGpsR/l720m5UomZHIiLDd7VsvVuX3y6z5f1JLK7/eo5zzppfA/OppRMHOKKCrg0AQACgAD4DH9m21vl8ck3UW1XostFbbICoSw6xMg++DHWwMWXcmGbCpQoo/jgR3G3fMuOxx0CAASADciyuGZ/y3PKsbJN05i+eCkU3toz5yLLVnrI7aNyN0Gt43ui09iRa0yqGtbIb/XH+0PJCQIABAAB8EBv3IjK7+pFNx8o45u7/ZqukN8z8zqFVnoMGtm6VqdbSupZfbDVH7JVs12POQQACAAbaZ9YG3LxN6q8rLlup5XbWv0hZ53q2YvhYEfLMiP48CE+2R1dJgBAABAARyIXqrnxSClXX+sYv29fi/iq1l9U6chHPSvTtbX7KqVyJcToPfwR29zts/OxhgAAAWC37XPVAVb3Pch2fyRzuwO6lgH2rm5yavqIp6brWfnv4K4VHg89u1JN2H1pZQIABIANPdplFGXvcDccKJdTWx6JHl1jp7519TP9HP6QWztlXYd6xvf0dGaAEXzoY0sWa7L7cYYAAAFg46Vew7d3elv4IFmp9wK0w+heIa/lBr1a3fjmlfqXiebiv4c/JJKccIwhAEAA2Fzv3VPapRY7Ru6dvZXpN2O81LdbgynowV/+G92QZiVFABz2mI0VHLOhFQEAAsABfjaUHFff3DZb5BhZMPO+aFmJjmno/uMuO1A2Or7nZjKM7wMe8/Gi1p+zCAAQAATAJxdf+fdLzv52u7m1P2b2LoV9d1f+43HPBWmV6MnuiJbb0b51LcIZls8+tiWMnHZMIQBAADjruoA9z8qmt1KprjvsorPAz0dSluyGJvddV7lH/TdXo+2VZ2QjIZ3LK7Nq5afjqpp82xObc+LxhAAAAeBAsqOf/NZYtf8a9zm50E/XLX5HtcyFanfm/rl4sUeW7NU9vvITDsNbrcrtus9dCCacehwhAEAAOJgcfCIbO302/Ma7LXcwNGsHNFndzsUXA5Zk7M2emAIu3sCqsFOaeqsnNu/04wcBAAKgBbxwKRSR374P1g5o1h0DxbX83pDcAiV7qzd7TOS36t1SZdlF89JeprA3LCshWjG+8hqncu5asGpnvzxv1U9ZBAAIAAKgrp0FL86t960X94ct+IkgryaBAdnDQBYvsuNaCgf7ArTq0sA5mYQlup447c82Z/+K9FClUl1r1ajK75Qm5bqbb1wMxVrtWEEAgABoYTIpy4pkcvtX99KGVyZDOT0sV+PLt+NSuRKRK8QfRP65/Hsbxf1ROeU7Gsz1XJhd739vIDEli8nIBOuEcZCtgWXde2Nt2yvf4g77O9uRLG4kS/fKzz3yGl5f3OhVr8Gk1ddWPIisKvjL8fSwXJeS2y5NPOx9ZTdykaqc1pdbSBcSRY8sJ/2LsfRwvaslEgAgAAgAACAAQAAQAABAAIAAIAAAgAAAAUAAAAABAAKAAAAAAgAEAAEAAAQACAACAAAIABAABAAAEAAgAAgAACAAQAAQAABAAIAAAAAQACAAAIAAAAgAACAAQAAQAABAAIAAIAAAgAAAAUAAAAABAAKAAAAAAgAEgK0C4GU+7ABwr+VoIcOkh1YPgL/jww4A9yhFUlslJj20egD8NR92APiNtg5fkgkPbgiAP+cDDwC/8UiXsciEBzcEwD9RdvjQA8BdL18K9THhoeUD4CACLvKhB4C7Ls9kRpjw4JYA+AofegC4oxBMFreZ8OCWAPjnSpEPPgC3e+FiqJ/JDq4JgIMIeIkPPwCX250J5sJMdnBbAPy+ssYBAIBbvXYt7GGig+sC4CAC/g8HAQAuvfc/sRIrrDPRwZUBcBAB3+NgAMBltoZWNheY5OD2APg9pZsDAgC3OD2RHmCCg+sD4FOLA53mwACgxW13jae56h8EwG9FwOeUFzlAAGjV9f4HVzbmmNhAADw4BP6zMsUBA0CL2H/lSrh3KZpPM6mBADja2YD/qSxy8ADg1Hv8v34+ODQVyPqZzEAA1BcDf6I8qfQrSaXCgQWAHX/fP9ZhhJ+/EByUi/yMeCHHJAYCQG8Q/EPlj5R/p/x73Ouj4eT/GPVtLgOwxoSRXV3lfn4QAGg29ab5Sz44AEAAEAAEAACAACAACAAAAAFAABAAAAACAAQAAIAAAAEAACAAQAAAAAgAEAAAAAIABAAAgAAAAQAAIABAAAAACAAQAAAAAgAEAACAAAABAAAEAAEAAgAACAACAAQAABAABAAIAAAgAAgAAoAAAAACgAAgAAAABAABQAAAAAgAAoAAAAAQAEyeBAAAgAAAAQAAIABAAAAACAAQAAAAAgAEAACAAAABAAAgAEAAAAAIABAAAAACAAQAAIAAAAEAACAAQAAAAAFAAIAAAAACgAAAAQAABAABAAIAAAgAAoAAAAAQAAQAAQAAIAAIAAIAAEAAEAAEAACAAAABAAAgAEAAAAAIABAAAAACAAQAAIAAAAEAACAAQAAAAAgAEAAAAAIABAAAgAAAAQAAIABAAAAAAUAAgAAAAAKAAAABAAAEAAEAAgAACAACgAAAABAABAABAAAgAAgAAgAAQAAQAAQAAIAAAAEAACAAQAAAAAgAEAAAAAIABAAAgAAAAQArhZLF3WCyuHOYSGqrzFg54rU89HWUf844EQAEAAgAFzHihdyZybXBN65HPN+4EBx44rR/6ninEfhquy+vVI+g8Pgp/8zr1yKe89NrQ4ypPQwsb8x972a05+mzgbG2Dt/aEV/LnWMdvuhjp/yzXz8fHPr21bD350NJ70I4H2dMCQACgAAgAFrAUjSf/ng42SuTgzro7x5xcjiSp874x5kwmkd9m98+qWJOvRZlja9r5dEuY/5db6xn0p81GGcCgAAgAOAws6FcRL7la54c7id7ZSYzyphb//qe6DR8Jr+2VTlD4F28Pc2YEwAEAAEAm1uNFW4ffCvcNXty+JRNzgRYR67FePyU/5aFr2/1mbOB0Qkju8r4EwAEAAEAG/pwMOGVydjKieFTPwdMqOdQ4XUw30/6455mvMZyNumbl0O9gUSxwOtAABAABABsctX3ixdD/U2aFH7t4nRmmNfDXL54QQJvp5mv8yOdxrL8BMHrQQAQAAQAmmgxkk8+dsqYa/bkL97ojnh4Tcx1c/72pB1e67Z237qHawMIAAKAAEBzjKxuLrZ1+JJ2mBCE3FbI62KuH/c17fT//ez9YiTVy+tCABAABAAsNB/Ox9Tkn7bRZHDnYkBeG3M9f/fODju95uXLM5kRXhsCgAAgAGCBQKJYfKTLWLTZRFA93mEEeX3MJQv22O11l4WkJvxZH68PAcDkSQDAXJXnzgcHbTgJ3Pl2yutjrvaxVJ8dX3sVfyFfrLDBa0QAgACASWSFNjtOAOInfXEuAjTZuJFdtevrf3ArKK8TAQACAGb87q8OtNs2nQC2pwO5AK+T6YsAleQ2PLtGwNnJtUFeJwIABAA0e+lSqM+uB/73+xN8+7fIqG9TAmDPrj8FyM6SvE4EAAgA6D31W7bjQV+WpWWrYGu9Y+Ofgn42QAwSACAAoI2sxW7Hg71sOMTFX83ZD+C9u2sC7NjtPSGLBBnxQpbXiQAAAYAGyS1WtjvId/jS56fXhnh9mn9myI63hP6Un4QIABAAsP2V/zuPdhkLL1wM9r90KXQo2WWwazzdP+XPGpzyt5eFSD5x6VZm5O2eaI9cK3LY6/ii+udPnvZPmrlxlPwsxOtCAIAAQINMWOu/8uqVsFeWEg6ninuMsXvNBHOhDwYS8lNCQfN7rLQSK6wzxgQACAA0sNmPTNi6DszHOnyx7rl17tfGPWZDubB8a9cZAR1jqT7GlgAAAYA6fTyc7NV5ixYXZ+GwCwt1rjL5tXMBtocmAEAAoF4vXgz169q0xbt4m99lcSi5o0PXDpPq/7PGmBIAIABQpyfP+Cd0HIzlAj7GE0dxbXZ9TNe1JuHU1j5jSgCAAEAdTnQaWtZ+l2WEGU/U8L4zdLzvFsL5OONJAIAAQB3a2n0bGhZmyTCWqIXcFqojAAZXNuYYTwIABABqFEwWtWz88/SZwBjjiVq8f/fWwIbfexenM1wISACAAECtDnb/a/gg/Aa//6NGN+bXtVx78ouRZC/jSQCAAEDt92ZHdRyEv3sjSgCgJp6F29M63nsfDRMABAAIABAAIABAAIAAAAEAAgAEAAgAEAAgAEAAgAAAAQACAAQACAACgAAAAQACAAQAAUAAgAAAAQACgAAgAEAAgAAAAUAAEAAgAEAAgAAgAAgAEAAEAAEAAoAAAAgAAoAAAAFAAAAEAAFAAIAAIAAAAoAAIAAIAAKAAAABQAAQAAQAAQACAAQAAUAAEAAEAAgAEAAEAAFAABAAIABAABAABAAIABAAIAAIAAIABAAIABAAIABAAIAAAAEAAgAEAAgAEAAgAEAAgAAAAQACAAQAAUAAgAAAAQACgAAgAEAAgAAAAUAAEAAgAEAAgABotQCI6DgIv3kj2sN4oqYAWNQWAF7GkwAAAYAaeTUdhN/1xggA1GRkdXNRx3vvezeJTwIABABq9pP+uEfHQfhXo6k+xhO1WIzkkzree0+fCYwxngQACADU6LnzwUEdB+Frs+schFGTSGqrpN475Ubfe23tvgzjSQCAAEAN/Ilivq3Dl9YRAHI6lzFFrdT7b03H+29wZWOO8WyqVwgAEAAO8s3LoV4dB1+xFMmnGFPU6pEuY1nH++9Ep+ELJovbjClnAEAA4CGuz62P65r8j3X4Yowp6vGKxgh943qEW1EJABAAOMzF6cxwW7tvXdeB99UrYW7DQl0u3coM63ofyvUEb/dEe8Kp4h5jSwCAAMCn+OKFzRcuhvo1HnDvUAfxEcYXdV6HUlDvoV2d78dHuozFcSO7wvgSACAA3KpyK5gLnplMD77RHfE8cdo/pQ6Oed2Tv7ITUAdxxhv1evK0f9KE9+X+o13GgvzE8PFwsnd4dXMhlCzuMt5cBAgCoCWFU1v77/XFP5nssyYcVD/jmbOBUcYejfhwMOG14r0qZxokCr59NexdjhbWGHvOAIAAaAkTRnZVTn1adCD9td6ljVuMPxoRSBSLci+/le9b+fPOT68NMf4EAAgAR7s8kxmRU/FWT/5y6pbxhw5y5srq9y97WBAAIAAcbSVWWNe1mEqtZB8BXgNoOgtQ0HlnSg0qNxduE7IEAAgA53n+QnCgGZO/XGfA+EOnHzfpLMCxDl9UVsXkNSAAQAA4xpQ/azTjgCkXGM4Ec2FeA+i9iLW499gp/2wz3tPvDyRYRIgAAAHgHF3j6f5mHCzPT3HxFMwxH87H2tp9t61+T79wMdjP+BMAIAAc4/VrEctPmb52lVX/YK4rM5lR+W3eyvf18U7DYOwJABAAjvHUGf+E1bdOhZLFHcYeZtO1TXUtywizhDABAALAlRupHNUH/FYKk436NmWHwG2LLwRkQysCAASAc8gSp024BmB3aGVznvGHSXsD5I93GgGr39dfOxcYZvwJABAAjiHrmzfptqmwbCzEa4BWua31HW+MBYEIABAAzhFJbZUfO+WfacYBk6um0Sp3tSg5ufuA14AAAAHgKNOBnJwu3WrCQbM84c/6eA2gZw2ArdLxDiPUjAD41Wiqj9eAAAAB4EiyiEkzDpzPXwgOMv7QoX0s1ZRv/8/y2z8BAALA6WRnsybsCcBZADj12//eDzyxHtlCm9eAAAAB0BIbA710KdSnQiDJtQDgt//7yj95xj8xsrq5yNgTACAAWtJiJJ+UFdW+3xPzPHM2MGpiFORZQAWNkNPwJr03tx4/5Z99/VrEK5Ex5c/65cJZxpwAAAHgOnK63ozNVthOFfUKJYu76j1U0LpiZYcvc3ZybTTMZG+lVwgAEAD2v3Ww9KPeeI8s6KPrgPvG9QirA6IuN+bXtS5n/dz54NBKtHCbseUMAAgAPIDc+qTroHuCjVRQp5PX9W1oJfsHMKYEAAgAHMHTZwJjug6+q7HCOmOKWj3aZSxoOu2f5j1IAIAAwBEthPNxuYhPxwF43MiuMKaola6LUy9OZ7ifnwAAAYBayB0COg7A3XPrE4wnalRR7519HXeicHU/AQACADX6oSfWoyMAOsfTrAeAmixHCxkd770nTvunGU8CAAQAanRtdl3LdQDv9cW5EwA1kZ+NdLz3TnIXCgEAAgC1mw3lwjoOwm/eiPYwnqiFZ/H2tI733t8PJb2MJwEAAgC1B0BUx0H4uzeifAtDbQGwoCcAPhpO9jKeBAAIABAAIABAAIAAAAEAAgAEAAgAEAAgAEAAgAAAAQACAAQACAACgAAAAQACAAQAAUAAgAAAAQACgAAgAEAAgAAAAUAA2CsAepc2Zl65HOp97JR/VnaGO97p8z952j/50/64ZzFSSFn5XJYihfSvxlJ937wS7j3eaawe6/DFnrsQHHx/IOEZN7KrVj6XULK4d/lWZuTNGxHPE6eMW23tvrWnzvgn3u6J9lyfXR9v5hr6BAABQAAQAHx4CIC6TQZyxmNdxtyhW8W2+7Zfvxb2BJLFopnPJZLeqshkpP687CHPp/KtKxGvES/kzB6bwZWNuUc6jUOX25VgmvBbGyUEAAFAAIAAIAB07GNw5O2MH+kylmUDGjOei5xleFx9wz76/vVGwrN4e8qssXn9esSj/pzyEZ/P3rveWA8BAAIABAABYPsAWIkW1r/a4Vuv9XnKqXgzns/XzgaGa30uxzp8qdVYcUP3c5GfH+p5DSWoCAAQACAACABbB8A3LgQH6n2u8pu4zudybio9WO9zeflysE/39QdtHb6Nep6LXKvgTxQKBAAIABAABIAtA8Db4C5yx9qNuK6L3+QiO7nosJHnI7/V6xqbly6F+hp5Lm9ZuKsjAUAAEAAEAB8eAqAmcgV7o893wp/16XguI6ubi40+F52/v6sYiTXyXB49ZcwTACAAQAAQALYMgGfOBMYafb6d46l+Hc/lYzX5NPpcvnYuMKzl9H+0sKbhtdyRsxoEAAgAEAAEgO0CoK3dl2n0+b52NezV8VzkXv9Gn4t8a9fxXK7OrI/qeC3lrAYBAAIABAABYL8AaPA0953n2x3R8nwlJBp9Lsc7jICO53Jz4fakjtdS188jBAABQACAACAAmn7L3W87Pbk20Mxb7sy4NVFuKWz4bES7rxhObZUIABAAIAAIANsFwA88sYYvApwK5LR86x4zssuNPpcf98W1jd2xDiPcyHORlQG5CBAEAAgAAsCWATDiu3PlfanuU+6dxqos26vjuYRTxf3jnb5AA2O3p3Mp3oMVAG0RIwQAAUAAgAAgALT7TnfdE11paHVzQfdGRDUsu3uP7/fove8+kCgU6j0L8GiXsSBBQwCAAAABQADYNgCCyeL2iQ6fUfvzjJiy0M3Ja+Gag+REp7Fsxi13sseAbDpU4/PZHTOyKywFDAIABAABYPvNgGaCudDjp/1HnURKcuV/OFncNStIDiLgSGcCZKviuXA+atbYnJpYGzjqksDHOoyk3ELIZkAgAEAAEACO2Q74zha8Q0nvVzt8uQfvAuhfGtZ82v9BZFnfE13G6iFjtfnLkXSfFc9Fdih82B0TL14K9fnihc1mvHYEAAFAABAAfHiaaD6cj+k4CH9H0331jfz27V3amH6/P+554UKw/1tXIl65RW/cyK7qWvf/6BcGbpXkdLpM9K9eCXlfuBjqf38g4eld2rgVSBaLVo/NdDAXODuZHpTX6LnzwaG3b0Z7zk9nhsw8A2HlugUfEwAEAAgA1M6fKBZ0HIR1LWcL91Df3L063nvnptaGGE8CAAQA6qAOovlGD8LHOnxxxhI1LaN8OdSrIwD6ljZmGE8CAAQA6nC80wjoOBAvRwtrjCeO6pEuY1HH+242lAszngQACADU4YnT/ikdB+KfWLiIDJxt1Le51MhiTp8md2AwpgQACADU4RsXggM6DsTK1rSmJXbRukLJ4u6JTmNFx3uurd23wZgSACAAUKf31Dd3TQEga8nPWH3VPZzlzRvRHl3vN1lPgTElAEAAoN7bxNS3dl0HZPHEaf+0LNLD2OK37zh59cqd7ZMrut5rHwwk+NmJAAABgAYvBDR0RoBS+GAw4Q2ogz7j626R1Fape2594liHL6z5PSYXAEYYYwIABAAaICv56T44f7IEr/ze+/KlUN9P+uOe9wcS3sN0jKX7DxbvKfG62HPhqAvTa8M/U9+8H/Jaek5ej3geP+W/pd4DRTPeW490Gcu8JgQACAA0qH95Y9akAKhX8ckz/gmJAV6f5vLFChsScG3tvoyd3iNva95JEQQACAC3qui6L1uz3Xe9sZ5wamuf18h6V2Yyo20dvqQN3xfbcjaC14gAAAEADW7Mr0/Y8EB/x/MXggO8RtbqGEv12fX98N0m7z0BAgAEQMt56ox/3K4H/bOTa4O8Rtb91q/GPGvH90Fbu+92s3YwBAEAAqDVV2ir2PTAv74Uzad5ncwn11/YNQTf59Y/AgAEAMzxsqZNWszw4WDCy2tkrlvBXNCur/+JTsOQlQR5nQgAEAAwgayt/miXMWfHCeClS6E+XiNznZ5ID9j0DNAGS00TAEyeBABMthTJp2SLXxt+A+S2QJO90R3x2DAASnKRKq8PAcDkSQDAAiOrm4tmLeLSgDyvjbmeOx8ctFsAfMBPPwQAAUAAwFqXZzIjssufXSaCx075Z3ldzPUDT6zHTpP/G9zyRwAQAAQAmncmwC4/B3z7aphvghYs/mOTyX/vFyOpXl4TAoAAIADQ5GsC5Nt3syeFzvF0P6+Hya91NJ9u9q2gsuywd/H2LV4PAoAAIABgA6Fkceebd28RrDTpAsAVbgGzxuvXmnch4KNdxjy7/BEABAABABsaWtlceOK0f8rq08GySBHjb9mtoFvHO42Ala/xsQ4jLLcgyr4UvAYEAAFAAMDGrs5mRuW2PAsmhzKrv1lvYHljzorlgOV0/wfq9eXsDgFAABAAcJBIaqss92fLxXnHOnwx3ZPD8Q4j2Lu0wW/BzdsTIPHUGf+kCRN/VjZ4km/8/kSxwFgTAAQAAYAWuGPg+z2xnmfOBkYf6TKWZf3+OiaHTVmL/h1vrCeQKBYZ1+b75Uhq6NlzgbG2Dl+qnrUbjncaxpOn/ZOvqVDsnlufCKeKe4wrAUAAEAB8eFxw8eBsKBceXNmYk9PKhzlY6pXfgG1sMZJPPex1FFP+rKG+3bNwEwFAAIAAAAACgAAAAQAABAABQAAAAAgAAoAAAAAQAAQAAQAAIAAIAAIAAEAAgAAAABAAIAAAAAQACAAAAAEAAgAAQACAAAAAEAAgAAAABAAIAAAAAQACAABAAIAAAAAQACAAAIAAIABAAAAAAUAAgAAAAAKAAAABAAAEAAFAAAAACAACgAAAABAABAABAAAgAAgAAgAAQACAAAAAEAAgAAAABAAIAAAAAQACAABAAIAAAAAQACAAAAAEAAgAAAABAAIAAEAAgAAAABAAIAAAgAAgAEAAAAABQADgkAD4Mh8cAHC8lwkA1BoAX+SDAwCO93cEAGoNgM/zwQEAx/trAgD1RECeDw8AONqfEwCoJwBW+PAAgKP9SwIA9QSAhw8PADhWSfk9AgD1BMCLfIAAwLH6rZwzmDhbKwD+jA8QADjWYwQAGomAEB8iAHCkf0MAoJEAeJMPEQA4zqLV8wWTJksCAwCa7xUCADoiYIgPEwA4RlH5FwQAdATAX/CBAgDHeLkZcwUTZutGwHk+VABgexnlnxIA0BkAX1LKfLgAwNaONWueYLJs7Qg4yYcLAGxrUvlHBADMCIDfVa7zIQMA20kq/6qZcwQTZetHwB8oPj5sAGAbO8p/bPb8wCTpjgj4UyXHhw4AbOF/2WFuYIJ01wJB63zwAKBp5MLs43aZF5gc3RUBf6zM8yEEAMtllf9mpzmBidF9EfB55SwfRgCwzKryJ3abD5gU3RkBn1OeUvJ8MAHANBXlY+Wf2XEuYEJ0dwj8ofIDZZ8PKgBo1a38BzvPAUyEkBD4gtLByoEAoGVxn79ywrGfCRC/fUbgK8olZZcPMgAcybjyrPIlJx3zmfhw2MWCf6O8ovxMuabMRu9uXMEHHoDbFJQVxav8QnlD+X/Kv3bqcf7/AxBKy8xiM7VbAAAAAElFTkSuQmCC;" vertex="1" parent="1">
          <mxGeometry x="348" y="324" width="32" height="32" as="geometry" />
        </mxCell>
        <mxCell id="HkrrA9YoYlj2VY17bmsr-14" value="" style="shape=image;verticalLabelPosition=bottom;labelBackgroundColor=default;verticalAlign=top;aspect=fixed;imageAspect=0;image=data:image/png,iVBORw0KGgoAAAANSUhEUgAAAgAAAAIACAYAAAD0eNT6AAAABHNCSVQICAgIfAhkiAAAAAlwSFlzAAAOxAAADsQBlSsOGwAAABl0RVh0U29mdHdhcmUAd3d3Lmlua3NjYXBlLm9yZ5vuPBoAACAASURBVHic7N13fBTV2sDx3+ymE1IJLQkh9N6r9A4iCihKEWwo9oK93qv3evW9V8UuCoINRKkiKlIFAQHpgnQCoSsppLfdef8YVEBIm7M7u5vn+/msiGae80Cye545cwoIIYQQQgghhBBCCCGEEEIIIYQQQgghhBBCCCGEEEIIIYQQQgghhBBCCCGEEEIIIYQQQgghhBBCCCGEEEIIIYQQQgghhBBCCCGEEEIIIYQQQgghhBBCCCGEEEIIIYQQQgghhBBCCCGEEEIIIYQQQgghhBBCCCGEEJ5LszoBIYSwWCUg4dyrFlADiAZigKpAOBABBAIhQGXA7xJx0oBCIAvIAVKBFOB34AxwCjgMJANHgHQX/XmEKBUpAIQQFUVVoBXQBGh83quKRfmkA3uB3cCec79uxygOhHA5KQCEEL4oFOgMdATannvFW5pR6f0ObAY2ARuBtRijCUIoJQWAEMIXhAC9gJ5AN4wO/1LD9N7ICewEVgGrgRVIQSAUkAJACOGtGgFXAgMxOv0ga9NxGwfwE/Ad8C3GYwPd0oyEEEIIF2sK/BPYhdHpycuYVPgG0BW5qRNCCOFDEoHnMCbMWd3ZevorGXgNaFmuv2khhBDCYqHAbRjPvZ1Y37F642sLcD/GkkYhhBDCozUG3gLOYn0H6iuvPOAzjBURQgghhMfQgKuA5cjdvqtfG4GxQECpvjNCCCGEC/gD4zCWuFndMVa01ymMyZThJX2ThBBCCFUCgXuBo1jfEVb01+8YEywjiv2OCSGEECb8ccd/EOs7Pnld+MoAXgbCLvvdE0IIIcpIA64HDmB9Ryev4l8nMUZnZI6AEEIIU9pjbF9rdccmr7K99gEjLvH9FD5Edo0SQrhCLPAKcAM+8jkTFhaG3c+PiPAI7HY7Dofjgv9fVFRERmYGZ9N96pTfJcBDwK9WJyLU84k3phDCY/hhDCG/AFS2OJdSCQ0NJbFOXRISEqidmEjt2onExccTHR1NlZgYYqrEEBVdtr10MjIyyMzM4NTJk5w+fZqTJ05w6tRJDiclsX//fvbv30daqtec51METMJYNZBjbSpCJSkAhBCqdAQmA62sTuRy4uLi6dCxI81btKRps2Y0bdaM2rUT0TT3fxSmpqSwZ89utm/bxratW9i2bRt7dv9KYWGh23MppSTgLuB7qxMRakgBIIQwKwh4HngYsFucy580TaN5i5b07NWLTp2voEPHjtSsGWt1WsXKy8vj540b+HH1atb8uIqNGzaQk+NxN90zMLYY9pohDHFpUgAIIczoAEwHmlidCEBM1aoMGnQlvfv2o1ev3sRUrWp1SqYUFBSwbu1aFn/3DYu//ZZ9+/ZandIfTmCc1bDY6kRE+UkBIIQoDzvwzLmXn5WJJCbWYcg113D1NUPp1PkKbDablem41MGDB1i0cCGzv/yCLZs3WZ2ODrwPPAJkW5yLKAcpAIQQZRWHMQzc3aoEoqKjGXH9DYy5cSzt2newKg1LHTx4gC9nzWL2F7PYs2e3lanswVjtscPKJETZSQEghCiLq4FpWHDErM1mo9+AAdx62+0MGDiIgADZq+YP69auYdrUKcybO4e8vDwrUsgFHgCmWNG4KB8pAIQQpWEH/gU8gZs/N6Kioxl3083cPuFOEhPruLNpr5OelsaMzz7lvXfe5tChg1akMBO4A3kk4BWkABBClCQa44O9vzsbrV07kYmPPMqYseMIDg52Z9Nez+Fw8NWC+bz+2qts+nmju5vfDgwFDru7YVE2UgAIIYrTElgA1HZXg42bNOWRxx5nxPU34Odn6fxCn7Dmx9W8/J9/s2L5cnc2ewbj/IeV7mxUlI0UAEKIy7kSmIWbdvSrV68+z/7zea4bcb0lG/P4ujU/ruaFf/6DNT+udleTRRi7Qr7vrgZF2ci7TAhxKfcAb+CGjX1q1ozlqWeeZexNN+Pv7+/q5iq85cuW8ezTT7Jt6xZ3Nfky8BTGskHhQaQAEEKcTwP+h7Grn0sFBwfz0MOPMPGRxwgJCXF1c+I8TqeTTz6azj//8Sy/nT7tjiZnArcABe5oTJSOx2zbKYSwnB/GEr+7XN3QkKuvYfb8BVx9zTC567eApmm0at2GW8ffjsPhYMvmTX873VCx5kAXYB5SBHgMGQEQQoCxn/8s4BpXNlKrVgJvvv0u/QcOdGUzoox+3bWTu++cwMYN613d1HqMuSVprm5IlExGAIQQIcAiYJCrGrDZbNxx5118/uUcmjRt6qpmRDnFVK3KuJtvISoqmnVr11BQ4LKb9DhgADAf2SvAcjICIETFFgJ8DfR2VQN16tTl/akf0qVrN1c1IRRKTj7C7bfewo+rV7mymd1AL8AtExDEpckIgBAVVzCwEOjjqgaGX3sdcxcspH6Dhq5qQigWHh7BjWPHERkZyaofVrpqbkAMcBUwBxkJsIyMAAhRMQVidP4u2d0vLCyM1996h5GjRrsivHCTrVs2c8u4sa48hngrRgEqcwIsIAWAEBWPHfgCuNYVwZu3aMnnX86mTp26rggv3CwzM5M7b7+N+fPmuqqJjRhFQJarGhCXJo8AhKhYNGAycKMrgl9/w0i+nDufatWquSK8sEBgYCDXXjeCGjVqsnTJ9zidTtVNxAKdMIpSl65FFBeSEQAhKpb/AE+qDurn58dL//c/7rnvftWhhQf5cfUqRo+8npQzZ1wR/jNgHLJjoNtIASBExXEHLtiXPSwsjM8+/5K+/fqpDi080KFDBxl+9RBXzQv4H/CYKwKLv5MCQIiKoTuwFAhQGbRGjZrM+2ohLVu1VhlWeLj0tDRGXn8tq1e5ZKngBOADVwQWF5ICQAjf1xD4CYhUGbR5i5bMX/g1NWvGqgxbYaSmpLBl82Z+/XUXe/bs5nDSIX777XfOnPmdvNxcMjIyAAgJCSEsPJzwsHBi42KpnViHxMQ6tGzZinbt2xMRqfTbWmr5+flMGH8rX34xS3XoAqAv8KPqwOJCUgAI4dsiMGZZ11cZtGOnzixYuIjwiAiVYX1aXl4eP6xYwTfffM26NWvYs2c3um7+cXf9+g3o3bcvgwYNpluPHgQHByvItnScTicP3HcPH05RfsP+O9ARSFIdWPxFCgAhfJcGLACuVhm0R8+ezJ73FaGhoSrD+iRd1/lh5Uo+nv4h3337DZmZmS5tLzQ0lKHDhjNm7E10694dm83m0vbA+DM+89QTTHr1FdWhtwOdgVzVgYVBCgAhfNeTGLP+lRkwaBAzZ812612mN8rJyWHa1ClMfvcdDh06aEkOdevW4/4HH+LGcTe55fv14r9e4MV/Pa867HTgVtVBhUH2ARDCN/XG+PBUdgvYu08fvpwzXzr/YuTm5vL2m28wdsxIvpo/j7Q06za4S0tLZfF33zLtwynYbDZat2mDn5+fy9rr3qMHRUVFrF2j9NF9a+AYxo6BQjEpAITwPVWBZUBlVQGv6NKVeV8tks6/GPPnzeX6a4cxb+4ccrI9Z3v7nJwcli9byqyZM6heo4ZLT2Ps2as3mZmZbFiv9Fjh/hinVcrBQYrJIwAhfIuGcbrfYFUB27Rtx7eLlxAWHq4qpE85fvwYd90xnmVLl1qdSqkMGDSIt955j7i4eJfE13WdB++/lynvT1YZdhfQHpkPoJSMAAjhW+4BHlQVrF69+ixeupzIqChVIX3K5zNncO2wa9j9669Wp1JqBw8c4OPp04iNi6d58xbK42uaxoCBg9i1cyd79+xRFbYqEAZ8pyqgkBEAIdwhCog/7xUH1MBYlx9x3q9h511z/uLuPx4kp2Nsk3oWyACOA78BJ4FTGOunp2Ec82tadJUq/PDjWurWracinE8pKiri+X88y6v/+6/VqZgyesyNvPXuZJc82snNzWXwwP6s/2mdqpA6cCWwWFXAik4KACHUiQDaAc2AxkAjoAlQxcqkyiM4OJhvv19Kx06drU7F4/x2+jQjr79OZcdmqQ4dOzFn3gKqxMQoj52akkLvHt1Ubht8AmiKUQwLk6QAEKJ87EAboCvGs8l2QD184D2laRqfzpzF8GuvszoVj5OcfIQhgwayf/8+q1NRKjGxDl998y316indLwqA/fv30b1LZ86mK+uzPwTGqwpWkXn9h5UQbtQCY3ldb4y99X1yVtzDjz7Gv158yeo0PM7evXu4auAAjh8/ZnUqLlG9Rg2+X7aC+vUbKI/9/Xffce2wq1UdJaxjrAxYpiJYRSYFgBCXFwD0wNhJbwiQYG06rte7Tx++WvQddrvMDz7fsWNH6dOjO0ePJludikvFxsaxZMVKEhPrKI/935df4p/PPaMqXBLQHPCc9ZZeSAoAIS5kB/oBo4FruHBink+rVSuBtes3El3F66YsuNRvp0/Tt1cPDhzYb3UqbpGYWIdVa9YpnxOg6zo3XDecRV8vVBXyJeApVcEqIikAhDC0BcYCI4FqFufidn5+fixbuYoOHTtZnYpHKSws5MoB/VTvbufxOl/RhW+/X0pgYKDSuGmpqXRs14Zjx46qCJePMQpQMSozF3D9SRFCeK4gYASwBtgEPEAF7PwBnnrmOen8L2Hig/dXuM4f4Kd1a3nogfuUx42MimL6J5+qesQUCLytIlBFJSMAoiKqh9HZj8VHJ/KVRZeu3Vi8dLk897/I5zNncNvN41zeTrXq1enZsxftO3SkQcNGJNZJJDoqmkrnTlvMzsoiJTWFpENJ7Nu7h40b1rNq1Q+cPnXK5bl9OnMW1143QnlcxQcHXQMoe65QkUgBICqSdsBjwHBkF0wAwiMi2Lh5K/HxtaxOxaMcP36Mdq1bqly6doGo6GhGjhrN6DE30qZtu3LF2LzpZ2bO+IwvZn1OakqK4gwN4RERbNi0hVq11M5/LSoqome3LmzZvElFuD0YjwKKVASrSKQAEBVBT+BZjOV74jzvvPc+t9wmS6ovdvXggS7Z2z82No4HJz7MLbeNJyQkREnM7Oxspn84lddfe5UTJ44riXm+gVdeybwFXyuP++uunXTp1IH8/HwV4SYAH6gIVJHIXZDwZR2BycB/gESLc/E43br34JVJr6Npch9wvrlzZivf4tff3587776HWbPn0rVbN/z9/ZXFDggIoEPHToy/YwL+/v5s3LAeh8OhLP6B/ftp3qIlDRs1UhYTIKZqVTRNY9UPK1WE6wi8j7EdtigleecLX9QMY4nQVVYn4qmCg4PZuGWb7PN/kdzcXNq0aMaRI4eVxWzQoCGfzvyc5i1aKotZnB3btzF29CiluxXGx9dix697lK8KKCoqomvnjuzYvk1FuKcxin1RSrIKQPiSKIxZwVuRzr9Yzzz3T+n8L+G9d95W2vkPHTacNes3uq3zB2jRshVr1m/k6muGKot59GgyH05RP8Lu5+fH62++pWoUaiJQWUWgikIeAQhf4AfcDczD2LlPCtti9B84kElvKPvQ9Rk5OTmMHTOKnGw1m8uNv2MC70+dRlBQkJJ4ZREYGMiwa6/j9OlTbN2yRUnMbdu2cvuEOwkICFAS7w9x8fEkHznMju3bzYYKwTglc435rCoG+aAU3q4tsBF4C2MEQBRjyNXXMHPWbGw2eetfbNrUKfz+229KYo2/YwJvvv2upUsr7XY7b787mVvH364k3m+nTzPzs0+VxLrYv//zMhGRkSV/YckmApVUBKoI5BZAeKtKwAsY6/k9fiSrUqVKJNROJKF2AvHxtYiPr0WNmjWJjIgkMiqSyKgoIiMi/7y7qhQair+/P4WFhWRnZXE24yw5OTnk5uSQnn6WnJxsUlNTOXI4iaRDhzh8+DCHDydx6uTJS7bfuElTHn38CW4YOcqtd/4hAea+NTkF6iazFUfXdZo3bsihQwdNxxo6bDifzpzlMfsqOBwORt8wgq8XfmU6VsOGjdiyY6dLfobeeuN1Hn/0YRWhHgZeUxHI10kBILxRL2AaUNviPC6pVq0EOnTsSPMWLWnStClNmjaldu1Et3S8ubm5HD6cRPLhI6SlpxESEkLTZs0se97vLQXAyhUrGDywn+k4DRo0ZM36jYSe28THU2RmZtKlY3sl5xks+m4Jvfv0UZDVhfLz82ndvCmHDyeZDZUM1EX2BSiRFADCmwQC/8Ko8D1iDFvTNFq0bEWv3r3p1PkKOnToSPUaNaxOy2N4SwFw89gxfPnFLFMxAgIC+HHderdO+CuL7du20r1LZwoLC03FuXHsOD74cLqirC406/OZ3HrTWBWhRgHmvqEVgBQAwls0BT4DWlmdSGRUFAMHDqJv/wH06dOXqtUq5PEBpeINBUB+fj61alYjMzPTVJxHHnucF/7t2avQnnriMV5/7VVTMcLCwkg6eoLg4GBFWf3F6XTSpVMHtm/bajbUz0AHBSn5NCkAhDe4BXgHUP+JU0rRVaow5OprGD78Onr06qV0Ixdf5g0FwOJvv2X40CGmYtSsGcv2XbupVMmz559lZWXRommjy84VKa0587/iysGuWWn7zaKvGTFcyRLGLsA6FYF8lUcMowpxGUHAVIzn/W7v/P39/blqyNXMmf8VScnHeXfyB/Tt3186fx/z7beLTMd46OFHPL7zBwgNDeXBh8xPtFu+TP02yX+4cvBVNGveQkWoCSqC+DIZARCeqg4wB2jt7oYTEmpz+4Q7GXPjWKpVr+7u5n2KN4wAtG3Vgt2/7ir39VHR0ew7eFjZ3v6ulp2dTcN6iaYOEGrUqDFbduxUmNWF5sz+knFjRpkNkwvEAmnmM/JNMgIgPFF3jLX9bu38r+jSlZlfzGbnnn1MfORR6fwrgNSUFPbs/tVUjBtGjvKazh+MJanX3zDSVIw9e3a77ARCgOHXXkeDBg3NhgnGOPJbXIYUAMLT3AQsBaLd0ZimaQy+agg/rlvPspWrGDpsuMes3xaut2XzZnRdNxVjzI3e18eMHnOj6Rjbze/cd1k2m417739ARSg56rIYUgAIT6EBLwIfAWr3Gr1UY+c6/rXrNzJ73gLatmvv6iaFB/rVxNA/QPUaNWjdpq2ibNynbbv2plevKJipX6xRY25UsTtgc8Az12V6ACkAhCfwA6YDT7mjsS5du7F67U/MnreAVq3buKNJ4aH27Nlt6voePXp65ZkKmqbRvXsPUzFUnjZ4KZUqVeLmW25VEWqMiiC+SAoAYbVgjEN8bnJ1Q3Xr1mPmF7NZuuIHueMXABwxuetc+w4dFWXifh06djJ1/bFjRxVlcnkT7rpbxSO5kUhfd0nylyKsFA4sBswtwi5BcHAw/3zh32ze/gtDhw13ZVPCy5w6ddrU9Q0aNlKUifuZnWR37OgxRZlcXkJCbXr37Ws2TDzQTUE6PkcKAGGVcGAJxox/l+nWvQfrNm7isSeeVH6MqfB+Z878bur6uvXqKsrE/erWN3c+RFpaqqJMinfjWCWDg8NUBPE1UgAIK/zR+btsq87wiAimTPuI75etoKEX36UJ18oyuf1vRHiEokzcz2zuOTk5ijIp3pCrr1ExGfAaFbn4GikAhLuFYQz7u6zz79W7Nz9v2eaVy7OEexUVmTswrpKHnfpXFqGVK5u6PtdNBUBQUBAjrr/BbJjaeMA5Ip5GCgDhTsHAN4C52UeXERQUxP9encSi75YQFxfviiaEj3E43HPaoCcKDAwkp8BR7tfZ7Dy35aqgAAAZBfgbKQCEu9iBGUBXVwSPj6/F98tWcM9993vlsixhjcDAQFPXZ2dlKcpEFOeKLl1VHLM9QEUuvkQKAOEOGvA+LpqIM/DKK1n/82avXpIlrBEeYe45eFq6bDPvDjabjSFXm76B7wCYnkzgS6QAEO7wInCb6qCapvHsP55n7vyFREZFqQ4vKoDwsHBT1x86cFBRJqIkQ4ddazaEHehpPhPfIQWAcLWxwJOqgwYGBvLhR5/w5NPPyJC/KLfYuFhT1+/bt1dRJqIk3bp3JyzcXMEG9FGRi6+QAkC4Umdgiuqg1apXZ8nylYwcNVp1aFHB1E6sY+r6jRvWK8pElMTPz4+ePXuZDWM6gC+RAkC4SjzGFr/mZlldpE6duqxcvUae9wslEk0WAKtW/WD6NEFRev36m57H1xiZB/AnKQCEKwQC84HqKoM2adqMZStXUbt2osqwogJr2aq1qetPnzrFls2bFGUjStK3f3+zITRctAzZG0kBIFxhEqD0jNT2HTqydPlKFUuBhPhT27ZtTc8hmTnjM0XZiJIkJNSmTh3T2y93VpGLL5ACQKg2ErhLZcD2HTry9beLZaa/UC4yKop69eqbivHFrM/Jzs5WlJEoSecrrjAbQkYAzpECQKjUAPhAZcA2bduxcNG3hIWFqQwrxJ/69Otn6vrUlBSmfzhVUTaiJJ06my4AZEvgc6QAEKr4AzMBcxuMn6dFy1Z8/c13pjdrEaI4AwYMMh3j9ddelVEAN1EwAhAD1FSQiteTAkCo8jQKn/snJtZh4aJvZdhfuFz3nj0JNXmoz4kTx3npxX8pykgUp1HjJipGBFuqyMXbSQEgVGiHUQAoEV2lCgsWfUPVatVUhRTisoKDgxk6bLjpOG+98Trbt21VkJEojs1mo2mz5mbDSAGAFADCvCDgE8BPRbCQkBDmzv+K+vUbqAgnRKmMvnGc6RiFhYXcOGokGRkZCjISxWneooXZEI1U5OHtpAAQZj2NsbmGaZqm8d4HU+nQUSbpCvfq3qMHdevWMx3n4MED3HHbLRX6mGF3aN7cdAFgei2hL5ACQJjRGHhMVbCHH31M1bnfbhMSYDf18vb2fYXNZuP+Bx9SEmvhVwt44L57lMQSl9a0WTOzIcyt/fQRcoqKKC8NWAb0VhGsb79+zF/4DXa7d3VKZjvRnAJzd4pWt18ST8/vfHl5eTRuUJfTp04piTd23E28M/kD/PyUPB0T5znz++/UijW90WgYkKkgHa8lIwCivG5GUeefkFCbT2fM8rrOX/iWoKAgHnzoYWXxPv3kY8aMvJ7MzArdx7hElZgYFScDmjsIwgdIASDKIxR4UUUgPz8/pn/yqaz1Fx7hzrvvUXrWxNcLv6JLx/ayOsAFzB7kBJg7C9oHSAEgyuNxQMmm/M/+43kVO3sJS/nOaXiBgYG88OJ/lMY8cGA/3bt05uknHycrK0tp7Iqsbl3T8/gq/MEiUgCIsooDJqoI1KNnTx5+VNkcQmEZ35pKdN2I6xkwyPzugOcrLCxk0quv0KJpI95643XZNVCB2Lg4syEq/G6AUgCIsnoRCDEbJDQ0lMlTPsRmkx9B4XnefneyS86fOHXyJI8/+jAN6yUy8cH7+XnjBnTdd0ZQ3KlqVdMbhUkBYHUCwqs0Bm5UEejFl/6PhITaKkIJoVxsbByT3nzbZfFTU1KY/O479Oh6BbXjazJuzCjefvMNln7/Pfv27SUtNZWCggKXte8LFOwUGq0iD2/mW2N3wtVmAaYX6nfv0YPvliw3fQ67J7B6mZvV7ZfE0/Mryf333s3UD963rH1N0wiPiMDPz4+YKjHExscRWzOW+g0a0rJVa1q2bEmVmBjL8rPSksWLGXr1YDMhlgL9FaXjlbz/E1i4SzNgOyZHjQIDA/l563bTZ7B7Cqs7OKvbL4mn51eS/Px8BvTtzcYN6y3NozgNGjSkd9++9Onbj959+hIcHGx1Sm6xedPPdLvC1K6hG4GOitLxSvIIQJTWP1Dw83L/gw/5TOcvfF9gYCBz5i3w6J/Zffv2MvnddxgxfCiJ8TUZf8tNLFu61OfnFlQyeYIjUOHXHssIgCiNBsBuTBYAsbFxbP1ll+mjVz2J1Xe4VrdfEk/Pr7SSkg7Rp2d3Tp08aXUqpVa/fgPuuudebhx3k0+95/5w/Pgx6icmmAlxigq+FFBGAERpPIiCn5X//N9/ffKDSPi+xMQ6LFm+kri4eKtTKbX9+/cx8cH7adygLq/+77/k5uZanZJSlUIqmQ0RoCIPbyYjAKIk0UAyJpf+tW7TljU/bfCJiX/ns/oO1+r2S+Lp+ZXV4cNJDB7Qn6SkQ1anUmZxcfH899XXGDpsuNWpKFFQUEBEqKn5DpkY5wFUWDICIEpyFwrW/b/w7//4XOcvKp7atRNZvfYnunTtZnUqZXbs2FFG3zCC4UOHkJx8xOp0TFOwh4i/ijy8mRQAojh+GAWAKT179aJP374K0hHCetFVqrDou++55bbxVqdSLou//ZaO7dowZ/aXVqditQpfAMgtmSjONcACs0FWrl5Dx06dFaQjvI2vPQK42Nw5s7n37js5m55udSrlcvOttzHpjbcIDAy0OpUyKyoqIizEVN6FVPB5ADICIIpj+hane48e0vkLn3XtdSPYsGkLA6+80upUyuWjaR8yeGB/Us6csTqVMlOwzNG3ZkWWgxQA4nJiAdMnokx8WA77Eb6tVq0E5i34ms+/nEN8fC2r0ymzdWvX0L1LZw4fTrI6lTJRsFWyFABWJyA81s2AqfHb5i1a0m/AADXZCOHhrhk6jF927+XtdydTvYZ3LS9PSjpE7x7d2L37V6tTKbVs80crSwFgdQLCY402G+D+Bx+Smf+iQgkICODW8bfzy697eeOtd2jYsJHVKZXaqZMnGTzQe5Y4ZueYPlK5whcA8uksLqU5sMNMgOgqVdh/6AhBQUGKUhLeyNcnAZZE13VWrljBrJmfsXDhV2ScPWt1SiWqX78BK1b9SHSVKlanUqxfdmynY7s2ZkJsBtopSscryQiAuJTrzQa46eZbpPMXFZ6mafTu04cPPpzO4aMnmDP/K+66514aNWpsdWqXtX//Pq4bPpT8/HyrUylWZmam2RAyAmB1AsIj7cXY/79cbDYbv+zeS2JiHYUpCW9U0UcAipOaksL27dvZvm0r+/bt5cSJ4xxNPkpqagr5+flknD2L0+m0LL/bJ9zJG2+9Y1n7JVkwfx6jbxhhJsQSoEJPUvKzOgHhcZpjovMHY+Mf6fyFKF5UdDS9evemV+/el/2a3NxcUlNTSE1J4fTp39i6ZTPr169jw/r1AcuVegAAIABJREFUpKakuDS/Ke9P5oouXblh5CiXtlNep0+dMhviNxV5eDMpAMTFBpsNcMOoMSryEKLCCw4OJjY2jtjYOJoDffv1A4y5BT+tW8vH06cxb+4csrNNT4i7pAfuu4du3btTs2asS+KbceqU6ZMZj6nIw5vJHABxMVNr/4OCgrhm6DBVuQghLkHTNK7o0pX3p07j4JFj/PeV14iMilLeTsbZs9x3j+ndwF3i9OnTZkOcUJGHN5MCQJwvHDC1bd+Vg68iLKxCH7AlhFuFhYVx7/0PsPPXvdx1z734+6vd4v67b75h7pzZSmOqkHzksNkQMgJgdQLCo/TH5AEZw669TlEqQoiyiIyK4tVJb7By9Rpq1UpQGvu5p5/yuFUBBw8cNBtCRgCsTkB4lMvPRioFf39/+vXrryoXIUQ5tGnbjnUbfv5zvoAKSUmHeP+9d5XFM6ugoIBjx46aDSMjAFYnIDyKqUPOu/foQVh4uKpchBDlFBUdzYKvv+Wmm29RFvPVV/5Lbq5nLJ1PSjqEw2FqiagDML2MwNtJASD+EAWY2p1k0JVXKUpFCGGWzWbjnckfKFvG9/tvvzHj00+UxDLrwP79ZkMcxygCKjRZBij+0AWTBWH/gQMVpXJp+Q6dHAfkFEGBU6fQafxa5IRCp06RrlOkazh10J06TjBeOujolPb0UJsN0P/aI8vvou2y7DbjP/jbdGxo+NnArhn/3U8D/z9+1TSC/HSC/TSCbRo22XZLuJnNZmPKtI/Iysrim0Vfm473xqTXuHX87dhs5u8dCxw62U7IL9LJd0KhExzn3tcODQodOg4dHLqOU9dw6OB06ujAgjWbzTa/0/QfwAdIASD+0MXMxTVq1KRevfrlvl4Hsop0Mgshu1Anx6FT4NTJc5zr3B1Gh166SOYYm6/9Fafg4pBO4z/klrE9u13DH/C3QYBdI8CmEWzXqOSnEeoPoX4adikShGJ+fn58OP1jOrRtTXLyEVOxDh48wI+rV9OjZ89ivy7PoZNZqJNVBNlFOvlOnXyHTpFTo8Cp49T1P95GpXThFx/Yua3MuV/kF7MBfIEUAOIPbc1c3L1Hj1J9XaET0gqcZBQYHX6Ow0l+ERTopb9D91YOh44DyHMAhX//w2oYoweBdgjy0wixa4T524gMgJCLhyGEKIOw8HCmffwJA/r2NvvsnJmffUKPnj1x6JBe4CS9ELIKdXId5wp2hwOHfrmfVzVv8kO7tpsNYeqwM18hBYD4QyszF3ft1v1v/y2jSCctXyej0ElWIeQ6dAocPt7Lm6BjPNIocELmnwWC8WHtZ9OoGaLRJFzesqJ8rujSlfseeJDXX3vVVJw5c+cy/NnXwS/oMt25a4vVrPQ0zpwwvQJAHgEgkwCFIQ4wdfZn+yu6cjrPyd4MJ+vPFLHkZCHrTheyO72I49lOzhY4pfM3RaduZXMH6wjxxJNPExEZaSpGbnYWW9auVnQvX3Z7t6xHNzdcWAjsUZSOV5MCQACYOlQ7uFIoJ8LqsDWliKTMItLznTjL9oBPlKBuqJ1AmUUoTAoLD+eee+83HWfLD0sUZFM+v/681myIPUCBglS8nhQAAqCZmYtrN25xbuq8cIUQu0ZCqNz9CzXuue8BwiPMjQJsW71UUTZlt3vTOrMhZALgOfKpLQDKP30fqNvc1ACCKEHDCLssIRTl5tDhdJ6TnekO1v5eyMbsYDoMNHdg14mk/WSdTVeUYekVFuRzcMcWs2E2qMjFF8iMIvfQgBpAIlAbiAdigOjzXlUwvh8R564JACqd+/d0jDlimUARkH3u9RtwEmNHq9MYe1ufAvYBaWXIr265/lTn1G7SwszlXm14YrCp6+clFb+zWniAjWpBUqeL0nPqxkqb07k66YVOsoucOJwXVpCdBw1l6axp5W5D13UO7dxCiy6mdg8vs90/r6WwwPSZBD8oSMUnSAGglh2oB7Q492qOsbteAhBoIu4fRUFZxu1+B3YDe8+9dgObMQqFi9UzkRtxdRuauVwUo75M/BMl0IHUfCcp+TppBU7OFurn9rL4w9+Hj5pf0ZPQiEiy0styn3ChpF93uL0A2LxysdkQKcgKgD9JAWBODMbxuV3OvdoA5m4J1Yk597p4fV4S8BPGMNh64ABQ3UxD1WubGkAQlxEZYKNKkIz9i8vbke7gVK7jog6/ZHY/f5p37slP380vd9unjhwq97XlpWDy4Woo5Z5iFYAUAGUTinFi3iCgF+CNt76J516jz/2+EBMLd0PDIwiLjFaRl7iILPsTJakRZONEdvk29qnVsKmpAuD00cPlvrZc7SUncfzgXrNhflCQis+QAqBk9YChwECM0/ICrE1HOX8zF9eoberpgbiMUH9N7v5FiWKCNEL9NLKKyr7sNqGhqcU/pJw6bur6stq04lsVYVapCOIrpAC4tHhgODACuAJXb23lxWJia1mdgk9KlGV/opRqh9rZmV5U5uvi6zcy1W5OxllT15fV2kVzzIZIRZYAXkCmF/8lDJiA8Vz8CPA6xnN96fyLEV6lqtUp+JwAu0aNYHlritKpEWIjoBynSIVUDjfVbm5WpqnryyLl1HH2bt1oNkwOxuNbqa7PkU8Z4xCc9zHOh54MdEQ6/VKLjDE1f1BcQmyITdb9i1Kza1CzHAWjn7+5p5kF+Xmmri+LtYvmopd1puPfxQGLgKPAy5hc/uwLKuojgABgJDARaGlxLl4tIkZGAFSLC5G6HFBy5nxJwkICKSoq+/D5H1LOZhEcbP3Cn/hKNg5nlW0yoN3f3Me/3c993ce6b0wP/5+vBvA48CjwPTAJWIaqowq9SEX7pIkEnsBYCvcx0vmbFhZl6gwhcZGoQI1KcvQvYJxj72ohISGmrk9NTVGUiTmV/DQiA8v2cV5UWGiqTZvNPSPpWelp7N+x2RWhbRiPBJYA24FbMbdfi9epKAVADPA/IBl4CahpbTq+Iygk1OoUfErNEN95PFlosoOx213/dxEYFGTq+tQUzygAoOyPAX4/lmyqveBQ97z3D+zYpGL4vyTNgQ8xbg4fwHP2c3EpXy8AKmMM9ewHHsFYxy8UCgqpVPIXiVKxaVDNh5b+nTx5wtT1/v6mVqiWSpVocyNYp0//pigT86oHaWWavHTmxFFT7YVHx5i6vrSyMzPc0s45NTAmgB/B6DvMDRF5OF8tAEKAZ/lrsoe56a7isgJNDqGKv0QHavj70Oy/E8fNrRMPD48o+YtMio2LNXX91i0uGZouF3+7RnQZCsjTyUmm2guPds/8n0qVw9zSzkViMPqOA8B4fHTlgK8VABrGDnd7gBeQjt/lgoJlBECVasG+9RmzY/t2U9fXSkhQlMnlxcXFm7p+/XrTR9MqVT2o9D9DuzauMdVWtVqJpq4vrVoNm6FplhXGNYApwFZggFVJuIovFQDtgbXADIyNfISLaTYbUdVqWJ2Gz4jxoeF/gE0/m1u3HR/v+rdxvfoNTF3/07p16LrnTB4v7e6RjqJCdq1fbaqt2Lrm/u5KK6paDRq37+KWtorRHFgMfIfJ49M9iS8UAGHAexiH23S2OJcKpWpcAv6B5iZRCUNlfxuBPjT8r+s6q1eZ23U1vpbrd5ls2aq1qevT09JY/5PnjAIE2Y2tgUuyZ/N6crLMPVt35ymg1979qNvaKsFAYAfwD8DrP/y8fR+Aq4F3AXMP8tzA7udPTGw8VWrGE1MznqpxCVSpGU/lyChCwyOpFB5BaHgkgeeG1ENCK2M7Nwva6XCQk5VJfm42BXm55GRmknU2lbTfTv35Sj19glPJhzhxaD95Odlu+TN1GXytW9rxZJrNVu4Zytp569x97e5/y+ZNJCcfMRWjabPmirK5vJYtza8E/nj6NDpfYfkd6p9igm1kZRa/J8CPX31hqg3NZqNei3amYpRF6x796XvDLSz7Yrrb2ixGEPBPYAxwN8YeAl7JWwuAqsBbwPVWJ3IpYVFVqN+qPQkNm5LQsBm1GjYhtm7Dcu+8ZbPbCQ2PILSUk6LOnDjKiaT9HN2/mwM7tnBgx2ZOJO1XupQmMDiE/qPHK4vnrfz8Aygs545o5z/XjArwhcG4v8yZ/aXpGB07dVKQSfGqxMTQoEFD9u0r/ylzc+fM5r+vTiIszJLJan8THWAjicsXAFnpaaxa8LmpNmrVb0JoRKSpGGV154tvUVRYwA/zZri13WLUx9hD4H2MTYWyrE2n7LyxALgSmAZUszqRP9RMrE+TDl1o1LYzDdt2IraOe56NXU6VmsZIQ4suvf/8bzmZZzmwYwt7Nv/EjjUr2Lt1I46i8q/Tvvnpl6ka5/pJWp7ObvejvH+LToeDrLPpVA6PICLAd0YAMjMz+Wj6NFMxatSoSUJCbTUJlaB3376mCoDs7Gw+nj6N+x54UGFW5RcRYCwHvNzMhO9nTCE/N8dUG006djV1fXnY7Hbuf3UqbXoOYNakf3Eiab/bc7gEDbgT6A/cApibWOFm3vSpEwz8F7gHi/P2DwyiWafutO01gDY9B1I9oY6V6ZRLXk4WO9evZvuPK/h52SJ+O1a64VpN0xj98D+59p7HXJyhdxjfqQ6pp0+W+/pXvv6JVq3bcEVVb6zFL+2tN17n8UcfNhVj6LDhzPxitqKMivfNoq8ZMXyoqRiRUVHs/HUvkVFRirIyZ81vhWQV/r0EyM5I574+LUk/Y27/guc+Xkir7v1MxTBD13X2bP6JjUu+5udl33hKMeAEXgGegXLfF7iVtxQAzYHPgaZWJeAfGES73gPpOuQG2vTsT2Cwb61/P/jLFtZ9O4/13y3g5JGDl/yahEbNGfv4v2jT0+dWw5TbU9f1Ys/m9eW+/s7/vM348bfTJMI3CoC01FSaNWlIWmqqqTjvT53G2HE3KcqqeHl5edSOr0nGWXPH2951z728OukNRVmZsyu9iKPZf3/kN/mpe1ny+YemYodUDuejzcmmDxNS6UTSfjYuXcSar7/k0M5tVqezHuOsGXOTYNzAGwqAURjrMN2+4Fyz2WjZpTfdh46kQ/8hhIR6xjM+V0vet4vdP6/jyN5d2O1+RFWvSZP2XWjQqv0FE9cETHrwZlMTqjr2H8KnX8wjrpJv/L0+eP+9fDD5PVMxAgICOHz0BBGR7nvGPP6Wm5g54zNTMfz9/Vmx6kfatmuvKKvyO5rtZFf6hYcc7d60jmdu6Gd6LlDP4WO4/9WppmK40vGDe/lx4Zes/moWp44csiqNNIyzBRZYlUBpeHIB4Af8G2M7RreqFBZOl8HXcdWt9xJXr5G7mxde5Is3XuSL1/9d7usDgoLZvv8wCdW8/1ClJYsXM+yaq0yvix8waBDzv1qkKKvSWbZ0KVcPHmg6Tq1aCazb8DNR0dEKsiq/9AIn63//qwDISk/j8WHdOXn4gOnY//5yGU2sX5dfIl3X+WXdSpbM/JANS742NeepvClgPLZ+CuPxgMfx1NuOasBy3Nz5JzZpwQOvfci0jYe58z9vS+cvStSwTUdT1xfk5fLFR557N1Vax44d5fbxtyjZFGfE9SMVZFQ2ffr2pWFD8+/35OQjjB0zEoejbEfzqhbq99dHu6OokFfuHaOk84+t25DG7a4wHccdNE2jRZfePPLODD5Yu48R9z3p7pULGkYfthAP3ZXWEwuAxhjPULq7rcF2V/DMtPm8smg9PYaNls1tRKk1aN3hz/0ayuv1114h5cwZRRm5X8bZswy/5mp+/838wThVq1Vj+LXXKciqbDRNY8JddyuJtXLFCu69a4KlRYCfDYLtGrqu8+4Td7Nj7UolcQfffLeV2/KWW2TV6oya+BwfrN3Pbf94xd0rmAZj9Gket4OgpxUAvTC2863tjsZadOnNv79cxouzl9Om10Cv/MEW1goJDSOxSQtTMdLT0njskYmKMnKv9LQ0hl59FTt/2aEk3r33PUCQySN6y+vGcTcRU1XNATcffzSd224eR1FRUclf7CL+egFvP3oHK+eam9vwh8iq1ekzYpySWFYJCqnE4Jvv4Z2Vv3DXS+9Qpabbdo1vBPyEh+1W60mnj4wDvsQNR/YmNGrOA69OZeRDzxIT6/rtRoVvyz6bzo61K0zF2PnLL8TGxdOqtbmtad3p2LGjDBrQj21btyiJFxoayvSPPyUo2Jqj2AMCAvD382fpku+VxNu1ayc7tm9nwICBbi9q0lJTue36oaxb8rWymCMffJYmHTz/2X9p2Gx26jZrzcCxdxBRJYZDO7e5YwfVEIzD6nZhHFhnOU8ZAZgIfAS4dF1JdPVY7v3fB7z2zXpL17AK33LF4GuVjB7df89dLPp6oYKMXO/7776jS6cO7P51l7KY997/gFtn/l/K+DsmmD4h8HzfLPqaDm1b8+Nqc+cilMW6tWvo0fUKNq9TtydN9YQ6DBo3QVk8T+EfEMiVN93NOz/sZNidD+MfEOjqJoOBOcBdrm6oNDxhBOBZjHOXXTb+bvfzZ+jtD/LIuzOp37KdDPULpULDI9ixZgVnThw1FcfpdDJ/3lxq1KhJq9ZtFGWnVmpKCo8/9ghPPPYI2dnq7phiY+P4ZMbnBARYu7bcz8+P+Fq1mDtH3SZEGRlnmfnZp2RlZdGuXXuXjQacTU/n0YcfYuID95OamqI09r3/e59aDZoojelJ/AMCadm1N92uvp4zJ45y/OA+VzZnw5gXkIvxyNsyVhcAz2McquAyjdp15qmpc+g+dJRHbVwhfEtoeCRrF80xHcfpdPLNoq85sH8/3bp1JyTEMzacyszMZPK773Dj6JGsW2PuHPlLefOdd2ndxjOKnkaNG7N58yYO7Fe3u5yu66z/6SemTvmAgvwCWrZsRaCiQiA1JYW33nyD2265iTWr1e9E27b3IEY99JzyuJ4oNCKSrkNGULdFG3b/vM70iYkl6IcxImDZYUJW3gq/DjzgquAhoWHc9PRL9L3hFrnjFy6nO53c17eV0i1JwyMieGjiI4y//Q5L1pXrus7WLZv58otZfDR9mumd8i6nW/ceLF663KPep8nJR+jYrg1n09NdEj8iMpJhw69l2LBr6dGrF/7+/mW6vrCwkPU/reOLWZ/z+YzPyM3NdUmeoRGRvL54M1HVargkvifLycrgs/8+x/effaBkeWsxXsLYK8DtrHrHvQQ84argDVp34IFJ06iRUNdVTQjxNz/Mm8GbD6s/ITEoKIi+/frTf8BA2rZrR0JCbeUFQUFBAadOneT4sWP8smMHm37eyOpVq0wf6VuSiMhINmzaQny8503GnTP7S8aNGeXydiKjoujZsxdNmzWnSdOmNGrcmKjIqD8fhxQWFnL8+DGSk5NJOnSItWt+ZNUPK8nMzHR5bhPf/ISuQ0a4vB1P9su6H3jz4fGknDruymZcPhp+KVYUAM8CL7gisN3ux3X3Ps6I+540vTbbE2gYa3lD/CHIrhFs1wiyawTYNPxtOv42jQCb8XWapmE/99106Mbdmw4UOKHQqVPo1Chw6uQV6eQ6zr2KINehX/bUMFE2uq7zzPV92b1pndWpeI1PZnzOdSM88lRvAO6+8w4+mmZu73xvdeW4uxj//GtWp+ERcjLPMuW5h0wfo1yCxzF2DnQbdxcAE4FXXRG4WnxtHnlnJnWbe88yqvNpQKi/RmSARpi/jcr+EOpv+7NTd5UiJ2QXOckshLOFTtILdLIKpSgorwM7NvP4sO6m91uvCO648y5ef/Ntq9MoVmFhIUOuHMDqVe6bxe8JGrXtxAuffy/zpi6y/MuPmfKPhyjIc8kjFx3jaOEPXBH8UtxZAIzDWOqnvM3WPfrz0OsfuXubR9Mq+9uICdKICrAREaDh5yGLMouckF6gk1rg5Pc8J5mXOFZUXN6nLz/N/Pflzqk4vXr3Zv7Cbyyf9V8aKWfO0L1LZ5KSLDtYxq1i6zTgxdnLCYvy/vMpXCHp1x387+5RrjpoyAlcD8x1RfCLuasA6AUsRvE6f81mY8S9T3DDA097xSl1Ng2iAjWqB9uJCdQIdPXtvSL5Tp3f83RO5TpIzddxSj1QLEdREc/c0Je9WzZYnYpHatO2HYuXLic01OV7filz9Ggy/Xv34siRw1an4lJR1Wvyn9kr3L1VrtfJzkjnjYduY9OKb10RPhfog7FzoEu5owdqjLHWUenteWBwCA+98REd+g1RGdYlogI1aobYqRak4W/zjk7/cgqdOqdzdU7kOknNl2HuyzmdnMTjQ7uRkaZ2Pba3a9CgIctWrqJKTIzVqZTZgQP76d+nF6dOnrQ6FZeIrh7LPz/7hti6Da1OxSs4HQ4+efkpFk590xXhf8fYNvigK4L/wdW9UTWMQxBqqwwaHh3DUx/Oo37LdirDKuVn06gerFG7kp1Qf+/u9C8nu0jneI6TYzlOChwyLHCxAzs289yogeTlZFmdikdo26498xYsVLbfvhUOH05i6FWD2bdvr9WpKFWtViL/+GQR1RPqWJ2K11ny+YdMee4hVxw3vA/oBKSpDvwHV/ZM/hgbHCg91a9mYn2emb7AY39QK/lp1KpkJ66S6yfweQqnDidznSRlOciS+QIX2LJyMS/dcb0VZ5F7lP4DBzLj8y+pVKmS1amYlnLmDNcNH8qG9S4foXWLJu278NjkWfLM34Stq5bwv7tHu+I8ge+AqzDmBijnyrVyrwE3qAxYr0Vbnv98MdHVY1WGVSIy0EazCD8aR9iJCNDw8pH+MtE0CPM3Cp+IABu5DsiTEQEAaiTWo17z1mxcuoiiwopZBNxx511M+fAjy075Uy0kJIRRo8eQmZnBzxs3Wp2OKf1H3cbEtz4hOLSy1al4tRq169Kscw82fL+Agvw8laHrY9xMmztt7DJc1U2NAmaqDNiwTUee/egrQiqHqwxrWniAjXqhdmKCK1CPXwpn8nT2Zzo4WyDzBMB4HPDvW4aSkXrG6lTcJiw8nLffnezR6/zN+mLW5zxw3z0u2yXRVUIjIrnjhTcq/CY/qh3Zu5Pnx15F+u+nVYbVgeuAeSqDgmsKgOYYsxeVjfU1ad+Fp6fPJ7iS51SpIXaNhhF2qgV5/uoDK53Oc7In3UGujAhw+uhhJt0/jn3bfrY6FZfr1r0HU6d/5JE7/Kl24sRx7r37ThZ/65IZ4cq17T2Iu196l8iq1a1OxScdP7iXZ0cNUF0EZABtUDwpUHUBEAz8DDRVFbBZ5x48NXUuQSGe8ezQrkFiqJ3EyvYK84zfLKcOR7Od7M8soqiCDwg4igqZ+erzLPhgkk9uFhQbG8e/X3qZ628Y6VF7+7vD3Dmzee7ppzx2v4DqCXW4+emXvWLllLc7dmAPz40aQPqZ31SG3Qh0BZQ9S1Q9B2ASxoQFJeq3bMdzHy8kKMQz1gvHBGm0q+JP1WBbhXrGb5amQUSARmyIjdwiY/VARWWz2WnZtTfteg8iee8uUk66dH9xtwkNDWXiI4/yyYzPad2mTYXr/AGaNGnK7RPuJCIiku3bt5Gj8LhkMyKrVmfkg89y3ytTfPpIX08SFlWFNj0HsO6bueSr2zUwFghE4emBKt+lVwKLVMWMrdvQ2I0q0v2noF0swK7RMMxObIgM96vwe67OrvQi8ir4jkK6rrP3+y/4aNLLXrusrHqNGtx9z32Mv/0OIiK9aydOV8rNzWXGp5/wxqTXOHjwgCU51GnQiL5j76LPiHH4B/rGBExvs2/bz/xzzCCVqwOcwAAUFQGqCoCqwA6Mdf+mVakRx3/mrKBKzXgV4UypFmSjWYQdfxnvV6rQofNLehG/5VXsIiCuko0mYTa+WfQ1b74+iXVr17j66FHTAgIC6NWnDyOuH8m1140gMDDQ6pQ8ltPp5MfVq5nx6ccsmD+PrCzX7gkRFh7OVVcN4ZbbxhPetDPHcnzvMZO32fLD97x0+wiVS4GTMebaZZgNpKpX+wJj/2LTQkLDeGneD8TXb6wiXLnZNWgQ5kdCqNz1u9LxHCe7z1bcuQFVgjTaRf91Fnxy8hHmzp7N/Hlz2bplMw6Hw8Ls/lK9Rg06derMoMFXMWTI1XK3Xw65ubmsWb2axYu/ZfnSpezfv890sWez2WjUuAndundn8OAhdO/Z88/zFTaeKSQ137OLyYpixZxPefvRO1SGnAKYDqiiABiMMfRvmmaz8eSU2bTrfaWKcOUW6qfRKtqPUD+563eHrCKdrSlFFXJuQIhdo3t1/0v+v6ysLDZu2MDGDes5sH8fhw8f5sjhw2TnZFOQn09OTo6yPEJDQ/Hz96dyaGXia9WiVq1axMXH07RZczp17kxCQm1lbQnD2fR0Nm3axI7t20hKOsThpEMcP3aczMxMMjIzyDh7lrDwcGw2G0FBQcTEVKVa9WokJNSmYcNGNGrchLZt2xIZFXXJ+KtOFcrqGw/yyUtPseCDSarC6RiP3RebCWK2hwsHdmFMTjBt7BMvMmzCRBWhyq1qkEaLSH+POZmvoihyws70Ik7lFj8U4AQcTp0iXTP+XddB13AATs79u67jRDv3e2MVgn7eT7rTaUxM/PP3xpf9ycaF/1/78x/n/f9zL7vN+NWGhk3T//xVO/erXdOwa8aI0qXebBrQp0aA/LwJpYqcsOxkgdVpFMt4L4MDcJx7nzrR0dHQncZ72KEbv3fqxhHlOhduiXfxAMrF7+XL0eDPidx/vNdtaNjQsWnnfrX99Xu7BnZ07Dawo5VrBZjudPLS7SNUHiB0BGPFXbknGJgtAN7DOL/YtB7DRvPAax+qCFVu9cPs1K3sys0RRUn2nHWwM91Boa7j0MFxrkMv0o0PCW9mB2w2DT9Nx45RPPhp0Le6P1GBUgEIddIKnGz4vciy9p06FOpQpEOh0/jVqetGZ3/u9978dtYwinqbBv6a8T7208DPZvzerl16N9jc7Eweu6Ybxw8qm/T7MvBkeS82UwB0wNjwx/QnV60GTfnvVz8SEBRsNlS52DRoFulHzWD5EPYEB7OcrDhVSEV5ItCjqh9NwqXwFOoczXayK921BYCOcTrc63pEAAAgAElEQVRogVOjUNf/7OgLz93NV3R+54oDf5uGv03HX9MIsMGxfTt5YlgP8nOVPMIrAFoCe8pzcXk/dTRgFmD60Gj/wCCe+/gry/b397dptIv2o6rs6OcxogI0agTbSMrWvf6uvzRC/TQSKsnPn1DnWI6DDIUHczl1yHXq5Dg0Mhw66QUaKYU6mUWQ44A8p9HxO7z8zl4lJ0ZBlO+EXAdkOeBsEdjCqxITl8C2pV+paMYOtAA+Lu/F5TEaeKic115gwr/foE3PgSpClVmAXaNDFT/CA+TD19NU9tdIrKRxKNu4s/BlTjSaygiAUGjfWQflPYZDBwqckOPQySiCtAJILYRsB+Q6jSF9z1ib4p10oFr9ZqQeP8yJvb+oCJkA/ALsLuuF5XkEEIIx3GB6kf4VVw7nkXdmmA1TLoF2jfZVZKa/p0sr0Fl0vJAsH34eoAG31g0gQLaXFAoUOXWWnyws9Z24jnGXmufQyXUY/+677zbPkZeVwSvDOpB2IllFuH1AM8q4TXB5bjueAIaW47oLRFSpyjPTvyIw2P3P/YNsGh2r+lFJOn+PF2zXqB1q41CmE4Ujmh4nNthOeID8PArzUvLhRDGraXQdCnTILoK0Qp2UAsgsMobxfbjO9jh+AYHENm7JpoUz/76coeyigdMYZ/GUWlkLgEiMTX9M7yt53ytTqdu8tdkwZRZg12gfI52/NwmyaySE2jiY5fTZDYNC/SFOtpoWChzLdpJecGGHku80OvyzRZBSYAzt50qHb7mo2ATysjI4sn2DinDtgPcxJgaWil8ZG3gYY+2/KZ0HDaPzINODCGXmb9NoX8YNfkICzD2bzSmw9mmZ1fmbbd/bvbqrdDN9j2TrdCzFsRe7d//KtKlTWPXDDxxOOoSu6yTUTqRnr16Mv2MCjRpZu4NmSbZv28oH70/mhxUrOHbsKJqmER9fi569e3PHhDtp3qKl0vas/vm3wu95TvKdkO/UyXNAruPcnhjCIw28/zl+Wb6Q1GOHzYaqCjwI/Ku0F5TlNjgGOASYOpqvcmQUbyzZSkSVqmbClJlNg7bR/kQHlu3O39s/QKzOXwqA0i/1GVcngEqX2WEkNzeXp554jCnvT8Z5mWOEbTYbE+66mxdf+j+Cgjzr8Jfs7GweffghPpp2+b0+NE3j5ltv43+vTiIkJERJu1b//LtbjkPn00MF+OhAmc/a8+MSptyp5KY4FUiklOcElGXM8TFMdv4Aoyb+w+2dP0CzCL8yd/5CuFNy9qXv0vLy8hgx/Bref+/dy3b+YBw88947bzNi+DXk5eW5Ks0yy8nJYeiQwcV2/mCcjjj9w6kMv+YqpdscVySHs5zS+XuhRt3602rQdSpCRQH3lvaLS1sARKJgx7/Y+o3pfsOtbh+Mqh9mp6Y8XxUe7mDWpe82n3z8UVYsX17qOMuXLePpJx9XlZZpjz78EGvX/Fjqr1+9ahVPPv6oCzPyXZf7GRKe7+pHXyYguJKKUBOByqX5wtL2ihNQcPd/9VOvcbrQzuEcneN5xuzTjCKdfCcuq1qrBtlke1/hFY7nOMm7aOejPXt2M+X9yWWO9f5777L7112qUiu3XTt/KfHO/1KmfvA+v+7a6YKMfFeeQ+dErjzr91bh1WrS69YHVYSKBsaX5gtLUwAEAPeZSgdo0W8o9Tr0+PP3BU6j808pgBN5OkdydI7m6pzKh9QC/c9lKWa2lKzkp9EisqzzHIWwhlOHpKwLS+EPJr9X7LD/ZWM5nbzz9luqUiu3d956s1xH3uq6ztQpH7ggI991MMspW/B6uZ63PkR4NSW74t5HKVb5laYAGAXUNJOJze7HlQ8+X+LXFemQ69A5WwRnCnRO5ukcyTWKg+N5Or8V6OeKA51ch06B8/JbxfrZoHW0n5yyJrzKvswLO/sfVqwod6w5s78kNzfXbErllp2dzdw5s8t9/aqVKxVm4/su/tkR3icgKIRB9z+nIlQicE1JX1Sa7tH0lr9th4wipnb9cl/vxBgx+GMd65kCOJUPx/MgOVfncI5Ocq7OiTyd0/lG8ZAYKrv8Ce9zItdJ2nlruJOTj5Q7VsbZsyz8aoGKtMplwfx5ZGZmlvt6M3/2iiatQC/xKG3hHdoOGU3VxAYqQpXYd5dUAHTEOGmo3Ox+/vS76wkzIUqkYxxCkX9u/+oqgTbqVpZbf+Gd9mT8NZHL7Gz4GZ+W64wQJcy2nZ1d7mPOK5zdGTL5z1fY7Hb63/2UilBdgVbFtlVCgNvNZtB+6I1ExyWaDVNqIX4aPavJc3/hvfZmOpWdgrhi+XKOHTuqJlgZJCcfYfWqVW5vtyIq0mFvhtz9+5JWA6+jej0lm3oVOxmwuAIgDBhppmWb3U6f2927nKdrjB9Bl9lMRQhvkFukK3ue63Q6mfnZZ0pilcVnn3xSrsmLouz2ZTj+tnpEeDfNZqPXrRNVhBoDXPbAneIKgNGAqUWJzfpcTVRcbTMhyiQh1EbdUBn6F95ve1qRslifffJxuWbil5eu68z87FO3tVfR7UiX4X9f1Hrw9UTWMH3obgRw2R2Giustbzbbcvex95gNUWoBNuhRVYb+hW9IK9BJzlZzB33gwH42rP/p/9u77zCrqnv/4+9z5kxlGMqAiHQEe0MB0ajYYsWCXTHmJkaNJtdYctPvz+Sm3eg1xhZbjL3EglixROyAhWKhl6HMwAwww/R6yu+PzShl2jlr7b1P+byeZz+JA3vt7/lyZq+1117FSlk98dGHH7B69SrPrpfJ1tbvOGhU0kdWKJujLr3GRlHf6+wPOmsAjAQmmlxx2AGHMerQI02KiMuh/UOdrqMukormbbX3ZPf4Y49aK6s7T3h4rUxn8zsiyWfSed8jt8B4Db5jgMEd/UFnDYALiG+joF2v6OHTf1F2gIP6arU/SS82p3U998y/PFlfv7GxkRemP+/6dQTWNkSpaNY4i3SWV1jEuNMvMC0mCzi/oz/orAFwocnV8noXceCJ3a5BYM2RA0Po4V+kc7W1tbz80ouuX2fGC9Opre3RRmRi6LMqPf1ngm9dfJWNYjoc0N/RS/MxwKEmVzr09AvJzut04KFVA/OCjOqlgX/Jyu3tVE23e41nu95U98Rjj3DhRRe7fg1x38r6KJv09J8R9tj7QIYfOJ51X35mUswkYDiwbvsfdlRzGm9KPHHqZaZF9Njh/TXwT6Qn3F4TYN26tbz37ruulS+OcAzmbrY3S0SS3/izppkWEQCm7PzDjhoAp5pcZfex+zHsgMNMiuj5tfKDDOulvn+RnnB7TYAnHntMc/89sKAqQl1YI/8zycEnn0tWKNu0mNN3/sHODYBewLdMrnDo6UbDB+Iyvp8G/onEw801Af711JOulCvfqAvHWFitp/9MU9h/AHsdebxpMccBBdv/YOcGwAlArskVDjjhDJPTe6x/TpBhevcvEhe31gT46MMPWL58mfVyZUcfbA4TVidLRhp3mvFsgHycOv5rO9egRt3/g0bvw6DR+5gU0WMH6+lfJCFurAmguf/uW14XZW29av9Mtf+xp9t4DbBDN0JHPQAJO+DEM01O77H8UICx2u1PJCG21wRoampiuub+u6opHOMjDfzLaHm9i2wsrjd5+//YvhYdiDMFMGEHHL/LIENX7NM7qHn/IgmyvSbAC9Ofp7amxlp5sqt3NoW14Y+w/3G7jOOL18FAv/b/2L4BcAQGq/8V9OnHsP2Nlg/osX36qPtfxITN+fqa+++ur6ojrLW0L4Sktn2POdm0iCDO0sBf/0c7o9H/e044mkDQ/W75IQUB+mbr8V/EhK01AcrKSnn/vfcsRCQdqWqNMmeLuv7FMXDkWPoMGmJazNd1/fY19lEmJY6ddJzJ6T2/Tm8t/CNiytaaAI8+/DCRiJakdUNrFN7cGEZT/mV7Yycda1rE+Pb/094AyAIOMSlxzOGTu/9LhoIBGK2Ff0SssLEmgOb+u2dWeZu2+pVdWKhrD2Nb3d/eABjDTgsExKOw/0BPpv8NLQiSq9F/IlaYrgmguf/u+bQqTIne+0sHRpvPBCgCxsI3DYCDTEobuv8404B6ZHShBv+J2GSyJoDm/rtjRV2Uzyr1WkU61n/oKHr17W9azGFgqQHg1ej/4er+F7Eq0TUBNPffHRuaorxT0eZ3GJLEAoGAjf129oNvGgAHmpQ0ZF+j4QM9UpwbpJe6/0WsSnRNAM39t29zS5SZG8Jour90Z/iBE0yL2Be+aQDsa1KSF68ARujpX8QVjz/6cNznaO6/XdVtMV7dEKY1qtpfujd47wNMi9gHnAZAEBiRaCl5vYvoN3iYaTDdGpKv9/8ibnhn1izWr1/X47+vuf921bTFeGl9G02a7yc9NGhP40H3Y4BQEBiMwQ6AA4cbrR7cIwFgtzz1AIi4Id41ATT3356trTFeXN9Gg/r9JQ4Dhu9JVnaOSRE5wLAgMNIokBHuNwCKc4PkaO8fEdc88dijPV4TQHP/7djSEmVGqSp/iV9WKJsBw/c0LWZYEBhlUsJADxoAg/T0L+KqlStXMHfO7G7/3uyPPtTcfwtKG2O8WKoNfiRxxUNHmhYxLAgMNSlhwAjjVki3BqoBIOK6nqwJYLJugDiW1UZ5bUOrBvyJkX57GI+9Gx7E2QY4YX13N96YoFvFOWoAiLjt+Wef6XJNgKamJl7Q3H8jn1aFmVXRpql+Yqzv7kbP7gBDgkCxSQmF/Y3aD90KAP00AEDEdbW1tbz04oxO/3zGC9Opqa72MKL00RqFNza2aYU/saav+ey7ASFggEkJhcWDTIPoUlF2gGzV/yKeeOKxR7jo4ks6/TOJT0GO2fTlWxfFv0rj9m7cP+EtXqxcX9xT2M+o6gboF8SgARDMClFQ1Nc0iC71zna1eBHZTmdrApSVlfLeu+96H5CIdKigr1HnPUD/INAv0bN79SsmEHT38by3Hv9FPNPZmgCPPfKI5v7HoTkS47UNWtNf3FPQJ+Gqu12/IAbbAOcWFJoG0K3eIQ0AFPFSR2sCPP3kEz5Fk3pW1Ud5el0ba7Wdr7jIQgOgdxBnRaCEZOflmQbQrUI1AEQ8tfOaAJr73zMNkRivb2jjzY1a1lfcl52Xb1pEbhCDZYCzc40D6Ja2ABDx3mPbzffX3P+uhWOwoCrCU2taKdFTv3gkK5Rt+go+x6gHIJTrfg9AnhoAIp57+l/PsGhzveb+d2NlfZSn1rQytzJMm+p+8ZjhfgC5IUwaADkJdx70WG6WXgGIeK25vpa/Pf48vbICmvvfgdLGGHO3hNncolpf/BPKziHc0pzo6cGQycWj4bDJ6T2S6osAms4DFvHLpy8+AT3cICgTxIB19VHmbY1Q0ayKX/wXi5p9D0NAK5DQy/xI2P1pLlmaBSjiixVz3/E7hKQQiTld/QurwlS1qkEkySPc1mpyesSsAWB28R4JBlK8C0AkRZk+XaSDuZVhltZGNapfklI0YtQL3xYCWhI924sGgIYAiIhfFlRp8SNJTtFI2LSR3hbE6QFI7OzEBx+IiAcGjBjj27XHjBnr27VF0l1zfZ1xEUEg4d0eGmuqTAPolrbNFEnc+DM73tjHCwedMc23a4uku6baraZFVAeBhGvxxpqtrr8njGoUskjCJk79DsEs72eiBIJB9jv9Ys+vK5IpGmuNp+duDQFbEj07GonQXF9Lvos7AkaigGYCiCSkz6AhjJk4meVzZnl63bGTjqOf+X7lNIVjBAMQCAScZcuA1ijEYjGiMWiJQXM4RksUmiJQ3xajLhylLhyj1v0hSiK+aaox7gGoCQGVJiU0bN3iagOgNZbgFAURAWD8WdM8bwBMOMtO9//DJaldi9+6KOE3rGlxfXFP3ZYK0yK2BjFsANRuLjcNokvNGgQgYuSgb59NXu8iz66XV1jEASee6dn1RDJRdUWZaREVQWCzSQmVpSWmQXSpWbNwRIxk5+Vz8EnneHa9g085h5y8hHcZF5EeqDFvAJQFgfUmJVSVrjUNoktqAIiYG2+pS74nJpx1qWfXEslU1eXGDYDSILDGpITKMqPTu1WvFbhEjI0+7FvsNmov168zYPiejBx3hOvXEcl0W9auMi1ifRAw6sOvWu/uK4C6NjUARGw4dMqFrl9j/FnTCGj5bhFXRcJtbFm/2rSY0iCwEUh4Sb/ylYuJuThXvy6s9chFbJg49TJX1wQIBIOevmoQyVSV61ebLsXfCqwLsm2Xy0RLaaqrYeuGhE/vVq37Gw6KZIQ+g4aw54RjXCt/7OHHWpn7LyJdq1i1zLSIlUA4tO0/FgMJvyDcsPQL+g8ZYRpQh+raYrRFITtFFwNqbPV3FGNBjverwEnymnDWNNe2+dXTv4g3ypZ8blrEUvhmjb0vTUrasOwL02A6FQOqWvUaQMSGg06a6sqaAHmFRRz47bOslysiu1r/1WemRSyDbxoARjV46eKFpsF0qbJFAwFFbHBrTQDN/RfxTuniBaZFLAJLPQBrFsxxdSDgFjUARKxxo6tec/9FvFFVuob6qoS38Gk3D75pAKzEYFvghuoqylcsNg2oU+XNagCI2DLq0CMZMHxPa+X1HzpSc/9FPFIyf7ZpEbXAcvimARAB5puUuHreh4Yxda6qJUprVI0AERsCgQDjz7rEWnkTp16muf8iHlnx8XumRcwHorDjRrtGzYpVn35gcnqXYkBFk2vFi2Sc8WdOIxA0n1oTCAQ4bMpFFiISkZ5Y+YlxA2Be+//Z/g7wkUmJKz95j2jEvSlvG7QpgIg1/fYYbmVNgDGHH0v/oSPNAxKRblWWlthYd+frun7nHoCE+9kbtlay9otPTILq0toGvQIQsWmChcGANsoQkZ5Z8t7rpkXEgK+767dvAGxh28CARC1+5zWT07tU2RKlIaJGgIgtB510Nrm9eid8fm5BIQeceKbFiESkK4veNa5jv8Sp64EdGwAAs0xKthBcl9apF0DEmpz8XhxyyrkJn3/IqeeRW1BoMSIR6Uxzfa2NsXY7DCDYuQEw06TkilVLqDTfoahTq+o1DkDEpqOmXZ3QCP5AIMDRl17jQkQi0pGlH75lugEQwA7rgHfUA9BiUvr8V58xOb1LZY1RmvUaQMSaPfY+kMPP/Y+4z5t0/vcZvNcB9gMSkQ4tnPmsaREtwL+3/8HODYAGwGhC/2cvPWlyepeiMSip174AIjad/cv/Y/Rh3+rx399zwtGc/YtbXIxIRLbXVFvNkvffMC3mXaBu+x90NBHY6DXAlrUrWfel8UYFnVpepwaAiE3Zeflcef9LHH7ef3T5OiAQDDLp/O9z5X0vEsrN8zBCkcz2+ZsvEG416pwH2GWQXkcNgBmmV5n38lOmRXRqQ1OUra16DSBiU3ZePhf87u9c/+xsjrjgcgaMGENWdg5Z2TkMHDmWIy/8Adc/O5vzf3uXKn8Rj82z07P+ys4/CHXwl1YBnwHjE73Kglf/xZQb/kB2Xn6iRXRpaW2EIwZ0FLqImBiy78Gcd9OdfofxtcJQgH65UBgKUpgVoHd2gIIsyMmC3KwA+dseYULBAFnbOi8iMQhHY8SAG32LXMSOilVLWD3PaJ0+cJb/3WWEfme16DMYNAAaqqtYMPNZJk69LNEiurSsLsrEYr7+hReR9PSdUTlxn5MVgCzdHCRNzHnmQRvFdNgt39li4E9jsCogwIeP/93k9C41hWMaCyAiruufY75fgkii2pqbbAysjwEdTiHo7Nu9HvjY5IplS79gzcK5JkV06fOtYdfKFhEBuHBENtNG5XDUwBCD89UYEG999tKTNNVWmxYzG1jb0R909Y1+yPSqH7jYC7C1Nca6BvUCiIi7ikIBDuybxdlDncbAEQNC7JanxoC4KxqJ8O7Dt9so6rHO/qCrb/GT7DRnMF5fvPkCm0qMthfo0rytWhlQJBllBWDPwvSrJItCAQ7pl8W5w7I5f3g2+/XJIpR+H1OSwJf/fpEta1eaFtNAJ+//oesGQD3OYMCERSMRZj3wfyZFdKm8Kcp69QKIJI1eWQHG9w9x2agcThqc7Xc4rhqQG2TybiG+O9J5RdA7pIGHYs+7D/3NRjFPA7Wd/WF3bdcHTK8+75WnbLRiOvVxpXoBRPxWnBvk5MHZfGd0DhOKs8jLoFH4OVnOK4JLRjqNHg0cFFOL35tpa0G9Luvw7r6pHwMLTa4ejUSY9c+/mhTRpc0tUVZreWARXxSGAkzeLcT5w7MZXRgk2ar9YNCsMo7Fej4ZKrjttccFI7I5aXA2fbKTLRuSCmKxGK/f+T82ilpAN4P5e/LbcZtpFJ++8BjlK5eYFtOpOZvDhLU4oIhn8rICTCoOcfHIHPbrk5V0FX+7nJz41xHYXnNzc9znBHAaAheNyGHybiHy9WpA4vDlWzMoW/K5jaK6rbt70gB4GigziSIaifDqX39jUkSXasMxvtCAQBHXZQVgfHEWl47MYVz/LJK9bssvKDA6f+GC+QmfGwzAfn2yuGREDof1z9LCZdKtSLiNmXdYefrfAPyru7/UkwZAK2C8Nuji92ayfPbbpsV0av7WMPXqBhBxzaC8IOcNz2FC/xDZKfKae9iw4Ubnv/Si8dYo5ARhYnGI84Zna/qgdOnDJ+5hU8kyG0XdhVN3d6mn38b7MJwSCPDKX39DLOrO+/q2KLy3SYsDidgWCsCk4hBTh2XTPye1HmNHjhxpdP6DD9xP+caNVmLpnxPknGHZTN4tdRpQ4p36qi28dc+frRSFU2d3q6dfw2rgnoTD2aZsyee21jXu0LqGKKs0IFDEmsH5Qc4f4XT3p1bV7zhk3KFG59fX13PJRRfQ0mK8FSvgjA/Yr08WFwzPYWhBKmZU3DLz9ptoqquxUdRdQFVP/mI87dCb6WI+YU+9ett/U1NhNKSgSx9sDtMc0asAERPBABw5IMTZQ7Ppm8Kj2Y848lvGZcydM5tTTzqRjRs3WIjIUZQd4IwhOUwaEErJhpXYtfbzT/h4+iM2imogjoH78TQAKoE74g5nJ831tbzwp5+aFtOppnCMdyr0KkAkUXlZAU7fI4eD+2X5HYqxwydNoqioyLicuXNmc9B++/CLn/2UObM/stYjMK5fFmcOzaYg2UdTimsiba3867+vtvV6/E5gU0//crzfur5Aybb/NfK9O/7FASecYVpMpybvFmK/PuY3sIIcszIaW/2dnZDq8XfH9PPduqjRUiTuuHF/s1Hs8X6+gXlBTh5sb1W7ZPj+XfH9/+CJxztdDj2lJfv3V7r3xt1/5M2//9FGUXXAaGBLT0+IdyhKNWBlbd/nf/8T6qt6HGfcZm8JU9WqVwEiPbVfnyymDs1OuyVtL7n0Mr9DEOlQ6aIFvH3/zbaK+wtxVP4QfwMA4K/AmgTO20Ht5nKe+tUP4lppKx5tUXhjQxutUTUC0lWrxntaEcDpMZu8Wygt56ofd/zxxoMBRWwLtzTz1K9+QCTcZqO4MhJYtC+RBkAT8IsEztvF0g/eZO6z/7RRVIeq22K8Xa7xAOlqVrmVX5yMlhWAEwdnW3ldlsx++rOf+x2CyA5euuUXNlfI/RUQ9/ugRGejPgN8mOC5O3jpLz+3tfBBh9Y0RPlMGwalnU+rwpRoJ0gjoSCcMjibMWm4be/Ozjn3PI4+ZrLfYYgA8NXbLzP7aeO99trNBx5P5MREf/NjwHWA8R24tbmRR66fRktjvWlRnfq0KsyyOlUW6WJFnRp1pnKyAkzZI5vhvdK/8m93621/Izc31+8wJMNVrl/NU7++wtbr7yhwNQnWxSa//fOwsDgQQPmKxTz5i8tdGw8A8G5FG6WNGg+Q6jY0RXmnQl3/JvKyApw9JMTg/Myp/AEOOPAg/ucPf/I7DMlg4ZZmHr3hUprrjJfUaXcv8EmiJ5veAX4JrDcsA3C6RGb9w8oEgw5FY/BGeRuVLeoJSFWbW6LM3BBG6zwlLhSE0/YIUZybWZV/ux9f+xOmnnOu32FIBorFYjzz2x9TunihrSLLgV+bFGB6F6gDrjEs42sz7/gdSz9401Zxu2iNxHipTNMDU1F1W4xXN4Q1q8NAMACn7J7NoAzekCYQCPDQo49z/Akn+B2KZJi377+ZeS89abPI63Cm5ifMxp3gFZwtg43FolEevfE7NltIu2iOxHiltI2aNlUkqaKmLcZL69to0m6PRo7dLZthGfTOvzM5OTk8+fSzGhQonvnirRm8ftfvbRY5gx5s99sdW3eDa3G6I4y1NNTxj6unUlW6xkZxHWqIxJhR2kaVJpInva2tMV5c30aD+v2NHDkgxN5FqvzbFfXpw4uvvKbXAeK6kvmznTFu9nbCrQCusFGQrTvCZuC7OLMDjNVtqeDeH0yhvmqzjeI61BiOMaM0zKZmNQKS1ZaWKDNKVfmbOqhvVlqs629bXl4ejz/1L2659TbNDhBXbFy+iAd/dB5tzU02i/0Rca741xmbjwRvYmGzoHaV61fz4I/Oo7ne2mjJXbREYry8IUxZoxoByaa0McaLpdrZ0dSgvCBHDAj5HUbSCgQC/Og/r+XDOR/rlYBYVVlawv1XnkFTrdFr+p39A3jeVmG2+wR/Dnxhq7B1X3zKA1ed5WojoDUS49UNbVonIIksq43y2oZWDfiz4OQ9QgTTcHlf2/Y/4EDe+Pcsnnj6GQ4+ZJzf4fRYXjqu3ZwGtm5cz32XT6F2s5U34+0WAT+xWaDtBkALcAlgbVWfNQs/5oGrzqaloc5WkbuIxJxlZT/V4jK++7QqzKyKNk31s6SXKoi4TD3nXOZ88hmvvv4W0y79DkV9+vgdUpdOGBSKe0tXcVdV6RruvuzbVJaW2Cy2EbiABJb77Ypb350LsTQzoN2ocUdwxX0zyO3V22axuxhRGOTE3ULkbLtxJsN2piZSJf7WKLxT0cbq+vh6YrzeLtdrpp9P3z8zLS0tfPLxXObMns2C+fNYu3YtZWWlNDY00NDQ4Gts4OTn48ow86v08JIMKtev5p7vncrWjVaWx9ne93FiguYAACAASURBVIGHbBfqZuPxVuAGmwUO3mt/rrj3RfoM2sNmsbvomx3glD1C9MvRqGkvVLVGeWNDmGpNzbRiaEGAKUNy9GSYIaIxeLmsjQ1Neo3pp/KVS7j/yjOoqdhgu+i/4wz8s87NocGzgGOAkbYKrK/czJdvv8S+R59Er77FtordRXMUltZGyQkGMnrRFC8sq4vyxsY2GvUAY0UoCKcPySFPL/4zRiAAQwqCLKmNoGEz/lj7+Sfcf8UU6io32S76I5zX6q7cId1sAESBmcC5QD9bhTbVVrPw9ecZM/EY+uzmXk9AFFjXGKWiJcbQ/CDZuqFa1RyJ8WZ5mIVbddOy6fDiECO02E/GyQ0GgABl6gXw3OdvTOehay+kud76OLV1wImAa6Pg3Z4c3IAzPfASIN9Woa1Njcx/9RkGDN+T3cfsZ6vYDtW2xVhaFyU3CAPVG2DFqvoor20Ms6VFNb9N/XOCHD8oREBt1Yw0KC/ImoYYTRpB64lYLMZb9/yJF/54A5Gw9Q3K6oCTgVW2C96eF6uDbAE+Bi4GrE1IjoTb+PKtGbS1tDBm4jEEgu5VzpEYrG2IsqklxuD84LbWtsSrIRJjVnmYeVURwnpQsSoAnLpHiN7Z+m5mqkAABuYGWFqrXy63tTY38tQvLuejp+5zo/g24Gyc7n9XebU82FqgBJiK5YGHJfNns/6reex3zClk5+bZLHoXNW0xFtdGiMYCDMoPan51D4Vj8PnWCG+Wt1GpjZhccWDfLPbro9X+Ml2vUIDGCGxW75prNpUs574rprDyk/fdKD4GXA5Md6PwnXl5x/gSqAFOsV3wlnWrWPjG8ww/cDx9dx9qu/gdRGPOnvQraqP0yg7QP0etgK6srI8yc0MbqxuietfvkvxQgFMGZ6Mp/wIwOD/A0rqoetlcsHDmczz4o/OoKS9z6xK/Bu5yq/Cdef3IMBcIA8fbLriptprPXnyCQABGjTvS1VcC4MxbX1UfZXV9jPyQGgI7K22M8ebGMF9WR9CeS+6a2D/EkAKNTxFHViBAKOAMYhY7WhrreeEP1/Pa324i0tbq1mX+BPzOrcI74kef4QdAHnCU7YJjsSgrP3mfVZ+8z9jDjyW/t/ureDVFYqyqj7K+MUZBKEDfDG4IxIB19VFmVYSZvzVMowYjua4gFOCEQdl6HSU7GJAbZGVdlBa1AYytWTiX+684kxVz33HzMn8DfubmBTri10vDt3GmBk5yo/CtG9fz8fRHyC0oZNgBhxHwYFh0QzjGirooK7btKVCcmzljBCIxWFEf5e3yNr6oidAQVsXvlUnFIXbP19O/7CgQgNysACVxrqwp32hrbuL1O/6HZ2/6EY3VVW5e6l7gWjcv0Bk/Rw29jjMg8Fg3Co+0tbL0gzdZ/N5rDDvgMIoG7u7GZXbREnW63r6qiVLXFqN3yHlKS0fVbTEWVkeYVRFmRW2EJi3m46nCUIDjd9fTv3Ssf26AlXVRtON5/FZ/9iEPXnMeX816mVjM1Qea9lX+fHlq8nvY8Lu4NCagXe3mcj6d8RhtzU0MP2gCoewcty61g0jMGYm7qCZKWVOMaAx6ZwcIpfjduikcY3ldlI+2RJi7JUx5U0yDjXxy5IAQu2ltCulEAAgFA6xp0C9oT9Vu2sjzf7iel27+OQ1bt7h9uT8CP3X7Il1JltroJ8BtuBxP7wGDOPU/b2LiOZe5PkiwI8EADMkPMLowi+G9ghSmSM9AfTjGuoYoq+ojlDXG/Gmqyg4KQwGmjczR0790KRqDx0taadB4nC61NTfx3iN3MOsft9LSaG0z287EgF8Cf3H7Qt1JptvHNOBBINftC+2x94Gc8V9/Zq8jXOt46JH+OUGG9wowJD/I7vkBcpLkbt4aiVHeHKO0Kcq6hhhbNYw/6UwaEGJcP7878CQVfFoV5jNtdd6haCTC/Fee5vW7fs/WDeu8uGQbcAXwiBcX605y1DjfOBKYAQz04mIjD5nE8Vf8lP2PPc2Ly3UpAPTLcRoCA3MDFOcG6JcTxO0NCVujUNUSpao1xuaWGOVNToWv54XkFQrAZaNyyNXEf+mB+nCMx0ta9Tu9nVgsxuL3ZjLz9t+ycflXXl22HrgAZ4+cpJCMd5B9gFeB0V5dcNS4I/j2Nb9k7yNP9OqSPdY7FKAox/nf3qEghdkB8rMgNwh5oQC5AefVQiAQ+Lqx0Bp1vuDRGLTEoDkcoyUKTRGob4tRF45SF45R2wp1GrGfcvYtCnLsoGy/w5AU8tqGNtZqLACRcBsLXn2Gdx66jfIVi728dCkwBfjcy4t2JxkbAOD0ADyDSzMEOjN4r/05ato1HDrlQnLyCry8dEaqr9pM2ZLP2VSynM1rlrOpZAX1VZtobWyksXYrrU2NAOTkF1BQ1I+cggJ6Fw9i4Mgx7DZqbwaOGsuQfQ6hsP8Anz+Jt6YOzbYy9a+qspL58+axePEili5dwpqS1WzatJktWzbT3NREba2zCVlBQQFFffrQp6gPQ4YOYeSo0YwaNZqDDz6E8RMm0Leftc0+M4qX+V9bH+W1jdY3rEkZzXW1zH3+IT547G6qy0u9vvwHwPlAhdcX7k6yNgDA2Tjof4Eb8DjOgj79OPy873HEBZdTPHSUl5dOa63NjSyfPYuVH7/Lyk/eo3zFYuMpNoFAgN3H7s+Ywycz9vBj2euI48nOs7bxZNLpmx3g4pGJzWRpbm7m3VmzePXVl5n94YcsXbrEyhSnsWP34vgTT+TUU0/n6MmTyc9P3/yb8DP/MeCJktaM6/ErXbSA2c88wIJXn6W1qcGPEO4Grsd59590krkB0O584J9AodcXDgQCjDr0SMafOY2DTz6HvN5FXoeQ8mLRKGsWzuWzl55k4cznaK53bWtrAPIKi9j/+CkcfPI57Hv0yQSz0mug3MTiEIf17/lnisVivPvOOzzy0IPMfO1V6uqs71m+g8LCQs6eeg7TvvNdjj7mGII+zLZJJsmU/88qI3xaFXb1+smgrnITC2c+x7yXnmT9ovl+hdGIM7//Yb8C6IlUaAAA7As8DRzkVwCh3DwOOO50DjzxLPY56iQ1BroRbmnm4+mP8u7Df6OqdI0vMRQPHcWx37uOiedcRijH9cklnrhkZA59erDlb2NjI//8xwPc+/e7Wb3a1S3FO7XnnmO49rrrufSy72Zcr0Ay5r+6LcZTa1xbx95X9VVbWPzeayyc+Rwr5r5DNOLrrIcvgYsATwcZJCJVGgDg7B/wZ5w1A3yNOys7hz0nHM3+x53OvsecrNcE22ltbmT2U/fz3iN3ULu53O9wACgauDvHfu86jrjwByk9tmNAbpDzh3c9+K+pqYl7/343f7vtVjZv2uRRZF0bMHAgN/70Z/zwmh+Rm5seDbHOJHv+Z5QHqUqDab2xWIyKVUtZ8v7rLHrnVdZ+/rHflX67e3FeWzf5HUhPpFIDoN3JON0q3qzt2wN9dx/KnhOPYcyEo9lzwtEUD/NsAkNSWfTua8z4041Ula31O5QO9Rk0hLN/cTMHnTTV71AS0l33/wvTn+dXP/8Za9eu8S6oOIwYMZLf/+nPnHf+BX6H4opUyP9//PKPFB2det//aCTCptXLKFkwh5WfvMeqT96nrjI5GljblAM/BF70O5B4pGIDAJxZArcDF/sdSEd69e3PkH0PYci+B7PHPgexx94HMWD46LTpht5ZVdlaXvjjDSx+L2mmt3Zp/+NOZ+qv/0q/wcP8DiUuF47Ipn8HC0OUlZVy9ZU/4N9vveVDVPE7+dRTufPuexg6NLXy35lUy/++x5zMeTfdSd/dh/odSodaGuvZVLKcTauWsmH5V6z/ah6lixZ4sUJfop4C/hOo9DuQeKVqA6Dd6TibKQz3O5DuBAIBinbbgwHDR1M8dBT9hgynV98B9OpXTO/igfTqO4Ds/HzyCvsQDAYJhkLkFng+7jFuX739Mk//5iqaaqv9DiUueYVFnP+7uznklHP9DqVHCkIBvjtq19H/Tz35BDdcdy011amV/6KiIm674y4uvmSa36EYSdX85xUWcc5vbuOwM9x/hmprbiLc2gJAc30tjbXVNNVupbFmK/WVm6muKKO6vJStG9axtWwtWzeudz0mSzYCPwam+x1IolK9AQDQG2dThR8BaTfk+NZFjX6H0KFwawuv3PprPnj8736HYmTS+d9n6q9uTfremX2Kghy33eI/4XCY393039x6y80+RmXukmmXcuff7025QYLpkv/DzryE82+607Wpszfun7pjbroQwZne9/+AGp9jMZIODYB2hwJ/A472OxCbkrEB0FBdxYPXnMPazz/xOxQrRo07gu/f/RwFfZJ3QZvjd89m795O+3ZTRQUXXXAec+fM9jkqOyYePonnps9gwEBPVgA3lm75H3HwRL5/13OuLKiVhg2Aj4GrgQV+B2JDOj0xzweOAc4ESnyOJW3VbtrIPd87OW0qf4CSBXO469IT/FghrMcG5ztt9XXr1vLt449Nm8oH4JOP5zL5qCNZuXKF36F0Kx3zv/bzT7jj4slsWbvS71CSWSlwFfAt0qTyh/RqALR7Gdgf+DWw1edY0sqmkmXcfvFkNi5f5Hco1lWsXspdl57AppLlfoeyi4JQgKJQgGXLlnLC5GNYsSL5YjRVUrKak044Lqk/Wzrnv7K0hLu/exKb1yR/I8xj1cDPgbHA/Tjd/2kjHRsA4MzB/BPOhkL/A7i7/FwGqKnYwP1XnpXUT8mmtm5cz72Xn+bVtqA9Nig3QGnpes487VTKytI3/+UbN3LaSd+mpGS136HsIhPyX7u5nHu+fxqVpepABepw6pAxwM1As7/huCNdGwDtqoGbcBoCf8H5R5U4NVRXcd8PpiRdxeiGmooNPPDDqTTWJE/nUbB2M6ed9G3Wr0///JeVlTLllJPZsnmz36F8bVNFRcbkv6aijPsun0J91Ra/Q/FLHc6g8lE4vcgpN7UvHuneAGhXCfwCGIbTnVPmbzipI9zawoPXnEPF6qV+h+KZilVLePCac7+euuSnSLiN3191cUq8H7elpGQ1F55/Li0t/ue/ra2NaRdfmFH5rywt4eFrL0yK77+HyoBfAiOA35DmFX+7TGkAtKvB6c4ZBVwGLPQ3nOT30s2/SKsBfz21ZuFcXrn1136HwQt/vIF5cz70OwzPzZn9Edf/5D/9DoMbrruWjz78wO8wPFeyYA7T/3i932F4YT7wHZxe4v8lw8aNpdM0wEQdBlyJs6pgb59j6Yif/0bnAc96cJ1yYBbOFJulwGqcFnj70l+FQDHOL+k+wCTgONxfDjqGkwO/Fvq4FHjMg+ska/4BLgSe8eA6HVH+zfOfjPsPN+MMFr8f+LfPsUiS6A1cAXwERHG+uMlw+GUkzhgKtz7XFpzlnMcbxDgBuGNbWW7FuRWnW9BrQ7ddW/lX/juTCvl3K654jyjOvf0qQFu5SpeG4uw6+CH+Nwb88nI3cSV6rMfJrc0VQnoB1+HM1XUjZj82+HjDIN50y/8rFmPtKeXfTv7diCeeYxHwW5zR/CJxGwVcj3NDaML7L7Afzo4zxp4crThPPG5ucFCA88ve7EL8Z7gY984ucCH+VM+/l1vYKf/28m87ju6OZuBN4FqcVyYi1hQApwF34rQsvegd8FoBsCbBWDs7lgIHe/gZDgGWWf4MqwEvFqzPx1nJUvnf8VgLeLFhg/JvN/82Y+joiAJf4LwKmYq7DSyRHfQHpuAsGPE+zqAd219wr/3UMN6dj+fw55eyN87gPZuf5ToP4v6Z5ZjTKf/XehC38m83/zavH8OZyfUOcAtOhV+cQEwirgjivGs6B2cBoudwegoaSfwL76VcnPmwtn5ZHwJCnn6CHWUB93QQV6LHBiDPxXgLgAqL8d6DkwO/ZAH3dRBXokc5zvtutyj/9vOf6LWagS9xZiH9AWeW1j5k3tR1SRO740zfuRj4L5wW7EPASzijU5cCq4DNQBXOilReNwCuwd7N4l6PY+/KHdj7XFe5GOd1FuO8x8U442WzErraxTiVf/v5j+E8AFVtO8qAxTj3vFdwplneDtwIXISz2c5w/G04iWScIM57bhs3iedIrl/gLOAF7Hy2lbizNkNgW9nKf9fHEpT/eKVC/kXER8dh5waxguScZ1uIc/Oy8RmPcSG+EyzFtpTkHAjVG1iOnc94ogvxKf/+5l9EfPRPzG8MLXg72jle43CmY5l+zgdciO1JC3FlSv4fdiE25d/f/IuIT/Kxs+rfn70OPAG3YP45a7A7JTAXZ8tq5V/5d1sy5l9EfHQW5jeFUtwdoW1LIc5oftPPe7rFmE63EE+m5d/mwkzKv7/5F59oSoUAHG+hjFuABgvluK0e+D8L5RxnoYx2UyyUkWn5/7aFMtop//GzmX8R8dEXmD0NbMHu2uZu64X5BioLLMbzlWEsmZj/xRbjUf79zb+I+GQ3zJc0vsPzqM3didlnjgADLMRRjPKf6GFjFTjl39/8i4iPTsb8RmCypalfJmL+uW10gyr/iR8nWIhD+fc3/+IjjQGQvQ3P3wjMsxGIxz7FWfbVxF4W4tjf8PxMzv84C3Eo/4mzkX/xkRoAYtoAeAfnaSDVxIB3DcswzR3AvobnZ3L+bTTAlP/E2ci/+EgNADH9Jf7YShT+mGt4vo0GwCjD8zM5/8MsxKD8J85G/sVHagDI7obnL7UShT+WGZ5vmjsbZWRy/m1UQMp/4tQASHFqAIjpuuUrrUThjxWG5/e2EMNAw/MzOf/9LcSg/CfORv7FR2oAiOnGPdVWovCHaew2GgCmZWRy/m3MvVf+E5dKax9IB9QAENMegHorUfijzvB8Gw2AkOH5mZx/GxWQ8p84NQBSnPZ1FtMRzPoOmYlg1hDPxdnhTRKj/EvGUg+AiL9aDM9Pxr3nU4nyLxlLDQARf5m+h+1nJYrMpfxLxlIDQMRfNYbnj7ESReZS/iVjqQEg4q9Sw/NtLEaUyZR/yVhqAIj4a7Xh+ZOsRJG5lH/JWGoAiPjLtAI6Ds3EMKH8S8ZSA0DEXwsMz9+d1NyONlko/5Kx1AAQ8ddnmK/F8B0bgWQo5V9EMlbM8BBzyzD7N9gC9PI86vSh/EtGUg+AiP/eNDy/GLjCRiAZSvkXkYykHgD/nYb5v0MpegpNlPIvIhlJDQD/5eNszGL6b/EXrwNPE8q/iGQkNQCSw8OY/1u0AuM8jjtdPIzyLyIZRg2A5HA85v8WMWAFUORx7OlA+ReRjKMGQHII4lQeNiqh6UCWt+GnPOVfRDKOGgDJ42rsVEAx4D6PY08Hyr+IZBQ1AJJHHrARe5XQQ0DI00+Q2pR/EckoagAklxuxVwHFgBeA3p5+gtSm/ItIxlADILnk4mxQY7MSWo5Gp/eU8i8iGUMNgORzIXYroBjOFLWbgUIPP0eqUv5FJCOoAZCcXsV+JRQDNgDXo1XruqP8i0jaUwMgOQ0FanCnEorhbGBzJ3A42s++I8q/pD198cS0Etd3yD2XAo95cJ1NwDvAXGApUAJsBupxuq4zlfIvaU03b/8rwEy/vnTtHuCHPl4/BlQDYZxKaT1QhrOF7gJg4bafpyvlXySN+d0FnunXl67lAnNwryvaxrEUpzv7TJyNddKJ8i+SxvyuADP9+tK9gThTyfyuaHpy1ACPAieRPr1Dyr9ImvK7Asz060vPjMYZQe53BRPPsQz4Mekx9U35F0lDfleAmX596bmxwDr8r1jiPTYDPyf1u6eVf5E043cFmOnXl/iMAlbhf6WSyLEOONd+Sjyl/IukEb8rwEy/vsRvAPA+/lcoiR6vACOsZ8U7yr9ImvC7Asz060ticoH78b8ySfTYirPkbqpS/kXSgN8VYKZfX8xcgHMz97tCSfR4AKcyTVXKv0gK87sCzPTri7kRON26flcmiR4f4HSrpyrlXyRF+V0BZvr1xZ5zgLX4X6EkcqzCGWCXypR/kRTjdwWY6dcXu3KAK0m9OeuxbTHvZz8lnlL+RVKI3xVgpl9f3NELuBpYgv8VS7yV0GgX8uE15V8kBfhdAWb69cVdAeBE4GGcTWX8rmB6ciwjfd5JK/8iSczvCjDTry/eyQPOAO4AFuN/RdPVMZv0G52u/EtS0WYR5pVYqm/H6/f1xT/FwCHAOGBvYAgwfNvPc4E+QNC36JyteK/x8fpuU/7FV7p5ixoA0pV8nAqpGBgEHAYcCRyx7WdumwY86cF1kpXyLyKu0SsASUQAOAp4CKjHva7oapwnY9mR8i8ixtQAEFNFwHVAJe5UQi9791FSkvIvIglRA0Bs6Y8zwK0V+5XQBR5+jlSl/ItIXNQAENvGA2uwWwGtQqPSe0r5F5EeUQNA3FAMvIHdSugGTz9BalP+RaRbagCIW4LAg9irgCpwRsVLzyj/ItIlNQDETUHgCexVQj/0NvyUp/yLSKfUABC3hYAXsVMBrcDfxXFSkfIvIh1SA0C80Ad7A9OO8zb0tKD8i8gu1AAQrxwFhDH/zj3kdeBpQvkXkR2oASBeugXz71wdGoyWKOVfRL6mBoB4qQ9Qhfn37hSvA08Tyr98TYM5RMRLNcDtFso51UIZmUj5F5GvqQdAvGbjKXSp51GnD+VfRAA1AMQf92P2vYsC/TyPOn0o/6JXACLii+cNzw8Ah9kIJEMp/6IGgIj4YhZON7SJQ2wEkqGUf1EDQER80YZTCZnY00YgGUr5FzUARMQ3XxmeP8pKFJlL+c9wagCIiF++NDx/qJUoMpfyn+HUABARvyw2PL+PlSgyl/Kf4dQAEBG/1BieX2Qlisyl/Gc4NQBExC+thufnWYkicyn/GU4NADG9CeRYicIfuZgthtJsIYY2wxhSeVOWNsPzw5ZiUP4TYyP/4iM1AKTe8PxCK1H4o7fh+XUWYmg0PL/YQgx+MW08RizEoPwnzkb+xUdqAEit4fmpvBxoX8PzbTQATHsRUrkCGmF4vvJvJhnyLz5SA0BMewBSeTGQsYbn27gBbjE8f5CFGPwy3PD8TRZiUP4TZyP/4iM1AKTc8Px9rEThj70NzzfNHUCp4fmpvB77aMPzbVRAyn/i1ABIcWoAyHLD8ydZicIfRxiev8xCDOsNzz/SQgx+Ocbw/NUWYlD+E2cj/+IjNQDEtBI7HmdnsFQTACYblmGjAWDaAPsWqZn/bOBYwzJs7Emv/CfORv7FR2oAiOkv8SBgvI1APHY45u9vbTQAFhie34/UfAo9EvOFZGxUQMp/4tQAEElxA4EoZnOh7/A8anN3YfaZI9gZAT7QMI4Y8E8LcXjtPszz399CHMq/v/kXEZ99jtnNYAvQy/OoE9cLJ2aTzzzfYjxLDWOpJ7WWZe0PNGD2mb+wGI/y72/+xSd6BSAA7xieXwxcYSMQj/wQ86d3073Ut/eW4fm9gMttBOKRHwIFhmW8byOQbZT/+NnMv4j46EzMu0FLSY1egN7ARsw/72kWY7KR/0pSo0u2L870SdPPe7LFmJR/f/MvIj7KB6oxvyn8r9eBJ+D/MP+c1dhdAz4PO/lPhbEYpu+e2/Nvcw8K5d/f/IuIzx7E/MbQCozzOvA4HIoTo+nnvN+F2B61EFcrMMGF2Gw5CmfwmOnnfMSF2JR/f/MvIj46FvMbQwxYQXIOiCrEfLBX+3G0C/GdZCm2NSTn+vT9cebcK//+SPb8i4iPgsAq7NwgpgNZ3obfpSzgRew1cNxY+CUALLEU479Jrvxn48Rk47MtQfmPVyrkX0R8djV2bhIxnHeNySAAPIC9z3Wli7H+2GKcD5IclVAAeBh7n+tqF2NV/v3Nv4j4KBcow97N4iEg5Okn2FEWcG8HcSV6rMfJkVsKgQqL8T6Jv/nPwW7lswFnwJ5blH9/8y8iPrsBezeMGPACztQ7rxVhr9u//fiJB3FfZznmF3GmfnmtP876EjY/yw0exK38+5t/EfFRAVCC3RvHcrydHXAozrt6m59hJd48/eQB6yzHvhbzjY/icRT2Bpxtn383e1/aKf/+5l9EfHYqdm8eMaANuB13ewMKgN8CLS7Ef7qLce/sXBfijwC34O7TaF+cVy6me0t0dJzlYtw7U/79zb+I+Mx293n7sQG4HrurBvbC6Z60scJfR8d0i7H21CsG8XZ1bAX+H9DHYqzFwK+ws8JcR8crFmPtKeXf3/yLiI+G49ys3LihxHA247kTZ1veRKYVBYBJOLv6VboYZxUwLIH4TI3A3fxX4SxodDLONLF4ZeN0a98HNLoYZyWwRwLxmVL+/c2/eEDzOaUrU4Hncf97sglnwNJcnMV6SoDNOLusgTM6eyAwCtgHp+I/DtjN5bhiODl40eXrdOZC4GkPrlOFs7nRl8AiYPG2n7Vu+/NsYChOpTgaZyGY4/FmcOfFeJODjij//uZfRHx2O+49XST78VcL+TNlcw2DVDvutJA/U8q/iGSsXOAj/L8ZeX28T3JseJKN/elcqXB8hPKv/IuI7/oAC/H/puTV8RXJtbXrAOwt05wKx1KcVz7JQvkXkYw2BGejE79vTm4f63EGQCab4dhfnyEZj1JgpJ2UWaX8i0hG2xtnURO/b1JuHWuBvaxly76xONMo/c6TW8d6nEGeyUr5F5GMNhj4HP9vVraPRfgz3S9eo7C3rXEyHauAPS3myS3Kv4hktP6k18DA94F+VjPkrgHAbPzPm838p9I7Z+VfRDJaCPhf3Fl21KsjijPNMRVHO+eSHlM070P5V/5FJCWdhbNoid83sniPGuB8F/LhtUuAavzPZ7xHJXCRC/nwmvIvIhltBO7tHeDGMZ3UeN/fU0Nwb+16N45XcMaSpAvlX0Qy3hRgNf7f4Do7VuHtrn5eu4Dknq++kvTeVU75F5GMlg9chzOf2O8bXvuxHvgJzl7v6S4HZ2fECvzPe/uxYVtMmbCfvPIvIhkvF7gK56nDrxvfCuBKMnOQUz7wQ5wc+JX/xcDVZEbDa2fKv4gIcBjOiOktuH/TqwYeBU5Eu10CBHF2TnwYuxLjFwAAAQNJREFUqMO7/B/twWdLBcq/iAjOk8jpOLvsLQAimN/wIsB84FbgNPS005V84BTgDpzFbGxM4YzgbGN7F87e9pnY29JTyr8kFT0hiZ8GAONwlt/dB2ep4d1w9jnvCxRu+3v1OE82dTjvVpfj3ECX4TQkKj2NOn30BSYAh+DsMz8aZ9/53kARziZQNTgVVTOwCSjH2RNiKU4X82c400Alfsq/iIiIiIiIiIiIiIiIiIiIiIiIiIiIiIiIiIiIiIiIiIiIiIiIiIiIiIiIiIiIiIiIiIiIiIiIiIiIiIiIiIiIiIiIiIiIiIiIiIiIiIiIiIiIiIiIiIiIiIiIiIiIiIhIJ/4/0eyx+5YbE60AAAAASUVORK5CYII=;" vertex="1" parent="1">
          <mxGeometry x="420" y="322.5" width="39" height="39" as="geometry" />
        </mxCell>
      </root>
    </mxGraphModel>
  </diagram>
</mxfile>
